<?xml version="1.0" encoding="UTF-8" standalone="no"?>
<!-- Generator: Adobe Illustrator 24.2.1, SVG Export Plug-In . SVG Version: 6.00 Build 0)  -->

<svg
   version="1.1"
   id="Слой_1"
   x="0px"
   y="0px"
   viewBox="0 0 5000 3500"
   style="enable-background:new 0 0 5000 3500;"
   xml:space="preserve"
   sodipodi:docname="4_SCENE.svg"
   inkscape:version="1.3.1 (91b66b0783, 2023-11-16)"
   xmlns:inkscape="http://www.inkscape.org/namespaces/inkscape"
   xmlns:sodipodi="http://sodipodi.sourceforge.net/DTD/sodipodi-0.dtd"
   xmlns:xlink="http://www.w3.org/1999/xlink"
   xmlns="http://www.w3.org/2000/svg"
   xmlns:svg="http://www.w3.org/2000/svg"><defs
   id="defs166"><pattern
     inkscape:collect="always"
     xlink:href="#pattern6-7"
     preserveAspectRatio="xMidYMid"
     id="pattern187"
     patternTransform="translate(190,350)" /><pattern
     patternUnits="userSpaceOnUse"
     width="29"
     height="20"
     patternTransform="translate(190,350)"
     preserveAspectRatio="xMidYMid"
     style="fill:#000000"
     id="pattern6-7"
     inkscape:label=""
     inkscape:collect="always"
     inkscape:isstock="true"><path
       style="fill:none;stroke:#000000;stroke-width:10;stroke-linecap:butt;stroke-dasharray:none;paint-order:stroke markers fill;stop-color:#000000"
       d="M 0,5 C 19,5 10,15 29,15"
       id="path4-2"
       sodipodi:nodetypes="cc" /></pattern></defs><sodipodi:namedview
   id="namedview166"
   pagecolor="#ffffff"
   bordercolor="#000000"
   borderopacity="0.25"
   inkscape:showpageshadow="2"
   inkscape:pageopacity="0.0"
   inkscape:pagecheckerboard="0"
   inkscape:deskcolor="#d1d1d1"
   inkscape:zoom="0.10113475"
   inkscape:cx="2022.0547"
   inkscape:cy="2279.1375"
   inkscape:window-width="1360"
   inkscape:window-height="745"
   inkscape:window-x="-8"
   inkscape:window-y="-8"
   inkscape:window-maximized="1"
   inkscape:current-layer="Слой_1" />
<style
   type="text/css"
   id="style1">
	.st0{fill:none;stroke:#66B0F0;stroke-width:6;stroke-miterlimit:10;}
	.st1{fill:#D0F0E4;}
	.st2{fill:none;stroke:#FFCF2D;stroke-width:6;stroke-miterlimit:10;}
	.st3{fill:#FFFFFF;}
	.st4{fill:#66B0F0;}
	.st5{fill:#FFFFFF;stroke:#FFCF2D;stroke-width:5;stroke-miterlimit:10;}
	.st6{fill:#FFCF2D;}
	.st7{fill:#FFFFFF;stroke:#FE5244;stroke-width:6;stroke-miterlimit:10;}
	.st8{fill:#FE5244;}
	.st9{fill:none;stroke:#FFFFFF;stroke-width:5;stroke-linecap:round;stroke-miterlimit:10;}
	.st10{fill:#3FB1B5;}
	.st11{fill:#FFFFFF;stroke:#66B0F0;stroke-width:6;stroke-miterlimit:10;}
	.st12{fill:none;stroke:#FFCF2D;stroke-width:5;stroke-miterlimit:10;}
	.st13{fill:#A0505A;}
	.st14{fill:#73325A;}
	.st15{fill:#FEB040;}
	.st16{fill:#E57281;}
	.st17{fill:#9A3B82;}
	.st18{fill:#FFFFFF;stroke:#FEB040;stroke-width:4;stroke-miterlimit:10;}
	.st19{fill:none;stroke:#FE5244;stroke-width:6;stroke-miterlimit:10;}
	.st20{fill:none;stroke:#FFFFFF;stroke-width:6;stroke-linecap:round;stroke-miterlimit:10;}
	.st21{fill:none;stroke:#73325A;stroke-width:5;stroke-linecap:round;stroke-miterlimit:10;}
	.st22{fill:#FFCF2D;stroke:#FFFFFF;stroke-width:5;stroke-miterlimit:10;}
</style>
<g
   id="FLOOR">
	<line
   class="st0"
   x1="3928.5"
   y1="3059"
   x2="969.1"
   y2="3059"
   id="line1"
   style="stroke:#888887;stroke-opacity:1" />
	<line
   class="st0"
   x1="1227.6"
   y1="3112.6"
   x2="2922.3"
   y2="3112.6"
   id="line2"
   style="stroke:#888887;stroke-opacity:1" />
</g>
<g
   id="TABLE"
   style="stroke:#888887;stroke-opacity:1">
	<path
   class="st1"
   d="M3776,2393.9h-473.3c-22.4,0-40.6,18.2-40.6,40.6V3059h554.4v-624.5C3816.6,2412.1,3798.4,2393.9,3776,2393.9z   "
   id="path2"
   style="fill:#9ff1d2;fill-opacity:1;stroke:#888887;stroke-opacity:1" />
	<path
   class="st2"
   d="M3776,2393.9h-473.3c-22.4,0-40.6,18.2-40.6,40.6V3059h554.4v-624.5C3816.6,2412.1,3798.4,2393.9,3776,2393.9z   "
   id="path3"
   style="stroke:#888887;stroke-opacity:1" />
	<rect
   x="3198.3"
   y="1692.3"
   class="st2"
   width="683"
   height="1366.6"
   id="rect3"
   style="stroke:#888887;stroke-opacity:1" />
	<polyline
   class="st2"
   points="3899.2,1521.2 1556.9,1521.2 1556.9,1692.3 4030.9,1692.3  "
   id="polyline3"
   style="stroke:#888887;stroke-opacity:1" />
	<path
   class="st2"
   d="M3776,2013.5h-472.4c-22.4,0-40.6-18.2-40.6-40.6v-166.8c0-22.4,18.2-40.6,40.6-40.6H3776   c22.4,0,40.6,18.2,40.6,40.6V1973C3816.6,1995.4,3798.4,2013.5,3776,2013.5z"
   id="path4"
   style="stroke:#888887;stroke-opacity:1" />
	<path
   class="st2"
   d="M3776,2315.5h-472.4c-22.4,0-40.6-18.2-40.6-40.6v-166.8c0-22.4,18.2-40.6,40.6-40.6H3776   c22.4,0,40.6,18.2,40.6,40.6v166.8C3816.6,2297.3,3798.4,2315.5,3776,2315.5z"
   id="path5"
   style="stroke:#888887;stroke-opacity:1" />
	<circle
   class="st0"
   cx="3541.4"
   cy="1887.4"
   r="32.5"
   id="circle5"
   style="stroke:#888887;stroke-opacity:1" />
	<circle
   class="st0"
   cx="3541.4"
   cy="2190.3"
   r="32.5"
   id="circle6"
   style="stroke:#888887;stroke-opacity:1" />
</g>
<g
   id="BACKET">
	<g
   id="g6">
		<polygon
   class="st3"
   points="3744.3,2601.9 3743.6,2606.2 3743.3,2608.7 3732.9,2675 3732.9,2675 3731.8,2682.1 3731.8,2682.1     3727.1,2712.3 3725.4,2722.9 3725.4,2722.9 3721,2750.9 3719.9,2758 3709.2,2826.6 3709.2,2826.9 3708.1,2834 3707.5,2837.2     3697.3,2902.8 3696.2,2909.9 3696.2,2909.9 3691.4,2940.8 3691.4,2940.9 3689.7,2951.5 3685.4,2978.7 3685.4,2978.7     3684.3,2985.8 3673.6,3054.7 3673.5,3055.1 3673.5,3055.1 3673,3058.3 3672.9,3059 3391.9,3059 3391.8,3058.2 3391.3,3055.4     3391.2,3054.5 3391.2,3054.5 3380.4,2985.7 3379.3,2978.5 3375.1,2951.8 3373.5,2941.1 3368.6,2909.7 3367.5,2902.6     3357.3,2837.5 3356.7,2833.8 3355.6,2826.8 3355.6,2826.7 3344.8,2757.8 3343.7,2750.7 3339.4,2723.2 3337.8,2712.6 3333,2681.9     3331.9,2674.8 3321.6,2609 3320.5,2601.9   "
   id="polygon6"
   style="stroke:#888887;stroke-opacity:1;fill:#b8d8c7;fill-opacity:1" />
		<path
   class="st4"
   d="M3675.6,3062.1h-286.4l-1.2-7.4l-71.2-455.9h431.1L3675.6,3062.1z M3394.5,3055.9h275.7l70.4-450.8h-416.6    L3394.5,3055.9z"
   id="path6"
   style="fill:#22272e;fill-opacity:1;stroke:#22272e;stroke-opacity:1" />
	</g>
	<path
   class="st4"
   d="M3748.2,2601.9c0,1.4-0.2,2.9-0.7,4.3c-3.4,10.5-19,20.2-43.5,28.2c-1.8,0.6-3.6,1.1-5.4,1.7   c-15.8,4.7-34.7,8.8-56,11.9c-2,0.3-4,0.6-6.1,0.9c-18.8,2.6-39.3,4.5-61,5.6c-2.2,0.1-4.3,0.2-6.5,0.3   c-11.9,0.5-24.2,0.8-36.7,0.8c-9.6,0-19.1-0.2-28.4-0.5c-2.3-0.1-4.6-0.2-6.9-0.3c-25-1-48.6-3.1-70-6.1c-2.6-0.4-5.1-0.7-7.6-1.1   c-36.3-5.5-65.5-13.6-83.4-23.3c-10.4-5.6-16.9-11.7-19-18.1l-0.6-4.2c0-29.6,96.6-53.5,215.8-53.5c118.5,0,214.7,23.7,215.8,53.1   C3748.2,2601.6,3748.2,2601.7,3748.2,2601.9z"
   id="path7"
   style="fill:#22272e;fill-opacity:1;stroke:#888887;stroke-opacity:1" />
	<g
   id="g30"
   style="fill:#22272e;fill-opacity:1;stroke:#22272e;stroke-opacity:1">
		<g
   id="g9"
   style="fill:#22272e;fill-opacity:1;stroke:#22272e;stroke-opacity:1">
			<g
   id="g8"
   style="fill:#22272e;fill-opacity:1;stroke:#22272e;stroke-opacity:1">
				<path
   class="st4"
   d="M3673.7,3054.8v4l-0.7-0.5l-0.1,0.6h-2.6l-31.9-41.2l-3.3-4.3l-32.1-41.4l-3.3-4.3l-32.1-41.4l-3.3-4.3      l-32.1-41.4l-3.3-4.3l-32.1-41.4l-3.3-4.3l-32-41.4l-3.3-4.3l-32.1-41.4l-3.3-4.3l-32-41.4l-3.3-4.3l-32-41.4l-3.3-4.3      l-30.7-39.6l-0.5-2.9c2,6.3,8.4,12.3,18.6,17.8l15.8,20.4l3.3,4.3l32.1,41.4l3.3,4.3l32.1,41.4l3.3,4.3l32.1,41.4l3.3,4.3      l32.1,41.4l3.3,4.3l32.1,41.4l3.3,4.3l32.1,41.4l3.3,4.3l32.1,41.4l3.3,4.3l32.1,41.4l3.3,4.3l31.9,41.2L3673.7,3054.8z"
   id="path8"
   style="fill:#22272e;fill-opacity:1;stroke:#22272e;stroke-opacity:1" />
			</g>
		</g>
		<g
   id="g11"
   style="fill:#22272e;fill-opacity:1;stroke:#22272e;stroke-opacity:1">
			<g
   id="g10"
   style="fill:#22272e;fill-opacity:1;stroke:#22272e;stroke-opacity:1">
				<path
   class="st4"
   d="M3685.4,2978.7L3685.4,2978.7l-1.1,7.1l-10.6-13.7l-3.3-4.3l-32.1-41.4l-3.3-4.3l-32.1-41.4l-3.3-4.3      l-32.1-41.4l-3.3-4.3l-32.1-41.4l-3.3-4.3L3497,2744l-3.3-4.3l-32.1-41.4l-3.3-4.3l-32.1-41.4l-3.3-4.3l-1.4-1.8      c2.4,0.4,4.9,0.7,7.4,1.1l0.5,0.7l32.1,41.4l3.3,4.3l32.1,41.4l3.3,4.3l32.1,41.4l3.3,4.3l32.1,41.4l3.3,4.3l32.1,41.4l3.3,4.3      l32.1,41.4l3.3,4.3l32.1,41.4l3.3,4.3L3685.4,2978.7z"
   id="path9"
   style="fill:#22272e;fill-opacity:1;stroke:#22272e;stroke-opacity:1" />
			</g>
		</g>
		<g
   id="g13"
   style="fill:#22272e;fill-opacity:1;stroke:#22272e;stroke-opacity:1">
			<g
   id="g12"
   style="fill:#22272e;fill-opacity:1;stroke:#22272e;stroke-opacity:1">
				<path
   class="st4"
   d="M3697.3,2902.8l-1.1,7.1l-22.5-29l-3.3-4.3l-32.1-41.4l-3.3-4.3l-32.1-41.4l-3.3-4.3l-32.1-41.4l-3.3-4.3      l-32.1-41.4l-3.3-4.3l-31.3-40.4c2.3,0.1,4.5,0.2,6.8,0.3l27.8,35.8l3.3,4.3l32.1,41.4l3.3,4.3l32.1,41.4l3.3,4.3l32.1,41.4      l3.3,4.3l32.1,41.4l3.3,4.3L3697.3,2902.8z"
   id="path11"
   style="fill:#22272e;fill-opacity:1;stroke:#22272e;stroke-opacity:1" />
			</g>
		</g>
		<g
   id="g15"
   style="fill:#22272e;fill-opacity:1;stroke:#22272e;stroke-opacity:1">
			<g
   id="g14"
   style="fill:#22272e;fill-opacity:1;stroke:#22272e;stroke-opacity:1">
				<path
   class="st4"
   d="M3709.2,2826.9l-1.1,7.1l-2.3-3l-32.1-41.4l-3.3-4.3l-32.1-41.4l-3.3-4.3l-32.1-41.4l-3.3-4.3l-31.3-40.4      c2.1-0.1,4.3-0.2,6.4-0.3l28.2,36.4l3.3,4.3l32.1,41.4l3.3,4.3l32.1,41.4l3.3,4.3l32.1,41.4L3709.2,2826.9z"
   id="path13"
   style="fill:#22272e;fill-opacity:1;stroke:#22272e;stroke-opacity:1" />
			</g>
		</g>
		<g
   id="g17"
   style="fill:#22272e;fill-opacity:1;stroke:#22272e;stroke-opacity:1">
			<g
   id="g16"
   style="fill:#22272e;fill-opacity:1;stroke:#22272e;stroke-opacity:1">
				<polygon
   class="st4"
   points="3463.6,3057.4 3461.6,3058.9 3461.5,3059 3458.2,3059 3426.2,3017.8 3422.9,3013.5 3390.9,2972.1       3387.6,2967.9 3375.1,2951.8 3373.5,2941.1 3390.9,2963.6 3394.2,2967.9 3426.2,3009.2 3429.5,3013.5 3461.6,3054.9     "
   id="polygon15"
   style="fill:#22272e;fill-opacity:1;stroke:#22272e;stroke-opacity:1" />
			</g>
		</g>
		<g
   id="g19"
   style="fill:#22272e;fill-opacity:1;stroke:#22272e;stroke-opacity:1">
			<g
   id="g18"
   style="fill:#22272e;fill-opacity:1;stroke:#22272e;stroke-opacity:1">
				<polygon
   class="st4"
   points="3392.8,3057.4 3391.8,3058.2 3391.3,3055.4     "
   id="polygon17"
   style="fill:#22272e;fill-opacity:1;stroke:#22272e;stroke-opacity:1" />
			</g>
		</g>
		<g
   id="g21"
   style="fill:#22272e;fill-opacity:1;stroke:#22272e;stroke-opacity:1">
			<g
   id="g20"
   style="fill:#22272e;fill-opacity:1;stroke:#22272e;stroke-opacity:1">
				<polygon
   class="st4"
   points="3534.3,3057.4 3532.3,3058.9 3532.2,3059 3528.9,3059 3497,3017.8 3493.7,3013.5 3461.6,2972.1       3458.3,2967.9 3426.2,2926.5 3422.9,2922.3 3422.9,2922.2 3390.9,2880.9 3387.6,2876.6 3357.3,2837.5 3356.7,2833.8       3355.6,2826.8 3358.8,2831 3390.9,2872.4 3394.2,2876.6 3426.2,2918 3429.5,2922.3 3461.6,2963.6 3464.9,2967.9 3497,3009.2       3500.3,3013.5 3532.3,3054.9     "
   id="polygon19"
   style="fill:#22272e;fill-opacity:1;stroke:#22272e;stroke-opacity:1" />
			</g>
		</g>
		<g
   id="g23"
   style="fill:#22272e;fill-opacity:1;stroke:#22272e;stroke-opacity:1">
			<g
   id="g22"
   style="fill:#22272e;fill-opacity:1;stroke:#22272e;stroke-opacity:1">
				<polygon
   class="st4"
   points="3605,3057.4 3603,3058.9 3602.9,3059 3599.6,3059 3567.7,3017.8 3564.4,3013.5 3532.3,2972.1       3529,2967.9 3497,2926.5 3493.7,2922.3 3461.6,2880.9 3458.3,2876.6 3426.2,2835.3 3422.9,2831 3390.9,2789.6 3387.6,2785.4       3355.5,2744 3352.2,2739.8 3339.4,2723.2 3337.8,2712.6 3355.5,2735.5 3358.8,2739.8 3390.9,2781.1 3394.2,2785.4       3426.2,2826.7 3429.5,2831 3461.6,2872.4 3464.9,2876.6 3497,2918 3500.3,2922.3 3532.3,2963.6 3535.6,2967.9 3567.7,3009.2       3571,3013.5 3603,3054.9     "
   id="polygon21"
   style="fill:#22272e;fill-opacity:1;stroke:#22272e;stroke-opacity:1" />
			</g>
		</g>
		<g
   id="g25"
   style="fill:#22272e;fill-opacity:1;stroke:#22272e;stroke-opacity:1">
			<g
   id="g24"
   style="fill:#22272e;fill-opacity:1;stroke:#22272e;stroke-opacity:1">
				<path
   class="st4"
   d="M3721,2750.9l-1.1,7.1l-10.8-14l-3.3-4.3l-32.1-41.4l-3.3-4.3l-32.1-41.4l-3.3-4.3l-0.4-0.5      c2-0.3,4-0.6,5.9-0.9l1.1,1.4l32.1,41.4l3.3,4.3l32.1,41.4l3.3,4.3L3721,2750.9z"
   id="path23"
   style="fill:#22272e;fill-opacity:1;stroke:#22272e;stroke-opacity:1" />
			</g>
		</g>
		<g
   id="g27"
   style="fill:#22272e;fill-opacity:1;stroke:#22272e;stroke-opacity:1">
			<g
   id="g26"
   style="fill:#22272e;fill-opacity:1;stroke:#22272e;stroke-opacity:1">
				<path
   class="st4"
   d="M3732.9,2675L3732.9,2675l-1.1,7.1l-22.7-29.3l-3.3-4.3l-10.1-13.1c1.8-0.5,3.6-1.1,5.3-1.7l8.1,10.5      l3.3,4.3L3732.9,2675z"
   id="path25"
   style="fill:#22272e;fill-opacity:1;stroke:#22272e;stroke-opacity:1" />
			</g>
		</g>
		<g
   id="g29"
   style="fill:#22272e;fill-opacity:1;stroke:#22272e;stroke-opacity:1">
			<g
   id="g28"
   style="fill:#22272e;fill-opacity:1;stroke:#22272e;stroke-opacity:1">
				<path
   class="st4"
   d="M3747.2,2603.5l-2.8,3.6l-0.8-1l0,0c0.5-1.4,0.7-2.8,0.7-4.2c0-0.2,0-0.3,0-0.5l0.1-0.1L3747.2,2603.5z"
   id="path27"
   style="fill:#22272e;fill-opacity:1;stroke:#22272e;stroke-opacity:1" />
			</g>
		</g>
	</g>
	<g
   id="g49"
   style="stroke:#22272e;stroke-opacity:1;fill:#22272e;fill-opacity:1">
		<g
   id="g32"
   style="stroke:#22272e;stroke-opacity:1;fill:#22272e;fill-opacity:1">
			<g
   id="g31"
   style="stroke:#22272e;stroke-opacity:1;fill:#22272e;fill-opacity:1">
				<polygon
   class="st4"
   points="3727.1,2712.3 3725.4,2722.9 3725.4,2722.9 3712.4,2739.8 3709.1,2744 3677,2785.4 3673.7,2789.6       3641.7,2831 3638.4,2835.3 3606.3,2876.6 3603,2880.9 3571,2922.3 3567.7,2926.5 3535.6,2967.9 3532.3,2972.1 3500.3,3013.5       3497,3017.8 3465,3059 3461.7,3059 3461.6,3058.9 3459.7,3057.4 3461.6,3054.9 3493.7,3013.5 3497,3009.2 3529,2967.9       3532.3,2963.6 3564.4,2922.3 3567.7,2918 3599.7,2876.6 3603,2872.4 3635.1,2831 3638.4,2826.7 3670.4,2785.4 3673.7,2781.1       3705.8,2739.8 3709.1,2735.5     "
   id="polygon30"
   style="fill:#22272e;fill-opacity:1;stroke:#22272e;stroke-opacity:1" />
			</g>
		</g>
		<g
   id="g34"
   style="stroke:#22272e;stroke-opacity:1;fill:#22272e;fill-opacity:1">
			<g
   id="g33"
   style="stroke:#22272e;stroke-opacity:1;fill:#22272e;fill-opacity:1">
				<path
   class="st4"
   d="M3743.3,2608.7l-30.9,39.9l-3.3,4.3l-32.1,41.4l-3.3,4.3l-32.1,41.4l-3.3,4.3l-32.1,41.4l-3.3,4.3      L3571,2831l-3.3,4.3l-32.1,41.4l-3.3,4.3l-32.1,41.4l-3.3,4.3l-32.1,41.4l-3.3,4.3l-32.1,41.4l-3.3,4.3l-31.9,41.2h-2.4      l-0.1-0.8l-0.4-2.8l-0.4-0.5l0.3-0.4v0l31.8-41l3.3-4.3l32.1-41.4l3.3-4.3l32.1-41.4l3.3-4.3l32.1-41.4l3.3-4.3l32.1-41.4      l3.3-4.3l32.1-41.4l3.3-4.3l32.1-41.4l3.3-4.3l32.1-41.4l3.3-4.3l32-41.4l3.3-4.3l15.7-20.3c10.3-5.5,16.8-11.5,18.9-17.9      L3743.3,2608.7z"
   id="path32"
   style="fill:#22272e;fill-opacity:1;stroke:#22272e;stroke-opacity:1" />
			</g>
		</g>
		<g
   id="g36"
   style="stroke:#22272e;stroke-opacity:1;fill:#22272e;fill-opacity:1">
			<g
   id="g35"
   style="stroke:#22272e;stroke-opacity:1;fill:#22272e;fill-opacity:1">
				<path
   class="st4"
   d="M3643,2646.8l-1.4,1.8l-3.3,4.3l-32.1,41.4l-3.3,4.3l-32.1,41.4l-3.3,4.3l-32.1,41.4l-3.3,4.3l-32.1,41.4      l-3.3,4.3l-32.1,41.4l-3.3,4.3l-32.1,41.4l-3.3,4.3l-32.1,41.4l-3.3,4.3l-10.5,13.5l-1.1-7.1l8.3-10.7l3.3-4.3l32-41.4v0      l3.3-4.3l32.1-41.4l3.3-4.3l32-41.4l3.3-4.3l32.1-41.4l3.3-4.3l32.1-41.4l3.3-4.3l32.1-41.4l3.3-4.3l32.1-41.4l0.5-0.7      c1.7-0.2,3.4-0.5,5-0.7C3641.4,2647,3642.2,2646.9,3643,2646.8z"
   id="path34"
   style="fill:#22272e;fill-opacity:1;stroke:#22272e;stroke-opacity:1" />
			</g>
		</g>
		<g
   id="g38"
   style="stroke:#22272e;stroke-opacity:1;fill:#22272e;fill-opacity:1">
			<g
   id="g37"
   style="stroke:#22272e;stroke-opacity:1;fill:#22272e;fill-opacity:1">
				<path
   class="st4"
   d="M3566.9,2653.8l-31.3,40.3l-3.3,4.3l-32.1,41.4l-3.3,4.3l-32.1,41.4l-3.3,4.3l-32.1,41.4l-3.3,4.3      l-32.1,41.4l-3.3,4.3l-22.3,28.8l-1.1-7.1l20.1-26l3.3-4.3l32.1-41.4l3.3-4.3l32.1-41.4l3.3-4.3l32.1-41.4l3.3-4.3l32.1-41.4      l3.3-4.3l27.8-35.8C3562.3,2654,3564.6,2653.9,3566.9,2653.8z"
   id="path36"
   style="fill:#22272e;fill-opacity:1;stroke:#22272e;stroke-opacity:1" />
			</g>
		</g>
		<g
   id="g40"
   style="stroke:#22272e;stroke-opacity:1;fill:#22272e;fill-opacity:1">
			<g
   id="g39"
   style="stroke:#22272e;stroke-opacity:1;fill:#22272e;fill-opacity:1">
				<polygon
   class="st4"
   points="3691.4,2940.9 3689.7,2951.5 3677,2967.9 3673.7,2972.1 3641.7,3013.5 3638.4,3017.8 3606.4,3059       3603.1,3059 3603,3058.9 3601.1,3057.4 3603,3054.9 3635.1,3013.5 3638.4,3009.2 3670.4,2967.9 3673.7,2963.6     "
   id="polygon38"
   style="fill:#22272e;fill-opacity:1;stroke:#22272e;stroke-opacity:1" />
			</g>
		</g>
		<g
   id="g42"
   style="stroke:#22272e;stroke-opacity:1;fill:#22272e;fill-opacity:1">
			<g
   id="g41"
   style="stroke:#22272e;stroke-opacity:1;fill:#22272e;fill-opacity:1">
				<polygon
   class="st4"
   points="3707.5,2837.2 3677,2876.6 3673.7,2880.9 3641.7,2922.3 3638.4,2926.5 3606.3,2967.9 3603,2972.1       3571,3013.5 3567.7,3017.8 3535.7,3059 3532.4,3059 3532.3,3058.9 3530.4,3057.4 3532.3,3054.9 3564.4,3013.5 3567.7,3009.2       3599.7,2967.9 3603,2963.6 3635.1,2922.3 3638.4,2918 3670.4,2876.6 3673.7,2872.4 3705.8,2831 3709.1,2826.7 3709.2,2826.6       3709.2,2826.9 3708.1,2834     "
   id="polygon40"
   style="fill:#22272e;fill-opacity:1;stroke:#22272e;stroke-opacity:1" />
			</g>
		</g>
		<g
   id="g44"
   style="stroke:#22272e;stroke-opacity:1;fill:#22272e;fill-opacity:1">
			<g
   id="g43"
   style="stroke:#22272e;stroke-opacity:1;fill:#22272e;fill-opacity:1">
				<path
   class="st4"
   d="M3496.2,2653.7l-31.3,40.4l-3.3,4.3l-32.1,41.4l-3.3,4.3l-32.1,41.4l-3.3,4.3l-32.1,41.4l-2.1,2.8l-1.1-6.9      l-0.1-0.1l0.1-0.1l32-41.3l3.3-4.3l32-41.4l3.3-4.3l32.1-41.4l3.3-4.3l28.2-36.4C3492,2653.5,3494.1,2653.6,3496.2,2653.7z"
   id="path42"
   style="fill:#22272e;fill-opacity:1;stroke:#22272e;stroke-opacity:1" />
			</g>
		</g>
		<g
   id="g46"
   style="stroke:#22272e;stroke-opacity:1;fill:#22272e;fill-opacity:1">
			<g
   id="g45"
   style="stroke:#22272e;stroke-opacity:1;fill:#22272e;fill-opacity:1">
				<path
   class="st4"
   d="M3430,2648l-0.4,0.6l-3.3,4.3l-32.1,41.4l-3.3,4.3l-32.1,41.4l-3.3,4.3l-10.7,13.8l-1.1-7.1l8.5-11l3.3-4.3      l32-41.4l3.3-4.3l32.1-41.4l1.1-1.4c1.6,0.2,3.3,0.5,5,0.7L3430,2648z"
   id="path44"
   style="fill:#22272e;fill-opacity:1;stroke:#22272e;stroke-opacity:1" />
			</g>
		</g>
		<g
   id="g48"
   style="stroke:#22272e;stroke-opacity:1;fill:#22272e;fill-opacity:1">
			<g
   id="g47"
   style="stroke:#22272e;stroke-opacity:1;fill:#22272e;fill-opacity:1">
				<path
   class="st4"
   d="M3369,2635.4l-10.2,13.1l-3.3,4.3l-22.6,29.1l-1.1-7.1l20.4-26.3l3.3-4.3l8.2-10.5      C3365.4,2634.3,3367.2,2634.9,3369,2635.4z"
   id="path46"
   style="fill:#22272e;fill-opacity:1;stroke:#22272e;stroke-opacity:1" />
			</g>
		</g>
	</g>
	<g
   id="g50"
   style="stroke:#22272e;stroke-opacity:1">
		<path
   class="st5"
   d="M3764.9,2543.2h-92.3v-28.1h56C3746.1,2515.1,3760.7,2527.1,3764.9,2543.2z"
   id="path49"
   style="stroke:#22272e;stroke-opacity:1" />
		<path
   class="st5"
   d="M3729.2,2515.1c-26.2,0.3-49.1,17.8-56.1,43.1l-21.3,77.3c-3,0.5-6.1,1-9.2,1.4c-2,0.3-4,0.6-6.1,0.9    c-18.8,2.6-39.3,4.5-61,5.6c-2.2,0.1-4.3,0.2-6.5,0.3c-11.9,0.5-24.2,0.8-36.7,0.8c-9.6,0-19.1-0.2-28.4-0.5    c-2.3-0.1-4.6-0.2-6.9-0.3c-0.9,0-1.8-0.1-2.7-0.1l23.6-85.4c7-25.5,30.2-43.1,56.7-43.1H3729.2z"
   id="path50"
   style="stroke:#22272e;stroke-opacity:1" />
	</g>
</g>
<g
   id="LAMP">
	<polygon
   class="st6"
   points="3666,848.8 3902.1,1521.2 3037.5,1521.2 3267.3,848.8  "
   id="polygon50"
   style="fill:#fde6a8;fill-opacity:1;stroke:#fde6a8;stroke-opacity:1" />
	<g
   id="g57">
		<path
   class="st0"
   d="M3468.5,768.7c0-28,22.7-50.7,50.7-50.7h29.3c28,0,50.7,22.7,50.7,50.7v656.1"
   id="path51"
   style="stroke:#888887;stroke-opacity:1" />
		<path
   class="st7"
   d="M3667.3,1499.8v20.3h-213.8v-20.3c0-17.3,5.9-33.3,15.8-46c13.7-17.6,35.2-29,59.2-29h63.7c1,0,2.1,0,3.1,0.1    C3635.4,1426.5,3667.3,1459.4,3667.3,1499.8z"
   id="path52"
   style="stroke:#888887;stroke-opacity:1" />
		<path
   class="st8"
   d="M3714.8,851.6h-494.7v-15.5c0-37.1,30.1-67.1,67.1-67.1h360.5c37.1,0,67.1,30.1,67.1,67.1V851.6z"
   id="path53"
   style="fill:#b70e18;fill-opacity:1;stroke:#888887;stroke-opacity:1" />
		<line
   class="st9"
   x1="3714.8"
   y1="839.2"
   x2="3220.1"
   y2="839.2"
   id="line53" />
		<path
   class="st3"
   d="M3663.1,851.6c0,17.7-11,32.1-24.7,32.1h-346.2c-13.6,0-24.7-14.4-24.7-32.1H3663.1z"
   id="path54"
   style="stroke:#888887;stroke-opacity:1" />
		<path
   class="st7"
   d="M3599.2,1444.4c0,32.1-29.3,58.2-65.4,58.2c-32.5,0-59.5-21.1-64.5-48.8c13.7-17.6,35.2-29,59.2-29h63.7    c1,0,2.1,0,3.1,0.1C3597.9,1431,3599.2,1437.6,3599.2,1444.4z"
   id="path55"
   style="stroke:#888887;stroke-opacity:1" />
		<path
   class="st8"
   d="M3535.6,1411.1v31.4c0,6.4-5.9,11.6-13.1,11.6c-7.2,0-13.1-5.2-13.1-11.6v-31.4h0.2c1.2,5.5,6.5,9.7,12.8,9.7    c6.3,0,11.6-4.2,12.8-9.7H3535.6z"
   id="path56"
   style="fill:#b70e18;fill-opacity:1;stroke:#888887;stroke-opacity:1" />
		<path
   class="st7"
   d="M3532.8,1410c0,0.7-0.1,1.4-0.2,2.1c-0.9,5-5.1,8.7-10.2,8.7c-5,0-9.2-3.7-10.2-8.7c-0.1-0.7-0.2-1.4-0.2-2.1    c0-6,4.6-10.8,10.4-10.8C3528.1,1399.2,3532.8,1404.1,3532.8,1410z"
   id="path57"
   style="stroke:#888887;stroke-opacity:1" />
	</g>
</g>
<g
   id="BOOKS">
	<rect
   x="3158"
   y="1065.4"
   class="st10"
   width="34.2"
   height="455.8"
   id="rect57"
   style="fill:#127c71;fill-opacity:1;stroke:#888887;stroke-opacity:1" />
	<path
   class="st5"
   d="M3143.7,1521.2h-58.6c-6.2,0-11.2-5-11.2-11.2v-338.8c0-6.2,5-11.2,11.2-11.2h58.6c6.2,0,11.2,5,11.2,11.2   V1510C3154.9,1516.2,3149.9,1521.2,3143.7,1521.2z"
   id="path58" />
	<path
   class="st0"
   d="M3332.2,1513.9h-67.3c-4.9,0-9.1-3.5-10-8.3l-60.4-313.8c-1.2-6.3,3.6-12.1,10-12.1h67.3c4.9,0,9.1,3.5,10,8.3   l60.4,313.8C3343.4,1508.1,3338.6,1513.9,3332.2,1513.9z"
   id="path59"
   style="stroke:#888887;stroke-opacity:1" />
	<path
   class="st8"
   d="M3060.5,1521.2h-317c-7.4,0-13.4-6-13.4-13.4v-64.9c0-7.4,6-13.4,13.4-13.4h317c7.4,0,13.4,6,13.4,13.4v64.9   C3073.9,1515.2,3067.9,1521.2,3060.5,1521.2z"
   id="path60"
   style="fill:#b70e18;fill-opacity:1;stroke:#888887;stroke-opacity:1" />
</g>
<g
   id="NOTES">
	<g
   id="g67">
		<path
   class="st5"
   d="M1873.4,408.8v206.8c0,40.5-32.9,73.4-73.4,73.4h-229.3c40.5,0,73.4-32.8,73.4-73.4V408.8H1873.4z"
   id="path61" />
		<rect
   x="1749"
   y="388.8"
   class="st8"
   width="18.5"
   height="44.1"
   id="rect61"
   style="fill:#b70e18;fill-opacity:1;stroke:#888887;stroke-opacity:1" />
		<g
   id="g66">
			<g
   id="g62">
				<path
   class="st6"
   d="M1806.7,487.4c-2.6,0-5.2-1-7.3-2.9l-7.7-6.8c-2.4-2.1-5.6-2.1-8,0l-7.3,6.5c-4.3,3.8-10.3,3.8-14.7,0      l-6.7-5.9c-2.4-2.1-5.6-2.1-8,0l-6.2,5.5c-4.3,3.8-10.3,3.8-14.7,0l-5.1-4.5c-2.4-2.1-5.6-2.1-8,0l-5.5,4.9      c-4.3,3.8-10.3,3.8-14.7,0l-5.1-4.5c-2.4-2.1-5.6-2.1-8,0c-1,0.9-2.6,0.8-3.5-0.2c-0.9-1-0.8-2.6,0.2-3.5      c4.3-3.8,10.3-3.8,14.7,0l5.1,4.5c2.4,2.1,5.6,2.1,8,0l5.5-4.9c4.3-3.8,10.3-3.8,14.7,0l5.1,4.5c2.4,2.1,5.6,2.1,8,0l6.2-5.5      c4.3-3.8,10.3-3.8,14.7,0l6.7,5.9c2.4,2.1,5.6,2.1,8,0l7.3-6.5c4.3-3.8,10.3-3.8,14.7,0l7.7,6.8c2.4,2.1,5.6,2.1,8,0l8-7.1      c4.3-3.8,10.3-3.8,14.7,0c1,0.9,1.1,2.5,0.2,3.5c-0.9,1-2.5,1.1-3.5,0.2c-2.4-2.1-5.6-2.1-8,0l-8,7.1      C1811.8,486.4,1809.3,487.4,1806.7,487.4z"
   id="path62"
   style="fill:#ffaf35;fill-opacity:1;stroke:#888887;stroke-opacity:1" />
			</g>
			<g
   id="g63">
				<path
   class="st6"
   d="M1806.7,528.5c-2.6,0-5.2-1-7.3-2.9l-7.7-6.8c-2.4-2.1-5.6-2.1-8,0l-7.3,6.5c-4.3,3.8-10.3,3.8-14.7,0      l-6.7-5.9c-2.4-2.1-5.6-2.1-8,0l-6.2,5.5c-4.3,3.8-10.3,3.8-14.7,0l-5.1-4.5c-2.4-2.1-5.6-2.1-8,0l-5.5,4.9      c-4.3,3.8-10.3,3.8-14.7,0l-5.1-4.5c-2.4-2.1-5.6-2.1-8,0c-1,0.9-2.6,0.8-3.5-0.2c-0.9-1-0.8-2.6,0.2-3.5      c4.3-3.8,10.3-3.8,14.7,0l5.1,4.5c2.4,2.1,5.6,2.1,8,0l5.5-4.9c4.3-3.8,10.3-3.8,14.7,0l5.1,4.5c2.4,2.1,5.6,2.1,8,0l6.2-5.5      c4.3-3.8,10.3-3.8,14.7,0l6.7,5.9c2.4,2.1,5.6,2.1,8,0l7.3-6.5c4.3-3.8,10.3-3.8,14.7,0l7.7,6.8c2.4,2.1,5.6,2.1,8,0l8-7.1      c4.3-3.8,10.3-3.8,14.7,0c1,0.9,1.1,2.5,0.2,3.5c-0.9,1-2.5,1.1-3.5,0.2c-2.4-2.1-5.6-2.1-8,0l-8,7.1      C1811.8,527.6,1809.3,528.5,1806.7,528.5z"
   id="path63"
   style="fill:#ffaf35;fill-opacity:1;stroke:#888887;stroke-opacity:1" />
			</g>
			<g
   id="g64">
				<path
   class="st6"
   d="M1806.7,569.6c-2.6,0-5.2-1-7.3-2.9l-7.7-6.8c-2.4-2.1-5.6-2.1-8,0l-7.3,6.5c-4.3,3.8-10.3,3.8-14.7,0      l-6.7-5.9c-2.4-2.1-5.6-2.1-8,0l-6.2,5.5c-4.3,3.8-10.3,3.8-14.7,0l-5.1-4.5c-2.4-2.1-5.6-2.1-8,0l-5.5,4.9      c-4.3,3.8-10.3,3.8-14.7,0l-5.1-4.5c-2.4-2.1-5.6-2.1-8,0c-1,0.9-2.6,0.8-3.5-0.2c-0.9-1-0.8-2.6,0.2-3.5      c4.3-3.8,10.3-3.8,14.7,0l5.1,4.5c2.4,2.1,5.6,2.1,8,0l5.5-4.9c4.3-3.8,10.3-3.8,14.7,0l5.1,4.5c2.4,2.1,5.6,2.1,8,0l6.2-5.5      c4.3-3.8,10.3-3.8,14.7,0l6.7,5.9c2.4,2.1,5.6,2.1,8,0l7.3-6.5c4.3-3.8,10.3-3.8,14.7,0l7.7,6.8c2.4,2.1,5.6,2.1,8,0l8-7.1      c4.3-3.8,10.3-3.8,14.7,0c1,0.9,1.1,2.5,0.2,3.5c-0.9,1-2.5,1.1-3.5,0.2c-2.4-2.1-5.6-2.1-8,0l-8,7.1      C1811.8,568.7,1809.3,569.6,1806.7,569.6z"
   id="path64"
   style="fill:#ffaf35;fill-opacity:1;stroke:#888887;stroke-opacity:1" />
			</g>
			<g
   id="g65">
				<path
   class="st6"
   d="M1806.7,610.8c-2.6,0-5.2-1-7.3-2.9l-7.7-6.8c-2.4-2.1-5.6-2.1-8,0l-7.3,6.5c-4.3,3.8-10.3,3.8-14.7,0      l-6.7-5.9c-2.4-2.1-5.6-2.1-8,0l-6.2,5.5c-4.3,3.8-10.3,3.8-14.7,0l-5.1-4.5c-2.4-2.1-5.6-2.1-8,0l-5.5,4.9      c-4.3,3.8-10.3,3.8-14.7,0l-5.1-4.5c-2.4-2.1-5.6-2.1-8,0c-1,0.9-2.6,0.8-3.5-0.2c-0.9-1-0.8-2.6,0.2-3.5      c4.3-3.8,10.3-3.8,14.7,0l5.1,4.5c2.4,2.1,5.6,2.1,8,0l5.5-4.9c4.3-3.8,10.3-3.8,14.7,0l5.1,4.5c2.4,2.1,5.6,2.1,8,0l6.2-5.5      c4.3-3.8,10.3-3.8,14.7,0l6.7,5.9c2.4,2.1,5.6,2.1,8,0l7.3-6.5c4.3-3.8,10.3-3.8,14.7,0l7.7,6.8c2.4,2.1,5.6,2.1,8,0l8-7.1      c4.3-3.8,10.3-3.8,14.7,0c1,0.9,1.1,2.5,0.2,3.5c-0.9,1-2.5,1.1-3.5,0.2c-2.4-2.1-5.6-2.1-8,0l-8,7.1      C1811.8,609.8,1809.3,610.8,1806.7,610.8z"
   id="path65"
   style="fill:#ffaf35;fill-opacity:1;stroke:#888887;stroke-opacity:1" />
			</g>
		</g>
	</g>
	<g
   id="g74">
		<rect
   x="1949.1"
   y="408.8"
   class="st4"
   width="160.4"
   height="160.4"
   id="rect67"
   style="fill:#fde6a8;fill-opacity:1;stroke:#888887;stroke-opacity:1" />
		
			<rect
   x="1948.1"
   y="384.5"
   transform="matrix(0.6286 0.7778 -0.7778 0.6286 1047.2175 -1369.3782)"
   class="st6"
   width="18.5"
   height="54.5"
   id="rect68"
   style="fill:#ffaf35;fill-opacity:1;stroke:#888887;stroke-opacity:1" />
		
			<rect
   x="2093.4"
   y="384.5"
   transform="matrix(-0.6286 0.7778 -0.7778 -0.6286 3744.4258 -964.7594)"
   class="st6"
   width="18.5"
   height="54.5"
   id="rect69"
   style="fill:#ffaf35;fill-opacity:1;stroke:#888887;stroke-opacity:1" />
		<g
   id="g70">
			<rect
   x="1978.3"
   y="446.8"
   class="st3"
   width="97.3"
   height="6"
   id="rect70"
   style="stroke:#888887;stroke-opacity:1" />
		</g>
		<g
   id="g71">
			<rect
   x="1978.3"
   y="472.7"
   class="st3"
   width="97.3"
   height="6"
   id="rect71"
   style="stroke:#888887;stroke-opacity:1" />
		</g>
		<g
   id="g72">
			<rect
   x="1978.3"
   y="498.7"
   class="st3"
   width="97.3"
   height="6"
   id="rect72"
   style="stroke:#888887;stroke-opacity:1" />
		</g>
		<g
   id="g73">
			<rect
   x="1978.3"
   y="524.6"
   class="st3"
   width="97.3"
   height="6"
   id="rect73"
   style="stroke:#888887;stroke-opacity:1" />
		</g>
	</g>
</g>
<g
   id="COMPUTER">
	<g
   id="g75">
		<polygon
   class="st11"
   points="2722.6,1521.2 2348.7,1521.2 2421.1,1361.2 2431.7,1337.7 2639.6,1337.7 2668.8,1402.2   "
   id="polygon74"
   style="stroke:#888887;stroke-opacity:1" />
		<polygon
   class="st4"
   points="2668.8,1402.2 2421.1,1361.2 2431.7,1337.7 2639.6,1337.7   "
   id="polygon75"
   style="fill:#fde6a8;fill-opacity:1;stroke:#888887;stroke-opacity:1" />
	</g>
	<path
   class="st11"
   d="M2976.3,1337.7h-880.1c-32.3,0-58.4-26.2-58.4-58.4V704.8c0-32.3,26.2-58.4,58.4-58.4h880.1   c32.3,0,58.4,26.2,58.4,58.4v574.4C3034.7,1311.5,3008.5,1337.7,2976.3,1337.7z"
   id="path75"
   style="stroke:#22272e;stroke-opacity:1;fill:#22272e;fill-opacity:1" />
	<g
   id="g89">
		<path
   class="st4"
   d="M2712.6,1297.1h-352.8c-17.2,0-31.1-13.9-31.1-31.1v-42.7c0-17.2,13.9-31.1,31.1-31.1h352.8    c17.2,0,31.1,13.9,31.1,31.1v42.7C2743.7,1283.2,2729.7,1297.1,2712.6,1297.1z"
   id="path76"
   style="fill:#0d6a69;fill-opacity:1;stroke:#888887;stroke-opacity:1" />
		<g
   id="g79">
			<g
   id="g77">
				<path
   class="st3"
   d="M2620,1268.6h-23.8c-5.9,0-10.7-4.8-10.7-10.7v-18.6c0-5.9,4.8-10.7,10.7-10.7h23.8      c5.9,0,10.7,4.8,10.7,10.7v18.6C2630.7,1263.8,2625.9,1268.6,2620,1268.6z"
   id="path77"
   style="stroke:#888887;stroke-opacity:1" />
			</g>
			<g
   id="g78">
				<path
   class="st3"
   d="M2650.3,1265.5l-8.8-5.6c-2.4-1.5-3.9-4.2-3.9-7.1v-8.4c0-2.9,1.5-5.6,3.9-7.1l8.8-5.6      c2.1-1.3,4.8,0.2,4.8,2.6v28.5C2655.2,1265.3,2652.4,1266.8,2650.3,1265.5z"
   id="path78"
   style="stroke:#888887;stroke-opacity:1" />
			</g>
		</g>
		<g
   id="g84">
			<g
   id="g80">
				<path
   class="st3"
   d="M2529.8,1259.2h-2.2c-8.7,0-15.8-7.1-15.8-15.8v-9.3c0-0.8,0.7-1.5,1.5-1.5h30.7c0.8,0,1.5,0.7,1.5,1.5v9.3      C2545.6,1252.1,2538.5,1259.2,2529.8,1259.2z M2514.8,1235.6v7.8c0,7,5.7,12.8,12.8,12.8h2.2c7,0,12.8-5.7,12.8-12.8v-7.8      H2514.8z"
   id="path79"
   style="stroke:#888887;stroke-opacity:1" />
			</g>
			<g
   id="g81">
				<path
   class="st3"
   d="M2528.7,1276.5c-0.8,0-1.5-0.7-1.5-1.5v-11.3c0-0.8,0.7-1.5,1.5-1.5s1.5,0.7,1.5,1.5v11.3      C2530.2,1275.8,2529.5,1276.5,2528.7,1276.5z"
   id="path80"
   style="stroke:#888887;stroke-opacity:1" />
			</g>
			<g
   id="g82">
				<path
   class="st3"
   d="M2536.6,1276.5h-15.7c-0.8,0-1.5-0.7-1.5-1.5s0.7-1.5,1.5-1.5h15.7c0.8,0,1.5,0.7,1.5,1.5      S2537.4,1276.5,2536.6,1276.5z"
   id="path81"
   style="stroke:#888887;stroke-opacity:1" />
			</g>
			<g
   id="g83">
				<path
   class="st3"
   d="M2529.4,1252.2h-1.4c-5,0-9-4-9-9V1225c0-5,4-9,9-9h1.4c5,0,9,4,9,9v18.2      C2538.4,1248.2,2534.4,1252.2,2529.4,1252.2z"
   id="path82"
   style="stroke:#888887;stroke-opacity:1" />
			</g>
		</g>
		<g
   id="g88">
			<g
   id="g85">
				<path
   class="st3"
   d="M2437.4,1240.9l-0.1,0.1c-1.9,2.3-1.3,5.8,1.2,7.9l9.2,7.4c2.5,2,6.1,1.8,8-0.5l0.1-0.1      c1.9-2.3,5.5-2.4,7.9-0.3l8.3,7.5c2.6,2.4,2.6,6.4,0,8.2c-8.7,6.1-20,3.9-29.3-3.6l-14-11.3c-9.3-7.6-13.8-18.2-9.7-28      c1.3-3,5.2-3.8,8-1.7l9.1,6.6C2438.6,1235.1,2439.2,1238.6,2437.4,1240.9z"
   id="path84"
   style="stroke:#888887;stroke-opacity:1" />
			</g>
			<g
   id="g86">
				<path
   class="st3"
   d="M2461.8,1246.7c-0.8,0-1.4-0.6-1.5-1.4c-0.5-7.2-6.7-12.7-13.9-12.2c-0.8,0-1.5-0.6-1.6-1.4      c-0.1-0.8,0.6-1.5,1.4-1.6c8.9-0.6,16.5,6.2,17.1,15C2463.4,1245.9,2462.8,1246.6,2461.8,1246.7      C2461.9,1246.7,2461.9,1246.7,2461.8,1246.7z"
   id="path85"
   style="stroke:#888887;stroke-opacity:1" />
			</g>
			<g
   id="g87">
				<path
   class="st3"
   d="M2471.2,1245.2c-0.8,0-1.4-0.6-1.5-1.4c-0.4-6-3.1-11.6-7.7-15.6s-10.4-6-16.4-5.6c-0.8,0-1.5-0.6-1.6-1.4      c-0.1-0.8,0.6-1.5,1.4-1.6c6.8-0.4,13.4,1.8,18.6,6.3s8.2,10.8,8.7,17.6C2472.8,1244.5,2472.1,1245.2,2471.2,1245.2      C2471.3,1245.2,2471.3,1245.2,2471.2,1245.2z"
   id="path86"
   style="stroke:#888887;stroke-opacity:1" />
			</g>
		</g>
	</g>
	<g
   id="g91">
		<circle
   class="st12"
   cx="2809.4"
   cy="690.1"
   r="10.4"
   id="circle89" />
		<circle
   class="st12"
   cx="2851.9"
   cy="690.1"
   r="10.4"
   id="circle90" />
		<circle
   class="st12"
   cx="2894.5"
   cy="690.1"
   r="10.4"
   id="circle91" />
	</g>
	<path
   class="st0"
   d="M2499.2,1166.6h-313.4c-9.6,0-17.3-7.8-17.3-17.3V981.5c0-9.6,7.8-17.3,17.3-17.3h313.4   c9.6,0,17.3,7.8,17.3,17.3v167.8C2516.5,1158.8,2508.8,1166.6,2499.2,1166.6z"
   id="path91"
   style="stroke:#888887;stroke-opacity:1" />
	<g
   id="g105">
		<path
   class="st10"
   d="M2894.5,1166.6h-313.4c-9.6,0-17.3-7.8-17.3-17.3V981.5c0-9.6,7.8-17.3,17.3-17.3h313.4    c9.6,0,17.3,7.8,17.3,17.3v167.8C2911.8,1158.8,2904.1,1166.6,2894.5,1166.6z"
   id="path92"
   style="fill:#ffffff;fill-opacity:1;stroke:#888887;stroke-opacity:1" />
		<g
   id="g104">
			<path
   class="st8"
   d="M2835.3,1166.1h-204.8c20.7-25.5,52.3-41.9,87.7-41.9h29.4C2783,1124.3,2814.6,1140.6,2835.3,1166.1z"
   id="path93"
   style="fill:#b70e18;fill-opacity:1;stroke:#888887;stroke-opacity:1" />
			<path
   class="st3"
   d="M2726.5,1124.3c-2,15.1-14.9,26.7-30.5,26.7c-11.5,0-21.5-6.3-26.8-15.6c14.8-7.1,31.4-11.1,48.9-11.1     H2726.5z"
   id="path94"
   style="stroke:#888887;stroke-opacity:1" />
			<path
   class="st3"
   d="M2787,1131.3c-4.5,11.5-15.6,19.6-28.7,19.6c-15.6,0-28.5-11.6-30.5-26.7h19.9     C2761.5,1124.3,2774.7,1126.7,2787,1131.3z"
   id="path95"
   style="stroke:#888887;stroke-opacity:1" />
			<path
   class="st13"
   d="M2764.5,1079.7v45.4c0,7.1-14.2,12.8-31.6,12.8c-3.2,0-6.3-0.2-9.2-0.5c-13-1.6-22.4-6.5-22.4-12.3v-45.4     H2764.5z"
   id="path96"
   style="stroke:#888887;stroke-opacity:1" />
			<path
   class="st14"
   d="M2760.3,1089c0,19.7-17.2,43.6-36.6,48.3c-13-1.6-22.4-6.5-22.4-12.3v-45.4h58L2760.3,1089z"
   id="path97"
   style="stroke:#888887;stroke-opacity:1" />
			<path
   class="st13"
   d="M2780.7,1073.9v1.1c0,7.7-6.3,14-14,14h-13.4c-6.1,13.1-19.4,22.1-34.8,22.1h-2.6     c-17.2,0-31.1-13.9-31.1-31.1v-32.1c19.9,1.3,45.2-16.1,45.2-16.1c8.3,32.1,32,31.7,43,29.6     C2777.5,1063.7,2780.7,1068.5,2780.7,1073.9z"
   id="path98"
   style="stroke:#888887;stroke-opacity:1" />
			<g
   id="g99">
				<path
   class="st14"
   d="M2761,1078.8c-0.8,0-1.5-0.7-1.5-1.5c0-6.4,5.2-11.6,11.6-11.6c0.8,0,1.5,0.7,1.5,1.5s-0.7,1.5-1.5,1.5      c-4.7,0-8.6,3.8-8.6,8.6C2762.5,1078.1,2761.8,1078.8,2761,1078.8z"
   id="path99"
   style="stroke:#888887;stroke-opacity:1" />
			</g>
			<path
   class="st6"
   d="M2764.5,1089h2.2c7.7,0,14-6.3,14-14v-1.1c0-5.5-3.1-10.2-7.7-12.5c-3,0.6-7.1,1-11.5,0.7     c-11.4-0.9-25.5-7.1-31.5-30.3c0,0-25.3,17.4-45.2,16.1c-3.7-0.2-7.2-1.1-10.3-2.9c-16.5-9.4,23.4-53.4,69.2-46.8     c36.6,5.3,35.8,49.1,35.1,59.5c1.8-0.2,3.6-0.3,5.4-0.3c26.8,0,48.5,20.6,48.5,46.1c0,16.6-9.2,31.2-23.1,39.3     c-13.3-8.8-28.6-14.8-45.1-17.3L2764.5,1089z"
   id="path100"
   style="fill:#22272e;fill-opacity:1;stroke:#22272e;stroke-opacity:1" />
			<g
   id="g101">
				<path
   class="st14"
   d="M2705,1079.9c-0.2,0-0.4,0-0.5-0.1c-0.8-0.3-1.2-1.2-0.9-1.9c0-0.1,3-8.2-2-16.9      c-4.3-7.5-13.8-6.2-14.2-6.1c-0.8,0.1-1.6-0.4-1.7-1.3c-0.1-0.8,0.4-1.6,1.3-1.7c0.5-0.1,11.9-1.7,17.3,7.6      c5.7,9.9,2.3,19.1,2.2,19.4C2706.1,1079.5,2705.6,1079.9,2705,1079.9z"
   id="path101"
   style="stroke:#888887;stroke-opacity:1" />
			</g>
			<g
   id="g102">
				<path
   class="st14"
   d="M2739.1,1060.9c-0.3,0-0.6-0.1-0.9-0.3c-8.7-6.7-20.3-5.9-20.4-5.9c-0.8,0.1-1.5-0.6-1.6-1.4      c-0.1-0.8,0.6-1.5,1.4-1.6c0.5,0,12.8-0.9,22.4,6.5c0.7,0.5,0.8,1.4,0.3,2.1C2739.9,1060.7,2739.5,1060.9,2739.1,1060.9z"
   id="path102"
   style="stroke:#888887;stroke-opacity:1" />
			</g>
			<path
   class="st3"
   d="M2699.8,1083.3c0,0,2.4,15.8,18.7,0.4C2718.5,1083.7,2707.1,1085.2,2699.8,1083.3z"
   id="path103"
   style="stroke:#888887;stroke-opacity:1" />
			<ellipse
   class="st14"
   cx="2724.9"
   cy="1065.3"
   rx="2.1"
   ry="4.7"
   id="ellipse103"
   style="stroke:#888887;stroke-opacity:1" />
			<ellipse
   class="st14"
   cx="2693.7"
   cy="1065.3"
   rx="1.8"
   ry="3.9"
   id="ellipse104"
   style="stroke:#888887;stroke-opacity:1" />
		</g>
	</g>
	<g
   id="g115">
		<path
   class="st4"
   d="M2890.6,937.3h-313.4c-9.6,0-17.3-7.8-17.3-17.3V752.2c0-9.6,7.8-17.3,17.3-17.3h313.4    c9.6,0,17.3,7.8,17.3,17.3v167.8C2907.9,929.5,2900.1,937.3,2890.6,937.3z"
   id="path105"
   style="fill:#fde6a8;fill-opacity:1;stroke:#888887;stroke-opacity:1" />
		<g
   id="g114">
			<path
   class="st6"
   d="M2826.8,937.3h-191.3c19.3-25.7,48.8-42.1,81.9-42.1h27.5C2778,895.2,2807.5,911.6,2826.8,937.3z"
   id="path106"
   style="fill:#ffaf35;fill-opacity:1;stroke:#888887;stroke-opacity:1" />
			<path
   class="st3"
   d="M2721,928.7h4.3c18.7,0,33.9-15.2,33.9-33.9v-24.1c0-0.1-0.1-0.2-0.2-0.2h-62.9c-0.1,0-0.2,0.1-0.2,0.2v33.1     C2696,917.6,2707.2,928.7,2721,928.7z"
   id="path107"
   style="stroke:#888887;stroke-opacity:1" />
			<path
   class="st6"
   d="M2696,870.5V903c0,0.4,0,0.9,0,1.3c0.9,18.6,47.2,11.3,61.1-33.8H2696z"
   id="path108"
   style="fill:#ffaf35;fill-opacity:1;stroke:#888887;stroke-opacity:1" />
			<path
   class="st3"
   d="M2777.5,856c0,4-1.6,7.6-4.3,10.3c-2.6,2.6-6.2,4.2-10.3,4.2h-13.7c-4.9,13-17.5,22.2-32.2,22.2h-10.7     c-14.9,0-26.9-12.1-26.9-26.9v-42c15.4,1.3,28.4-11.1,28.9-11.6c-0.2,0.7-8,22.7,9.7,23.9c17.6,1.2,23.4-11.5,23.6-12     c0,0.5,0.1,17.5,14,18.4v0h7.3C2771,842.5,2777.5,848,2777.5,856z"
   id="path109"
   style="stroke:#888887;stroke-opacity:1" />
			<path
   class="st8"
   d="M2756.9,842.5h-0.3c-0.3,0-0.6,0-0.9,0c-13.9-0.9-14-17.8-14-18.4c-0.2,0.5-6.1,13.2-23.6,12     c-17.6-1.2-9.9-23.2-9.7-23.9c-0.5,0.4-13.5,12.9-28.9,11.6c-3.4-0.3-6.8-1.2-10.3-3.1c-22.5-12.2-8-37.3,14.1-37.6     c17.6-0.2,25.1,9.4,25.1,9.4s3.8-19.7,25.4-16.3c21.6,3.4,17.7,22.5,17.7,22.5s18.1-8.4,28.1,7.1     C2791.4,824,2773.7,842.5,2756.9,842.5z"
   id="path110"
   style="fill:#b70e18;fill-opacity:1;stroke:#888887;stroke-opacity:1" />
			<g
   id="g111">
				<path
   class="st6"
   d="M2697.8,860.8c-0.1,0-0.2,0-0.4,0c-0.8-0.2-1.3-1-1.1-1.8c0-0.1,2.4-10-1.9-18.1      c-4.7-8.6-12.8-7.2-13.1-7.2c-0.8,0.1-1.6-0.4-1.7-1.2c-0.2-0.8,0.4-1.6,1.2-1.7c0.1,0,10.6-1.9,16.3,8.7      c4.9,9.1,2.3,19.8,2.2,20.2C2699,860.3,2698.4,860.8,2697.8,860.8z"
   id="path111"
   style="fill:#ffaf35;fill-opacity:1;stroke:#888887;stroke-opacity:1" />
			</g>
			<g
   id="g112">
				<path
   class="st6"
   d="M2703.1,872.4c-2.1,0-4-0.3-5.4-0.7c-0.8-0.2-1.3-1-1.1-1.8c0.2-0.8,1-1.3,1.8-1.1l0,0      c0.5,0.1,11.9,3.1,16.1-5.7c0.4-0.7,1.2-1.1,2-0.7s1.1,1.2,0.7,2C2714.3,870.7,2708.2,872.4,2703.1,872.4z"
   id="path112"
   style="fill:#ffaf35;fill-opacity:1;stroke:#888887;stroke-opacity:1" />
			</g>
			<ellipse
   class="st6"
   cx="2717.6"
   cy="844.1"
   rx="2.1"
   ry="4.7"
   id="ellipse112"
   style="fill:#ffaf35;fill-opacity:1;stroke:#888887;stroke-opacity:1" />
			<ellipse
   class="st6"
   cx="2686.5"
   cy="844.1"
   rx="1.8"
   ry="3.9"
   id="ellipse113"
   style="fill:#ffaf35;fill-opacity:1;stroke:#888887;stroke-opacity:1" />
			<g
   id="g113">
				<path
   class="st6"
   d="M2755.4,861.5c-0.8,0-1.5-0.7-1.5-1.5c0-6.4,5.2-11.6,11.6-11.6c0.8,0,1.5,0.7,1.5,1.5s-0.7,1.5-1.5,1.5      c-4.7,0-8.6,3.8-8.6,8.6C2756.9,860.8,2756.2,861.5,2755.4,861.5z"
   id="path113"
   style="fill:#ffaf35;fill-opacity:1;stroke:#888887;stroke-opacity:1" />
			</g>
		</g>
	</g>
	<g
   id="g131">
		<path
   class="st6"
   d="M2495.2,937.3h-313.4c-9.6,0-17.3-7.8-17.3-17.3V752.2c0-9.6,7.8-17.3,17.3-17.3h313.4    c9.6,0,17.3,7.8,17.3,17.3v167.8C2512.6,929.5,2504.8,937.3,2495.2,937.3z"
   id="path115"
   style="fill:#ffaf35;fill-opacity:1;stroke:#888887;stroke-opacity:1" />
		<g
   id="g130">
			<g
   id="g122">
				<path
   class="st3"
   d="M2419.5,937.3h-194.4c19.6-29.3,49.6-48,83.2-48h28C2369.9,889.3,2399.8,908,2419.5,937.3z"
   id="path116"
   style="stroke:#888887;stroke-opacity:1" />
				<g
   id="g121">
					<g
   id="g117">
						<path
   class="st15"
   d="M2419.5,937.3h-194.4c0.6-0.9,1.2-1.7,1.8-2.6c0.1-0.2,0.2-0.4,0.4-0.5h190.1c0.1,0.2,0.2,0.3,0.4,0.5        C2418.3,935.5,2418.9,936.4,2419.5,937.3z"
   id="path117"
   style="stroke:#888887;stroke-opacity:1" />
					</g>
					<g
   id="g118">
						<path
   class="st15"
   d="M2411.3,926.4h-178c0.9-1.1,1.8-2.1,2.7-3.1h172.6C2409.5,924.3,2410.4,925.3,2411.3,926.4z"
   id="path118"
   style="stroke:#888887;stroke-opacity:1" />
					</g>
					<g
   id="g119">
						<path
   class="st15"
   d="M2400.3,915h-156c1.2-1.1,2.4-2.1,3.6-3.1h148.8C2397.9,912.9,2399.1,913.9,2400.3,915z"
   id="path119"
   style="stroke:#888887;stroke-opacity:1" />
					</g>
					<g
   id="g120">
						<path
   class="st15"
   d="M2383.5,902.5H2261c1.8-1.1,3.7-2.1,5.6-3.1h111.2C2379.8,900.4,2381.6,901.4,2383.5,902.5z"
   id="path120"
   style="stroke:#888887;stroke-opacity:1" />
					</g>
				</g>
			</g>
			<g
   id="g123">
				<path
   class="st16"
   d="M2353.3,851.9v44.7c0,4.6-14.2,8.3-31.6,8.3c-17,0-30.9-3.5-31.6-8c0-0.1,0-0.2,0-0.3v-44.7H2353.3z"
   id="path122"
   style="stroke:#888887;stroke-opacity:1" />
				<path
   class="st17"
   d="M2352.9,851.9v1c0,22-27.3,47.2-47,50.1c-3.1,0.5-12.7-1.4-15.7-6.2c0-0.1,0-0.2,0-0.3v-44.7H2352.9z"
   id="path123"
   style="stroke:#888887;stroke-opacity:1" />
			</g>
			<path
   class="st16"
   d="M2370.5,837.8v1c0,7.7-6.3,14-14,14h-12.1c-3.9,14-16.7,24.2-31.9,24.2h-12.9c-14.3,0-26-11.6-26-26v-56.9     c24,6.7,66.9,0.4,66.9,0.4s-3.9,14,3.5,29.2h12.6C2364.2,823.8,2370.5,830.1,2370.5,837.8z"
   id="path124"
   style="stroke:#888887;stroke-opacity:1" />
			<path
   class="st18"
   d="M2356,822h-11.4c-9.7-16.4-4.2-27.3-4.2-27.3s-42.9,6.2-66.9-0.4c-10.9-3-17.9-8.7-15.3-18.8     c8.3-32.4,97.7,2.1,103.9,13.8C2368.4,801,2356,822,2356,822z"
   id="path125"
   style="fill:#22272e;fill-opacity:1;stroke:#22272e;stroke-opacity:1" />
			<g
   id="g129">
				<path
   class="st17"
   d="M2311.6,852.7c-0.3,0.3-0.6,0.4-1,0.4c-0.4,0-0.8-0.2-1.1-0.5l-1.4-1.5c-4.3,3.8-8.4,5.7-12.2,5.7      c-0.4,0-0.8,0-1.1-0.1c-4.2-0.4-6.3-3.2-6.4-3.3c-0.5-0.7-0.4-1.6,0.3-2.1c0.7-0.5,1.6-0.4,2.1,0.3c0.1,0.1,1.5,1.9,4.4,2.2      c3.2,0.3,6.9-1.4,10.9-4.9l-0.8-0.9c-0.6-0.6-0.5-1.6,0.1-2.1c0.6-0.6,1.6-0.5,2.1,0.1l4.2,4.6      C2312.3,851.2,2312.2,852.1,2311.6,852.7z"
   id="path126"
   style="stroke:#888887;stroke-opacity:1" />
				<path
   class="st17"
   d="M2326.8,822.9c-0.4,0-0.8-0.1-1.1-0.4c-8.8-8.6-20-6.9-20.1-6.9c-0.8,0.1-1.6-0.4-1.7-1.2      c-0.1-0.8,0.4-1.6,1.2-1.7c0.5-0.1,12.8-2.1,22.7,7.7c0.6,0.6,0.6,1.5,0,2.1C2327.6,822.8,2327.2,822.9,2326.8,822.9z"
   id="path127"
   style="stroke:#888887;stroke-opacity:1" />
				<path
   class="st17"
   d="M2292.7,843.9c-0.1,0-0.3,0-0.4-0.1c-0.8-0.2-1.2-1.1-1-1.9c0-0.1,3.1-10.3-1.9-19      c-4.3-7.5-14-5.2-14.1-5.1c-0.8,0.2-1.6-0.3-1.8-1.1c-0.2-0.8,0.3-1.6,1.1-1.8c4.1-1,13.1-1,17.4,6.6c5.7,9.9,2.4,20.9,2.2,21.4      C2293.9,843.5,2293.4,843.9,2292.7,843.9z"
   id="path128"
   style="stroke:#888887;stroke-opacity:1" />
				<ellipse
   class="st17"
   cx="2281.5"
   cy="828.3"
   rx="1.8"
   ry="3.9"
   id="ellipse128"
   style="stroke:#888887;stroke-opacity:1" />
				<ellipse
   class="st17"
   cx="2312.6"
   cy="828.3"
   rx="2.1"
   ry="4.7"
   id="ellipse129"
   style="stroke:#888887;stroke-opacity:1" />
				<path
   class="st17"
   d="M2348.7,842.9c-0.8,0-1.5-0.7-1.5-1.5c0-6.5,5.3-11.8,11.8-11.8c0.8,0,1.5,0.7,1.5,1.5s-0.7,1.5-1.5,1.5      c-4.9,0-8.8,3.9-8.8,8.8C2350.2,842.2,2349.6,842.9,2348.7,842.9z"
   id="path129"
   style="stroke:#888887;stroke-opacity:1" />
			</g>
		</g>
	</g>
</g>
<g
   id="WOMAN">
	<g
   id="LEGS">
		<g
   id="RIGHT_LEG">
			<g
   id="g132">
				<path
   class="st13"
   d="M2863.5,2729.4c-2.7-0.8-4.2-1.2-4.2-1.2l-32.7,107.1l-123.1-32.3c-1-0.9-1.5-1.4-1.5-1.4      s-498.5-390.7-524.7-578.2C2151.2,2035.9,2360,1858,2360,1858s445.3,841.7,500.4,869.2      C2861.5,2727.8,2862.6,2728.5,2863.5,2729.4z"
   id="path131"
   style="stroke:#888887;stroke-opacity:1" />
				<path
   class="st14"
   d="M2465.4,2054.9c-15.6,83.5-70.4,252.6-127.1,416.2c-84-90.5-151.8-181.8-161-247.8      c-16.6-118.8,61.3-233.9,120.5-302.1c21.7-17.4,45.1-33.4,70.4-47.7C2383.7,1902.6,2419.6,1970,2465.4,2054.9z"
   id="path132"
   style="stroke:#888887;stroke-opacity:1" />
			</g>
			<g
   id="g137">
				<path
   class="st7"
   d="M3143.3,2801.5l-183.1,117.5l-53.1-8l-48.9,31l15.8,32.4l-80.5,51.7c-106.7-97.1-91.6-223.4-91.6-223.4      l124.6,32.7l32.7-107.1c0,0,111.9,32.7,194.5,29.9C3136.5,2755.4,3143.3,2801.5,3143.3,2801.5z"
   id="path133"
   style="stroke:#22272e;stroke-opacity:1;fill:#22272e;fill-opacity:1" />
				<path
   class="st19"
   d="M2935.2,2742.6c0,0-7.7-81.4-27-76.3c-19.3,5.2,4.9,86.4,26.6,77.5c21.7-8.9,43.4-66.6,43.4-66.6"
   id="path134"
   style="stroke:#888887;stroke-opacity:1" />
				<polyline
   class="st19"
   points="2721,2918.9 2843.7,2920.8 2904.6,2884.4 2962.4,2893.7 3135.7,2785.5     "
   id="polyline134"
   style="stroke:#22272e;stroke-opacity:1" />
				<g
   id="g136">
					<line
   class="st19"
   x1="2909.8"
   y1="2738"
   x2="2898.4"
   y2="2791.1"
   id="line134"
   style="stroke:#888887;stroke-opacity:1" />
					<line
   class="st19"
   x1="2934.6"
   y1="2744"
   x2="2923.2"
   y2="2797.1"
   id="line135"
   style="stroke:#888887;stroke-opacity:1" />
					<line
   class="st19"
   x1="2960.5"
   y1="2748.3"
   x2="2949.1"
   y2="2801.4"
   id="line136"
   style="stroke:#888887;stroke-opacity:1" />
				</g>
			</g>
		</g>
		<g
   id="LEFT_LEG">
			<path
   class="st13"
   d="M2317.7,1817.1c0,0,73.3,34.2,73.3,159.6c0,121.2-279.8,863.4-279.8,863.4l-86.1,73l-87.4-95.7     C1980.4,2776.8,1857.8,2042.8,2317.7,1817.1z"
   id="path137"
   style="stroke:#888887;stroke-opacity:1" />
			<g
   id="g142">
				<path
   class="st7"
   d="M2309.9,3055.3l-217.6,0.2l-40.4-35.4l-57.9-0.3l-4.2,35.8l-85.3,0.1c-46.4-144.4,33.6-238.4,33.6-238.4      l86.8,95.6l86.7-72.9c0,0,75.2,88.2,146.2,130.4C2329,3012.7,2309.9,3055.3,2309.9,3055.3z"
   id="path138"
   style="stroke:#22272e;stroke-opacity:1;fill:#22272e;fill-opacity:1" />
				<path
   class="st19"
   d="M2161.2,2891.4c0,0,85.4-55.1,61.1-76.2c-24.3-21.1-73.2,70.5-59.9,77.8s105.4-20.4,105.4-20.4"
   id="path139"
   style="stroke:#888887;stroke-opacity:1" />
				<polyline
   class="st19"
   points="1893,2928 1995.1,2992.4 2066,2992.4 2110.9,3030.1 2311.6,3030.1     "
   id="polyline139"
   style="stroke:#22272e;stroke-opacity:1;fill:#22272e;fill-opacity:1" />
				<g
   id="g141">
					<line
   class="st19"
   x1="2142.2"
   y1="2870.6"
   x2="2103.8"
   y2="2909"
   id="line139"
   style="stroke:#888887;stroke-opacity:1" />
					<line
   class="st19"
   x1="2159.8"
   y1="2889.1"
   x2="2121.4"
   y2="2927.5"
   id="line140"
   style="stroke:#888887;stroke-opacity:1" />
					<line
   class="st19"
   x1="2179.2"
   y1="2906.7"
   x2="2140.8"
   y2="2945.1"
   id="line141"
   style="stroke:#888887;stroke-opacity:1" />
				</g>
			<path
   style="fill:#0d6a69;stroke:#22272e;stroke-width:1.2583;fill-opacity:1;stroke-opacity:1"
   d="m 1906.3144,3048.8311 c -5.4767,-14.4047 -11.1999,-47.8316 -12.1665,-71.0593 -0.7904,-18.9954 0.3663,-42.7822 2.0806,-42.7822 0.5449,0 22.5141,13.5896 48.8204,30.1992 l 47.8297,30.1993 h 35.4834 35.4835 l 22.4605,18.8745 22.4604,18.8745 h 99.3798 99.3798 l 0.8155,3.713 c 0.4486,2.0422 0.4293,6.289 -0.043,9.4373 l -0.8585,5.7243 h -106.7473 -106.7473 l -20.0872,-17.6163 -20.0872,-17.6162 h -31.5687 c -17.3627,0 -31.5731,0.4247 -31.5787,0.9437 -0.01,0.5191 -0.8549,7.7171 -1.8874,15.9956 -1.0326,8.2785 -1.8774,15.7811 -1.8774,16.6725 0,1.2878 -8.1481,1.6207 -39.6677,1.6207 h -39.6676 z"
   id="path167" /><path
   style="fill:#0d6a69;stroke:#888887;stroke-width:1.2583;fill-opacity:1;stroke-opacity:1"
   d="m 2090.4371,3007.9899 -22.4176,-18.8557 -35.5708,-0.019 -35.5707,-0.019 -49.6197,-31.143 c -41.1572,-25.8316 -49.6299,-31.6281 -49.6793,-33.9875 -0.1006,-4.811 4.873,-25.4144 9.4306,-39.0665 5.4578,-16.3488 15.7811,-38.1461 24.5126,-51.7576 l 6.7398,-10.5069 3.8511,4.4845 c 10.3201,12.0175 81.8286,90.2538 82.4926,90.2538 0.4188,0 19.95,-16.1378 43.4027,-35.8617 23.4528,-19.7238 42.9587,-35.8141 43.3465,-35.756 0.3878,0.058 6.04,6.0404 12.5605,13.294 l 11.8554,13.1884 -17.4225,17.4558 c -15.0266,15.0554 -17.198,17.7262 -15.7908,19.4219 0.8975,1.0813 2.2628,1.966 3.0342,1.966 0.7714,0 9.0684,-7.6512 18.4378,-17.0026 l 17.0353,-17.0027 6.2274,6.3224 6.2274,6.3225 -17.5581,17.5918 -17.5582,17.5919 2.8144,2.8143 2.8143,2.8143 17.6081,-17.5744 17.6081,-17.5744 6.5893,6.5892 6.5892,6.5893 -17.3399,17.3731 -17.3399,17.3731 2.6247,2.3754 c 2.6126,2.3644 2.7057,2.2945 20.1717,-15.138 l 17.5469,-17.5133 5.9923,5.7368 c 16.8086,16.092 41.0543,34.6545 70.9204,54.2967 28.9244,19.0229 41.9705,31.8378 48.9222,48.0554 l 2.4532,5.723 h -96.7618 -96.7617 z"
   id="path168" /><path
   style="fill:#22272e;stroke:#22272e;stroke-width:1.2583;fill-opacity:1;stroke-opacity:1"
   d="m 2784.9586,3012.5524 c -13.8394,-14.1867 -23.821,-26.5322 -34.4118,-42.5612 -9.0458,-13.6906 -25.9812,-45.8291 -24.7818,-47.0285 0.2839,-0.2839 27.091,-0.062 59.5715,0.4937 l 59.0553,1.0099 30.5721,-18.0994 30.572,-18.0994 28.9168,4.6107 28.9167,4.6107 84.9736,-53.0798 c 46.7355,-29.1939 85.7193,-52.7936 86.6308,-52.4438 0.9115,0.3497 2.2201,2.2503 2.9079,4.2235 l 1.2506,3.5875 -89.9147,57.7113 -89.9147,57.7112 -26.3569,-3.9928 c -14.4963,-2.196 -27.0448,-3.5932 -27.8855,-3.1048 -4.3916,2.5511 -49.4864,31.0938 -50.3126,31.8453 -0.5327,0.4846 2.4601,8.1354 6.6507,17.0018 4.1906,8.8663 7.4576,16.2639 7.2601,16.4389 -0.4116,0.3648 -12.1918,7.9455 -48.9716,31.5137 l -25.9631,16.6369 z"
   id="path169" /><path
   style="fill:#0d6a69;stroke:#888887;stroke-width:1.2583;fill-opacity:1;stroke-opacity:1"
   d="m 2769.9412,2916.1826 c -25.7224,-0.3832 -47.0392,-0.9798 -47.3706,-1.3259 -0.3315,-0.346 -2.5971,-6.9476 -5.0348,-14.6702 -4.8544,-15.3785 -8.8928,-34.1807 -10.8958,-50.7285 -1.4942,-12.3452 -1.7379,-41.5496 -0.3468,-41.5723 0.519,-0.01 28.2778,7.1506 61.6862,15.909 33.4084,8.7585 60.9087,15.7018 61.1117,15.4296 0.2031,-0.2721 6.9898,-22.2949 15.0817,-48.9395 8.0918,-26.6445 15.3307,-50.4447 16.0863,-52.8893 l 1.3739,-4.4448 20.9495,5.1686 c 14.3484,3.54 21.0612,5.747 21.304,7.0042 0.195,1.0096 -1.6453,10.9789 -4.0895,22.154 -2.4441,11.1752 -4.4439,21.1406 -4.4439,22.1454 0,2.6625 6.0821,3.5513 6.8208,0.9967 0.3217,-1.1122 2.6265,-11.6284 5.1218,-23.3693 2.4953,-11.7409 4.6566,-21.4667 4.8027,-21.6129 0.465,-0.465 16.0763,3.0099 16.8076,3.7411 0.3857,0.3857 -1.3744,10.5002 -3.9114,22.4767 -5.8557,27.6438 -5.7058,25.4806 -1.798,25.9336 3.8218,0.4431 2.9763,2.8291 9.2774,-26.183 2.4635,-11.3431 4.6036,-20.7385 4.7557,-20.8785 0.3982,-0.3666 17.3183,2.8978 17.8358,3.4412 0.2383,0.2501 -1.8162,10.8416 -4.5654,23.5366 -2.7492,12.6951 -4.8146,23.266 -4.5896,23.4909 0.2249,0.225 1.8234,0.7632 3.5521,1.1961 l 3.1432,0.7871 4.9248,-23.6489 c 2.7087,-13.0068 5.0429,-23.8124 5.1872,-24.0124 0.1442,-0.2 9.2527,0.8357 20.2412,2.3014 13.9772,1.8645 31.6967,2.9802 58.9863,3.7142 44.5577,1.1984 55.775,2.8912 71.2655,10.7544 5.2712,2.6757 16.1864,10.8386 16.1864,12.1049 0,0.5173 -37.7636,24.4991 -83.9191,53.2928 l -83.9191,52.3523 -29.0289,-4.6085 -29.0288,-4.6084 -30.58,18.3762 -30.5801,18.3762 -12.816,-0.2471 c -7.0488,-0.1358 -33.8616,-0.5605 -59.584,-0.9437 z"
   id="path170" /></g>
		</g>
	</g>
	<g
   id="SKIRT">
		<path
   class="st8"
   d="M2317.7,1817.1c-172.9,84.8-263.5,241.6-311.4,406.3h-524.7c-134.3,0-234.4-123.9-206.1-255.2l38.5-178.8    h912.3C2260.1,1789.4,2291.5,1799.6,2317.7,1817.1z"
   id="path142"
   style="fill:#b70e18;fill-opacity:1;stroke:#888887;stroke-opacity:1" />
		<polygon
   class="st13"
   points="1928.1,1988.5 2117,1988.1 2089,2034   "
   id="polygon142"
   style="stroke:#888887;stroke-opacity:1" />
		<path
   class="st20"
   d="M2318.7,1816.1c-86,42.2-151.6,102.2-201.8,172.1h-478.7c-86.3,0-150.7-79.3-133.1-163.8l7.3-35"
   id="path143"
   style="stroke:#888887;stroke-opacity:1" />
		<path
   class="st20"
   d="M2007,2223.3c19.1-65.7,44.9-130.2,80-189.3l-158.9-45.6"
   id="path144"
   style="stroke:#888887;stroke-opacity:1" />
	</g>
	<g
   id="BLOUSE">
		<path
   class="st10"
   d="M1191.4,1309.1l96.1,377h-179.3c-104.4,0-171.6-110.9-123.2-203.4l137.7-263.3    c39-74.5,116.1-121.2,200.2-121.2h32.5C1245,1098.1,1164.1,1202.1,1191.4,1309.1z"
   id="path145"
   style="fill:#127c71;fill-opacity:1;stroke:#888887;stroke-opacity:1" />
		<path
   class="st10"
   d="M2298,1211.3c56.5,0,103.5-7.5,114.9-18l-175.3,380c-31.7,68.8-100.6,112.8-176.3,112.8    c-22.2,0-44-3.8-64.6-11.1c-20.6-7.3-40-18-57.3-32l-110.5-89.2c0,0-11,64.7-89.5,81.2v154.2h-425.5l-122.5-480.2    c-27.3-107,53.6-211.1,164-211.1h297.9c26.3,0,52.2,3.3,77.2,9.7c68.4,17.4,129.8,57.6,173.2,115.2l145.6,193.2l130.8-228.6h0    c0,0.2-0.1,0.5-0.1,0.7C2180.1,1201.4,2233,1211.3,2298,1211.3z"
   id="path146"
   style="fill:#127c71;fill-opacity:1;stroke:#888887;stroke-opacity:1" />
		<line
   class="st20"
   x1="1190.4"
   y1="1309.1"
   x2="1284.5"
   y2="1689.1"
   id="line146"
   style="stroke:#888887;stroke-opacity:1" />
		<line
   class="st20"
   x1="1829.9"
   y1="1558.9"
   x2="1746.3"
   y2="1469.9"
   id="line147"
   style="stroke:#888887;stroke-opacity:1" />
		<path
   class="st8"
   d="M2415.5,1187.7l-2.6,5.6c-11.4,10.6-58.4,18-114.9,18c-65,0-117.9-9.9-117.9-23c0-0.2,0-0.5,0.1-0.7    c1.8-12.8,54-23.8,117.9-23.8C2361.9,1163.8,2413.7,1174.8,2415.5,1187.7C2415.5,1187.6,2415.5,1187.6,2415.5,1187.7z"
   id="path147"
   style="fill:#0d6a69;fill-opacity:1;stroke:#888887;stroke-opacity:1" />
	</g>
	<g
   id="ARM">
		<path
   class="st13"
   d="M2467.9,995.7c0,5.7-1.4,11.3-4,16.2c-2.6,4.9-6.4,9.2-11.1,12.5l-2.3,1.6l-17.9,95.5    c-2.9,15.5-12.1,29.2-25.4,37.7l-24.5,15.6l-19.4,12.4l-9,21.5c-16.7,1.7-35.8,2.7-56.2,2.7c-20.6,0-40-1-56.9-2.8v-148.1    c0-6.4,1.4-12.7,4.1-18.5l32.6-70.2c0,0,35.6,8.8,19.2,52.5c-14.9,39.7,19.1,29.5,38.2,22.4c17.1-6.4,91.8-44.4,121-58.3    C2461.7,985.8,2467.9,989.8,2467.9,995.7z"
   id="path148"
   style="stroke:#888887;stroke-opacity:1" />
		<g
   id="g150">
			<path
   class="st21"
   d="M2436.7,1085.2c-2.9,15.5-12.1,29.1-25.4,37.6l-43.9,28"
   id="path149" />
			<path
   class="st21"
   d="M2443.9,1044.7c-2.9,15.5-12.1,29.1-25.4,37.6l-43.9,28"
   id="path150" />
			<line
   class="st21"
   x1="2447.3"
   y1="1027.1"
   x2="2376.7"
   y2="1071.9"
   id="line150" />
		</g>
		<path
   class="st14"
   d="M2386.5,1172.3l-3.9,2.5l-19.4,12.4l-9,21.5c-16.7,1.7-35.8,2.7-56.2,2.7c-20.6,0-40-1-56.9-2.8v-41.6    c16.9-2,36.3-3.1,56.9-3.1C2333.3,1163.8,2364.9,1167.1,2386.5,1172.3z"
   id="path151"
   style="stroke:#888887;stroke-opacity:1" />
	</g>
	<g
   id="HEAD">
		<g
   id="NECK">
			<path
   class="st13"
   d="M1721.2,1105.3c-14.5,19.5-68.5,65.4-250.3,65.4c-233.9,0-84.2-72.4-84.2-72.4l99.2-165.7l106.4,65.3v52.5     c0,26.5,21.5,47.9,47.9,47.9h6.9C1671.9,1098.2,1697.5,1099.3,1721.2,1105.3z"
   id="path152"
   style="stroke:#888887;stroke-opacity:1" />
			<polygon
   class="st14"
   points="1592.2,997.8 1592.2,1011.2 1386.6,1098.2 1485.8,932.5    "
   id="polygon152"
   style="stroke:#888887;stroke-opacity:1" />
		</g>
		<g
   id="HEAD_1_">
			<path
   class="st13"
   d="M1597.8,1004.3h22.6c20.8,0,37.7-16.9,37.7-37.7V840.7h-134.9v89C1523.2,970.9,1556.6,1004.3,1597.8,1004.3     z"
   id="path153"
   style="stroke:#888887;stroke-opacity:1" />
			<path
   class="st21"
   d="M1655.2,959.3c-14.5,0-20.3-10-20.3-10"
   id="path154" />
			<ellipse
   class="st14"
   cx="1642.1"
   cy="909.7"
   rx="4.8"
   ry="9.3"
   id="ellipse154"
   style="stroke:#888887;stroke-opacity:1" />
		</g>
		<path
   id="HAIR"
   class="st22"
   d="M1548.9,853.8c0,0,111.3,67.2,147.5,8.7c31.8-51.3-109.1-77.7-158.3-77.9    c-53.5-0.2-124.4,23.5-123.2,102.2c1,64.8,3.7,159.6-34.7,143.1c-136.6-58.6-258,2.6-258.4,119.2    c-0.4,116.6,134.9,127.5,138.3,97.4c3.5-30-84-23.1-72.2,54.8c11.7,77.9,63.9,175.3,183.1,175.3c144,0.1,235.7-189.5,146.6-208.8    c-68.3-14.8,69.6,117,110.5-20c44-147.5-115-195.8-118.9-284.9S1548.9,853.8,1548.9,853.8z"
   style="fill:#22272e;fill-opacity:1;stroke:#22272e;stroke-opacity:1" />
		<g
   id="GLASSES">
			<line
   class="st19"
   x1="1541.1"
   y1="907.3"
   x2="1620.7"
   y2="907.3"
   id="line154"
   style="stroke:#888887;stroke-opacity:1" />
			<ellipse
   class="st19"
   cx="1645.2"
   cy="910.3"
   rx="22.6"
   ry="29"
   id="ellipse155"
   style="stroke:#888887;stroke-opacity:1" />
		</g>
		<g
   id="HEADPHONES">
			<path
   class="st0"
   d="M1498.9,871.6v-84.2c0-12.6,10.2-22.9,22.9-22.9h25c12.6,0,22.9,10.2,22.9,22.9"
   id="path155"
   style="stroke:#888887;stroke-opacity:1" />
			<path
   class="st11"
   d="M1523,964.3h-48.1c-12.3,0-22.3-10-22.3-22.3v-48.1c0-12.3,10-22.3,22.3-22.3h48.1     c12.3,0,22.3,10,22.3,22.3V942C1545.2,954.3,1535.3,964.3,1523,964.3z"
   id="path156"
   style="stroke:#888887;stroke-opacity:1" />
			<path
   class="st11"
   d="M1510.5,948.4h-23.5c-10.1,0-18.4-8.2-18.4-18.4v-23.5c0-10.1,8.2-18.4,18.4-18.4h23.5     c10.1,0,18.4,8.2,18.4,18.4V930C1528.9,940.2,1520.7,948.4,1510.5,948.4z"
   id="path157"
   style="stroke:#888887;stroke-opacity:1" />
			<g
   id="g161">
				<line
   class="st0"
   x1="1519.8"
   y1="890.5"
   x2="1478"
   y2="946.1"
   id="line157"
   style="stroke:#888887;stroke-opacity:1" />
				<line
   class="st0"
   x1="1506"
   y1="888.6"
   x2="1469.8"
   y2="936.6"
   id="line158"
   style="stroke:#888887;stroke-opacity:1" />
				<line
   class="st0"
   x1="1527.9"
   y1="900.4"
   x2="1491.7"
   y2="948.4"
   id="line159"
   style="stroke:#888887;stroke-opacity:1" />
				<line
   class="st0"
   x1="1528.9"
   y1="918.3"
   x2="1506.2"
   y2="948.4"
   id="line160"
   style="stroke:#888887;stroke-opacity:1" />
				<line
   class="st0"
   x1="1491.3"
   y1="888.6"
   x2="1468.7"
   y2="918.5"
   id="line161"
   style="stroke:#888887;stroke-opacity:1" />
			</g>
		</g>
	</g>
<path
   style="fill:#22272e;stroke:#22272e;stroke-width:2.50163;fill-opacity:1;stroke-opacity:1"
   d="m 1906.1516,3044.2455 c -5.2356,-13.7708 -9.9158,-50.4159 -9.9158,-77.6396 0,-15.6426 0.6528,-28.4411 1.4506,-28.4411 0.7978,0 22.0729,12.946 47.278,28.7688 l 45.8275,28.7687 h 35.6632 35.6631 l 22.0601,18.7623 22.06,18.7622 h 100.1324 100.1325 v 8.7557 8.7557 h -105.6939 -105.6939 l -20.013,-17.447 -20.0131,-17.447 -32.8927,-0.061 -32.8927,-0.061 -1.7586,17.5114 -1.7586,17.5114 h -38.5833 -38.5833 z"
   id="path171" /><path
   style="fill:#22272e;stroke:#22272e;stroke-width:2.50163;fill-opacity:1;stroke-opacity:1"
   d="m 2781.2506,3006.1861 c -16.9199,-18.0888 -32.3189,-39.9603 -44.1619,-62.724 l -10.6261,-20.4247 58.72,1.6989 58.7201,1.6988 30.8705,-18.237 30.8704,-18.237 29.4067,4.3273 29.4066,4.3273 78.9336,-49.1398 c 43.4135,-27.0269 81.6876,-50.3946 85.0535,-51.9283 6.1536,-2.8037 11.9875,-0.711 7.0757,2.5382 -1.4468,0.9571 -41.7568,26.9101 -89.5777,57.6733 l -86.947,55.9331 -18.6476,-2.7734 c -33.2367,-4.9434 -35.8528,-4.4185 -62.2024,12.4805 -13.0816,8.3897 -23.7848,16.8887 -23.7848,18.8865 0,1.9978 1.7136,6.9461 3.8079,10.9961 10.302,19.9218 12.0117,17.2044 -26.5711,42.2307 -19.2518,12.4874 -35.9235,22.7044 -37.0481,22.7044 -1.1246,0 -7.1089,-5.4139 -13.2983,-12.0309 z"
   id="path172" /></g>
<g
   id="CHAIR">
	<path
   class="st0"
   d="M1463.3,2280.3v55.1c0,26.6-21.6,48.2-48.2,48.2h-123.6"
   id="path161"
   style="stroke:#888887;stroke-opacity:1" />
	<line
   class="st0"
   x1="1509.4"
   y1="2280.9"
   x2="1509.4"
   y2="2786.4"
   id="line162"
   style="stroke:#888887;stroke-opacity:1" />
	<path
   class="st0"
   d="M1285.6,2948.5c0-89.5,88.9-162.1,198.5-162.1h49.8c109.6,0,198.5,72.6,198.5,162.1"
   id="path162"
   style="stroke:#888887;stroke-opacity:1" />
	<path
   class="st6"
   d="M1990.3,2288.6h-726c-36.4,0-65.8-29.5-65.8-65.8l0,0h809L1990.3,2288.6z"
   id="path163"
   style="fill:#22272e;fill-opacity:1;stroke:#22272e;stroke-opacity:1" />
	<circle
   class="st6"
   cx="1281.2"
   cy="3002.1"
   r="53.6"
   id="circle163"
   style="fill:#ffaf35;fill-opacity:1;stroke:#888887;stroke-opacity:1" />
	<path
   class="st6"
   d="M1253.9,2397.3h107.6c8.8,0,15.9-7.1,15.9-15.9v-1.2c0-8.8-7.1-15.9-15.9-15.9h-107.6   c-8.8,0-15.9,7.1-15.9,15.9v1.2C1238,2390.2,1245.1,2397.3,1253.9,2397.3z"
   id="path164"
   style="fill:#22272e;fill-opacity:1;stroke:#888887;stroke-opacity:1" />
	<path
   class="st2"
   d="M1198.5,2224.8h515.1L1541.3,1742c-12-33.5-43.7-55.9-79.3-55.9h-378.7c-37.6,0-63.8,37.2-51.2,72.6   L1198.5,2224.8z"
   id="path165"
   style="stroke:#888887;stroke-opacity:1" />
	<path
   class="st2"
   d="M1224,2224.8h447.8L1505.3,1758c-11.6-32.4-42.2-54-76.6-54h-383.4"
   id="path166"
   style="stroke:#888887;stroke-opacity:1" />
	<circle
   class="st6"
   cx="1731.5"
   cy="3002.1"
   r="53.6"
   id="circle166"
   style="fill:#ffaf35;fill-opacity:1;stroke:#888887;stroke-opacity:1" />
<path
   style="fill:#22272e;stroke:#22272e;stroke-width:2.50163;fill-opacity:1;stroke-opacity:1"
   d="m 1258.9611,3049.2617 c -16.7345,-8.5306 -30.6327,-29.9932 -30.6327,-47.3053 0,-17.9362 12.9675,-37.5951 30.7995,-46.6923 14.5959,-7.4463 37.4954,-5.6975 51.3788,3.9237 12.4193,8.6066 22.8623,28.1424 22.8623,42.7686 0,14.8441 -10.8541,35.1081 -23.1711,43.2591 -12.7941,8.4667 -38.5716,10.5024 -51.2368,4.0462 z"
   id="path173" /><path
   style="fill:#22272e;stroke:#22272e;stroke-width:2.50163;fill-opacity:1;stroke-opacity:1"
   d="m 1709.2546,3049.2617 c -16.8627,-8.5959 -30.6003,-29.9401 -30.6467,-47.6162 -0.024,-9.2154 7.422,-26.8588 14.4676,-34.2802 11.88,-12.5136 24.3817,-17.3492 41.9596,-16.2299 20.1854,1.2853 33.3944,9.9776 42.2904,27.8295 8.2066,16.4684 8.1428,29.6426 -0.2246,46.4338 -9.1869,18.4357 -21.5486,26.2294 -43.1946,27.2329 -11.6935,0.5421 -18.9138,-0.4449 -24.6517,-3.3699 z"
   id="path174" /></g>
<path
   style="fill:#22272e;stroke:#22272e;stroke-width:7.01262;fill-opacity:1;stroke-opacity:1"
   d="m 2061.7111,1314.8668 c -13.6045,-13.6045 -14.0253,-23.3754 -14.0253,-325.68935 V 677.51338 l 15.5856,-10.91658 c 13.7223,-9.61145 70.6719,-10.91658 476.3494,-10.91658 h 460.7638 l 14.5342,18.47727 c 14.1888,18.0382 14.5342,25.59791 14.5342,318.12863 0,292.53068 -0.3454,300.09038 -14.5342,318.12858 l -14.5342,18.4773 h -322.822 c -291.4903,0 -322.4088,-1.0766 -318.5653,-11.0925 2.3411,-6.1008 4.2566,-12.4122 4.2566,-14.0252 0,-1.613 81.5586,-2.9328 181.2413,-2.9328 207.117,0 204.4529,0.7469 204.4529,-57.3194 0,-54.147 -2.3748,-54.8825 -177.207,-54.8825 -93.4746,0 -153.2195,-2.6876 -155.8926,-7.0127 -2.7284,-4.4147 13.4849,-7.0126 43.7657,-7.0126 28.0607,0 51.6055,-3.5059 56.5148,-8.4151 11.6835,-11.6835 11.6835,-188.87757 0,-200.56105 -11.9524,-11.95245 -335.8736,-11.95245 -347.8261,0 -12.8095,12.80954 -11.4746,180.44955 1.5855,199.09535 9.1356,13.043 6.3475,20.7594 -32.2364,89.2182 -23.2303,41.2172 -46.6646,74.9403 -52.0763,74.9403 -5.4117,0 -16.1507,-6.3114 -23.8646,-14.0252 z m 852.0336,-248.9481 v -98.17676 h -175.3155 -175.3156 l -1.973,90.79326 c -1.0851,49.9362 -0.374,94.96 1.5802,100.0527 2.8386,7.3972 38.4966,8.8822 177.2886,7.3835 l 173.7353,-1.876 z M 2509.8693,933.46162 c 5.4421,-6.55734 7.4396,-40.32867 6.1181,-103.43619 l -1.9622,-93.70004 h -175.3155 -175.3156 l -1.9621,93.70004 c -1.3216,63.10752 0.676,96.87885 6.1181,103.43619 6.4698,7.79568 40.5827,9.73614 171.1596,9.73614 130.5768,0 164.6897,-1.94046 171.1596,-9.73614 z m 392.7069,0 c 5.442,-6.55734 7.4396,-40.32867 6.118,-103.43619 l -1.9621,-93.70004 h -171.8092 -171.8093 l -1.9589,97.63567 c -1.4728,73.40484 0.2676,99.04857 7.0126,103.3288 4.9343,3.13122 80.3769,5.74145 167.6501,5.80051 126.9214,0.0859 160.2956,-1.84116 166.7588,-9.62875 z m -77.8087,-244.55197 c 1.6027,-8.32241 -2.1351,-12.19156 -11.7777,-12.19156 -16.0824,0 -24.9887,10.47369 -18.2197,21.42615 6.8252,11.04341 27.3064,4.73834 29.9974,-9.23459 z m 42.0757,0 c 1.6027,-8.32241 -2.1351,-12.19156 -11.7777,-12.19156 -16.0824,0 -24.9886,10.47369 -18.2196,21.42615 6.8251,11.04341 27.3063,4.73834 29.9973,-9.23459 z m 43.3952,1.83369 c 0,-8.92516 -4.6751,-14.02525 -12.8564,-14.02525 -16.5441,0 -22.1956,5.89433 -17.4669,18.21715 5.9528,15.51278 30.3233,12.14379 30.3233,-4.1919 z"
   id="path175" /><path
   style="fill:#22272e;stroke:#22272e;stroke-width:7.01262;fill-opacity:1;stroke-opacity:1"
   d="m 2390.7766,1444.3579 c 18.556,-40.6313 34.9439,-75.0086 36.4177,-76.3941 3.3251,-3.126 229.4891,34.6289 233.9078,39.0477 1.7619,1.7618 14.2791,27.5074 27.8161,57.2123 l 24.6127,54.009 h -178.2462 -178.2463 z"
   id="path176" /><path
   style="fill:#22272e;stroke:#22272e;stroke-width:7.01262;fill-opacity:1;stroke-opacity:1"
   d="m 2466.69,1323.697 c -56.8899,-1.2059 -103.4361,-4.7698 -103.4361,-7.9198 0,-6.0102 172.1853,-14.8724 289.7317,-14.9123 90.3384,-0.031 95.9625,-3.32 95.9625,-56.1244 0,-52.5327 -5.8573,-56.0891 -92.4562,-56.1372 -35.9303,-0.02 -96.8846,-2.3587 -135.454,-5.1972 -60.2065,-4.4308 -65.1664,-5.6657 -35.0631,-8.7295 l 35.0631,-3.5686 4.1807,-52.5947 c 2.2994,-28.927 2.2994,-76.2622 0,-105.1893 l -4.1807,-52.59469 -89.411,-4.66467 c -49.176,-2.56557 -129.6458,-2.56557 -178.8219,0 l -89.4109,4.66467 -4.6756,38.56943 c -5.3507,44.13936 0.2021,152.62276 8.6148,168.30296 5.8733,10.947 -37.7503,100.7158 -66.4096,136.6579 -15.0293,18.8486 -34.4524,19.1018 -41.5744,0.542 -1.8955,-4.9394 -5.7507,-146.3297 -8.5672,-314.2008 l -5.121,-305.22009 17.6148,-11.54167 c 15.8329,-10.37409 63.9168,-11.699 475.3199,-13.09708 l 457.705,-1.55542 13.3519,17.82865 c 12.6374,16.87454 13.3519,33.74655 13.3519,315.27093 0,281.15648 -0.7286,298.41848 -13.3075,315.27088 l -13.3075,17.8287 -213.1317,0.2519 c -117.2224,0.1385 -259.678,-0.7347 -316.5679,-1.9406 z m 450.5611,-257.7783 V 964.23562 h -178.8219 -178.8219 v 101.68308 101.683 h 178.8219 178.8219 z m -401.2852,-229.66344 1.9406,-103.43619 h -179.0094 -179.0093 v 100.51426 c 0,55.28285 2.1576,102.67191 4.7948,105.30904 2.6371,2.63713 82.318,3.95199 177.0687,2.92192 l 172.2739,-1.87285 z m 392.7068,0 1.9407,-103.43619 h -175.5031 -175.503 v 100.51426 c 0,55.28285 2.1586,102.67283 4.7968,105.31109 2.6383,2.63825 80.7414,3.95312 173.5624,2.92193 l 168.7656,-1.87491 z m -83.8963,-147.26508 c 1.7371,-9.11435 -2.3044,-12.27209 -15.7068,-12.27209 -13.5728,0 -18.0458,3.59728 -18.0458,14.51298 0,11.0228 3.7773,13.97408 15.7068,12.27209 8.6388,-1.23249 16.7593,-7.76333 18.0458,-14.51298 z m 42.0757,0 c 1.7372,-9.11435 -2.3043,-12.27209 -15.7068,-12.27209 -13.5728,0 -18.0457,3.59728 -18.0457,14.51298 0,11.0228 3.7773,13.97408 15.7067,12.27209 8.6388,-1.23249 16.7593,-7.76333 18.0458,-14.51298 z m 43.3863,1.75316 c 0,-10.28518 -4.6751,-14.02525 -17.5315,-14.02525 -16.5008,0 -23.5022,12.72973 -12.8565,23.37541 10.4631,10.46311 30.388,4.33236 30.388,-9.35016 z"
   id="path177" /><path
   style="fill:#22272e;stroke:#22272e;stroke-width:1.2583;fill-opacity:1;stroke-opacity:1"
   d="m 2542.5634,1380.8996 c -65.656,-10.9601 -119.5946,-20.1475 -119.8635,-20.4164 -0.2689,-0.2689 1.5146,-4.8254 3.9635,-10.1256 l 4.4524,-9.6367 104.7156,0.038 104.7155,0.038 11.3247,25.2319 c 17.6241,39.2671 16.0978,35.1153 12.846,34.9443 -1.5288,-0.08 -56.4981,-9.1135 -122.1542,-20.0736 z"
   id="path178" /><path
   style="fill:#22272e;stroke:#22272e;stroke-width:9.8878;fill-opacity:1;stroke-opacity:1"
   d="m 1221.8493,2263.5995 c -8.5459,-8.5459 -15.5379,-19.6697 -15.5379,-24.7195 0,-5.4972 158.7118,-9.1815 395.5119,-9.1815 233.5966,0 395.5119,3.7168 395.5119,9.0791 0,41.0428 6.5316,40.3598 -385.9757,40.3598 -326.791,0 -375.9325,-1.9603 -389.5102,-15.5379 z"
   id="path180" /><path
   style="fill:#22272e;stroke:#22272e;stroke-width:9.8878;fill-opacity:1;stroke-opacity:1"
   d="m 1245.8626,2378.0154 c 0,-5.4823 26.1729,-9.8878 58.7432,-9.8878 32.3088,0 61.4932,4.4495 64.8542,9.8878 3.8368,6.208 -18.0249,9.8878 -58.7432,9.8878 -36.6443,0 -64.8542,-4.3009 -64.8542,-9.8878 z"
   id="path181"
   inkscape:export-filename="4_SCENE.svg"
   inkscape:export-xdpi="96"
   inkscape:export-ydpi="96" /></svg>
