<?xml version="1.0" encoding="UTF-8" standalone="no"?>
<svg
   id="illustration"
   viewBox="0 0 675.10394 435.98785"
   version="1.1"
   sodipodi:docname="Project_Manager_7.svg"
   inkscape:version="1.3.1 (91b66b0783, 2023-11-16)"
   width="675.10394"
   height="435.98785"
   xmlns:inkscape="http://www.inkscape.org/namespaces/inkscape"
   xmlns:sodipodi="http://sodipodi.sourceforge.net/DTD/sodipodi-0.dtd"
   xmlns="http://www.w3.org/2000/svg"
   xmlns:svg="http://www.w3.org/2000/svg">
  <sodipodi:namedview
     id="namedview226"
     pagecolor="#ffffff"
     bordercolor="#000000"
     borderopacity="0.25"
     inkscape:showpageshadow="2"
     inkscape:pageopacity="0.0"
     inkscape:pagecheckerboard="0"
     inkscape:deskcolor="#d1d1d1"
     inkscape:zoom="0.46819592"
     inkscape:cx="255.23503"
     inkscape:cy="41.649231"
     inkscape:window-width="1360"
     inkscape:window-height="745"
     inkscape:window-x="-8"
     inkscape:window-y="-8"
     inkscape:window-maximized="1"
     inkscape:current-layer="illustration" />
  <defs
     id="defs2">
    <style
       id="style1">.cls-1,.cls-12,.cls-13,.cls-15,.cls-17,.cls-19,.cls-22,.cls-4,.cls-6{fill:none;}.cls-2{fill:#eaf9f3;}.cls-3{clip-path:url(#clip-path);}.cls-4,.cls-6{stroke:#b8d8c7;}.cls-12,.cls-13,.cls-15,.cls-17,.cls-19,.cls-22,.cls-4,.cls-6{stroke-linecap:round;stroke-linejoin:round;}.cls-12,.cls-13,.cls-15,.cls-17,.cls-19,.cls-4{stroke-width:1.8px;}.cls-5{fill:#b8d8c7;}.cls-6{stroke-width:1.8px;}.cls-7{fill:#b0d7c0;}.cls-8{fill:#6dafa7;}.cls-9{fill:#ffe779;}.cls-10{fill:#22272e;}.cls-11{fill:#63737a;}.cls-12{stroke:#63737a;}.cls-13{stroke:#ffe779;}.cls-14{fill:#f4c2c9;}.cls-15{stroke:#e26e85;}.cls-16{fill:#fff;}.cls-17{stroke:#6dafa7;}.cls-18{fill:#f8ab5d;}.cls-19,.cls-22{stroke:#22272e;}.cls-20{clip-path:url(#clip-path-3);}.cls-21{fill:#e26e85;}.cls-22{stroke-width:1.8px;}</style>
    <clipPath
       id="clip-path">
      <path
         class="cls-1"
         d="m 766.3,602 -520,-14.9 a 48.07,48.07 0 0 1 -46.5,-43.3 l -25.1,-248 a 48.18,48.18 0 0 1 47.2,-53 l 578.8,-8 a 48.21,48.21 0 0 1 48.5,54.1 L 815.5,559.8 A 48.27,48.27 0 0 1 766.3,602 Z"
         id="path1" />
    </clipPath>
    <clipPath
       id="clip-path-3">
      <path
         class="cls-1"
         d="m 495,351.5 c 0,0 -21.6,1.2 -34.2,5.7 -12.6,4.5 -10.3,14.5 -11.9,25 -1.6,10.5 -11.9,21.2 -6.7,35.5 5.2,14.3 10.3,22.4 7.6,33.4 -2.7,11 -5.2,16.5 -4.8,19.6 0.4,3.1 14.8,12.6 20.3,14.5 5.5,1.9 16.2,-5.7 16.2,-5.7 0,0 5.5,7.2 13.5,8.8 8,1.6 40.4,-6.7 47.8,-15 a 51.86,51.86 0 0 1 -5,-20.5 c -0.2,-11.2 6.3,-25.1 8.7,-32.8 2.4,-7.7 15.9,-37.4 10.6,-47.3 -3.8,-7.1 -32.2,-23.1 -62.1,-21.2 z"
         id="path2" />
    </clipPath>
  </defs>
  <g
     class="cls-3"
     clip-path="url(#clip-path)"
     id="g34"
     transform="translate(-174.45773,-166.02996)">
    <path
       class="cls-4"
       d="M 341.9,647 H -73.6 a 15,15 0 0 1 -15,-15 V 396.3 a 15,15 0 0 1 15,-15 h 415.5 a 15,15 0 0 1 15,15 V 632 a 15,15 0 0 1 -15,15 z"
       id="path4" />
    <path
       class="cls-4"
       d="M 891,631.2 H 471.9 a 15,15 0 0 1 -15,-15 V 271.9 a 15,15 0 0 1 15,-15 H 891 a 15,15 0 0 1 15,15 v 344.3 a 15,15 0 0 1 -15,15 z"
       id="path5" />
    <path
       class="cls-4"
       d="m 242.3,311 h -89.9 v -8.9 h 89.9 a 1.79,1.79 0 0 1 1.8,1.8 v 5.2 a 1.82,1.82 0 0 1 -1.8,1.9 z"
       id="path6" />
    <path
       class="cls-4"
       d="m 226,302.1 h -20.3 a 4.32,4.32 0 0 1 -4.3,-3.8 l -1.6,-14.4 a 4.33,4.33 0 0 1 4.3,-4.8 h 23.5 a 4.34,4.34 0 0 1 4.3,4.8 l -1.6,14.4 a 4.41,4.41 0 0 1 -4.3,3.8 z"
       id="path7" />
    <path
       class="cls-5"
       d="m 213.4,279.1 c 0,0 -8,-0.8 -9.6,-11.6 0,0 7.2,2.1 9.5,7.2 0,0 1,-11.4 6.4,-12.5 0,0 2.4,8.5 -1.4,12.7 0,0 2.9,-4.8 10.3,-4.7 a 13.6,13.6 0 0 1 -9.2,8.8"
       id="path8" />
    <path
       class="cls-4"
       d="m 338.7,431.1 h -90.2 a 4.23,4.23 0 0 1 -4.2,-4.2 v -27.4 a 4.23,4.23 0 0 1 4.2,-4.2 h 90.2 a 4.23,4.23 0 0 1 4.2,4.2 v 27.4 a 4.1,4.1 0 0 1 -4.2,4.2 z"
       id="path9" />
    <path
       class="cls-5"
       d="m 304,404.9 h -20.8 a 1.54,1.54 0 0 1 -1.5,-1.5 v 0 a 1.54,1.54 0 0 1 1.5,-1.5 H 304 a 1.54,1.54 0 0 1 1.5,1.5 v 0 a 1.54,1.54 0 0 1 -1.5,1.5 z"
       id="path10" />
    <path
       class="cls-4"
       d="m 338.7,476.9 h -90.2 a 4.23,4.23 0 0 1 -4.2,-4.2 v -27.4 a 4.23,4.23 0 0 1 4.2,-4.2 h 90.2 a 4.23,4.23 0 0 1 4.2,4.2 v 27.4 a 4.1,4.1 0 0 1 -4.2,4.2 z"
       id="path11" />
    <path
       class="cls-5"
       d="m 304,450.7 h -20.8 a 1.54,1.54 0 0 1 -1.5,-1.5 v 0 a 1.54,1.54 0 0 1 1.5,-1.5 H 304 a 1.54,1.54 0 0 1 1.5,1.5 v 0 a 1.47,1.47 0 0 1 -1.5,1.5 z"
       id="path12" />
    <path
       class="cls-4"
       d="m 801.9,509.2 h -90.2 a 4.23,4.23 0 0 1 -4.2,-4.2 v -27.4 a 4.23,4.23 0 0 1 4.2,-4.2 h 90.2 a 4.23,4.23 0 0 1 4.2,4.2 V 505 a 4.1,4.1 0 0 1 -4.2,4.2 z"
       id="path13" />
    <path
       class="cls-5"
       d="m 767.2,483.1 h -20.8 a 1.54,1.54 0 0 1 -1.5,-1.5 v 0 a 1.54,1.54 0 0 1 1.5,-1.5 h 20.8 a 1.54,1.54 0 0 1 1.5,1.5 v 0 a 1.54,1.54 0 0 1 -1.5,1.5 z"
       id="path14" />
    <path
       class="cls-4"
       d="m 686.1,509.2 h -90.2 a 4.23,4.23 0 0 1 -4.2,-4.2 v -27.4 a 4.23,4.23 0 0 1 4.2,-4.2 h 90.2 a 4.23,4.23 0 0 1 4.2,4.2 V 505 a 4.23,4.23 0 0 1 -4.2,4.2 z"
       id="path15" />
    <path
       class="cls-5"
       d="m 651.4,483.1 h -20.8 a 1.54,1.54 0 0 1 -1.5,-1.5 v 0 a 1.54,1.54 0 0 1 1.5,-1.5 h 20.8 a 1.54,1.54 0 0 1 1.5,1.5 v 0 a 1.54,1.54 0 0 1 -1.5,1.5 z"
       id="path16" />
    <path
       class="cls-4"
       d="m 223.7,431.1 h -90.2 a 4.23,4.23 0 0 1 -4.2,-4.2 v -27.4 a 4.23,4.23 0 0 1 4.2,-4.2 h 90.2 a 4.23,4.23 0 0 1 4.2,4.2 v 27.4 a 4.1,4.1 0 0 1 -4.2,4.2 z"
       id="path17" />
    <path
       class="cls-5"
       d="m 189,404.9 h -20.8 a 1.54,1.54 0 0 1 -1.5,-1.5 v 0 a 1.54,1.54 0 0 1 1.5,-1.5 H 189 a 1.54,1.54 0 0 1 1.5,1.5 v 0 a 1.47,1.47 0 0 1 -1.5,1.5 z"
       id="path18" />
    <path
       class="cls-4"
       d="m 223.7,476.9 h -90.2 a 4.23,4.23 0 0 1 -4.2,-4.2 v -27.4 a 4.23,4.23 0 0 1 4.2,-4.2 h 90.2 a 4.23,4.23 0 0 1 4.2,4.2 v 27.4 a 4.1,4.1 0 0 1 -4.2,4.2 z"
       id="path19" />
    <path
       class="cls-5"
       d="m 189,450.7 h -20.8 a 1.54,1.54 0 0 1 -1.5,-1.5 v 0 a 1.54,1.54 0 0 1 1.5,-1.5 H 189 a 1.54,1.54 0 0 1 1.5,1.5 v 0 a 1.42,1.42 0 0 1 -1.5,1.5 z"
       id="path20" />
    <path
       class="cls-4"
       d="m 933.2,361.7 h -455 a 4.65,4.65 0 0 1 -4.6,-4.6 v -79.7 a 4.65,4.65 0 0 1 4.6,-4.6 h 455 a 4.65,4.65 0 0 1 4.6,4.6 v 79.7 a 4.59,4.59 0 0 1 -4.6,4.6 z"
       id="path21" />
    <path
       class="cls-4"
       d="m 933.2,460.6 h -455 a 4.65,4.65 0 0 1 -4.6,-4.6 v -79.7 a 4.65,4.65 0 0 1 4.6,-4.6 h 455 a 4.65,4.65 0 0 1 4.6,4.6 V 456 a 4.53,4.53 0 0 1 -4.6,4.6 z"
       id="path22" />
    <rect
       class="cls-4"
       x="504.29999"
       y="311.39999"
       width="9.8999996"
       height="50.299999"
       id="rect22" />
    <rect
       class="cls-4"
       x="514.09998"
       y="325.10001"
       width="10.3"
       height="36.599998"
       id="rect23" />
    <rect
       class="cls-4"
       x="802.59998"
       y="410.20001"
       width="9.8999996"
       height="50.299999"
       id="rect24" />
    <rect
       class="cls-4"
       x="812.5"
       y="423.89999"
       width="10.3"
       height="36.599998"
       id="rect25" />
    <rect
       class="cls-4"
       x="782.5"
       y="410.20001"
       width="9.8999996"
       height="50.299999"
       id="rect26" />
    <rect
       class="cls-6"
       x="745.20001"
       y="429.60999"
       width="50.299999"
       height="9.8999996"
       transform="rotate(-72.48,770.30411,434.57171)"
       id="rect27" />
    <rect
       class="cls-4"
       x="792.40002"
       y="423.89999"
       width="10.3"
       height="36.599998"
       id="rect28" />
    <rect
       class="cls-4"
       x="669.09998"
       y="311.39999"
       width="9.8999996"
       height="50.299999"
       id="rect29" />
    <rect
       class="cls-4"
       x="679"
       y="325.10001"
       width="10.3"
       height="36.599998"
       id="rect30" />
    <rect
       class="cls-4"
       x="571.29999"
       y="311.39999"
       width="9.8999996"
       height="50.299999"
       id="rect31" />
    <rect
       class="cls-6"
       x="533.98999"
       y="330.79999"
       width="50.299999"
       height="9.8999996"
       transform="rotate(-72.48,559.10932,335.75061)"
       id="rect32" />
    <rect
       class="cls-4"
       x="581.20001"
       y="325.10001"
       width="10.3"
       height="36.599998"
       id="rect33" />
    <path
       class="cls-5"
       d="m 812.4,318 1.1,-14.9 a 1.65,1.65 0 0 0 -1.7,-1.8 h -8.6 a 1.71,1.71 0 0 0 -1.7,1.8 l 1.1,14.9 c 0,0 -9,5.8 -8.9,10.6 0.1,3.7 2.3,21.4 3.3,29.2 a 4.32,4.32 0 0 0 4.3,3.8 h 12.4 a 4.32,4.32 0 0 0 4.3,-3.8 c 1,-7.8 3.2,-25.5 3.3,-29.2 0.1,-4.9 -8.9,-10.6 -8.9,-10.6 z"
       id="path33" />
    <path
       class="cls-5"
       d="m 772.5,318 1.1,-14.9 a 1.65,1.65 0 0 0 -1.7,-1.8 h -8.6 a 1.71,1.71 0 0 0 -1.7,1.8 l 1.1,14.9 c 0,0 -9,5.8 -8.9,10.6 0.1,3.7 2.3,21.4 3.3,29.2 a 4.32,4.32 0 0 0 4.3,3.8 h 12.4 a 4.32,4.32 0 0 0 4.3,-3.8 c 1,-7.8 3.2,-25.5 3.3,-29.2 0.1,-4.9 -8.9,-10.6 -8.9,-10.6 z"
       id="path34" />
    <line
       class="cls-4"
       x1="173.2"
       y1="555"
       x2="1129"
       y2="555"
       id="line34" />
  </g>
  <g
     class="cls-3"
     clip-path="url(#clip-path)"
     id="g38"
     transform="translate(-174.45773,-166.02996)">
    <polygon
       class="cls-7"
       points="261.1,565.2 261.1,685.5 269.2,685.5 271.8,565.2 "
       id="polygon34" />
    <polygon
       class="cls-8"
       points="271.8,565.2 261.1,565.2 261.1,578.3 271.5,578.3 "
       id="polygon35"
       style="fill:#127c71;fill-opacity:1" />
    <polygon
       class="cls-7"
       points="741.6,565.2 741.6,685.5 733.4,685.5 730.9,565.2 "
       id="polygon36" />
    <polygon
       class="cls-8"
       points="730.9,565.2 741.6,565.2 741.6,578.3 731.2,578.3 "
       id="polygon37"
       style="fill:#127c71;fill-opacity:1" />
    <polygon
       class="cls-9"
       points="776.2,560.3 226.5,560.3 285,534.7 717.6,534.7 "
       id="polygon38"
       style="fill:#fde6a8;fill-opacity:1" />
    <rect
       class="cls-7"
       x="226.5"
       y="560.29999"
       width="549.70001"
       height="7.6999998"
       id="rect38" />
  </g>
  <path
     class="cls-10"
     d="m 116.94227,335.37004 -12.7,7.3 a 4,4 0 0 1 -5.499995,-1.5 l -36.4,-62.8 a 4,4 0 0 1 1.5,-5.5 l 12.7,-7.3 a 4,4 0 0 1 5.5,1.5 l 36.399995,62.8 a 4.07,4.07 0 0 1 -1.5,5.5 z"
     id="path38" />
  <path
     class="cls-11"
     d="m 108.04227,326.47004 a 4,4 0 1 0 -1.5,5.5 4.07,4.07 0 0 0 1.5,-5.5 z"
     id="path39" />
  <line
     class="cls-12"
     x1="91.342262"
     y1="316.47003"
     x2="100.64228"
     y2="311.07004"
     id="line39" />
  <line
     class="cls-12"
     x1="88.742287"
     y1="312.07004"
     x2="98.142281"
     y2="306.67004"
     id="line40" />
  <path
     class="cls-9"
     d="m 136.14227,292.47004 -8.2,34.7 c -0.3,1 4.5,3.5 10.9,5.7 6.4,2.2 11.8,3.2 12.1,2.3 l 15.1,-32.3 z"
     id="path40"
     style="fill:#fde6a8;fill-opacity:1" />
  <path
     class="cls-13"
     d="m 158.24227,311.57004 5.6,1.9 a 4.26,4.26 0 0 1 2.4,6 l -4.7,9 a 4.24,4.24 0 0 1 -5.2,2 l -6.1,-2.1"
     id="path41" />
  <path
     class="cls-8"
     d="m 166.04227,302.97004 c -0.4,1.2 -7.5,-0.1 -15.7,-3 -8.2,-2.9 -14.6,-6.2 -14.2,-7.5 0.4,-1.3 7.5,0.1 15.7,3 8.2,2.9 14.6,6.2 14.2,7.5 z"
     id="path42"
     style="fill:#127c71;fill-opacity:1" />
  <path
     class="cls-11"
     d="m 219.24227,122.77004 -114.7,30.4 a 7,7 0 0 1 -8.799995,-6 l -14.3,-123.700004 a 4.74,4.74 0 0 1 5.1,-5.3 l 116.599995,8.1 a 7,7 0 0 1 6.5,6 l 13,85.200004 a 4.65,4.65 0 0 1 -3.4,5.3 z"
     id="path43" />
  <path
     class="cls-10"
     d="m 224.54227,123.17004 -115.9,30.7 a 7.16,7.16 0 0 1 -8.899995,-6.1 l -14.4,-125.000004 a 4.89,4.89 0 0 1 5.2,-5.4 l 117.899995,8.1 a 7.13,7.13 0 0 1 6.6,6 l 13.2,86.100004 a 5.27,5.27 0 0 1 -3.7,5.6 z"
     id="path44" />
  <path
     class="cls-8"
     d="m 133.84227,41.070036 -28.3,-0.4 a 1.09,1.09 0 0 1 -1.1,-1 l -0.4,-3.2 a 1.16,1.16 0 0 1 1.1,-1.3 l 28.4,0.8 a 1.09,1.09 0 0 1 1.1,1 l 0.4,2.9 a 1.22,1.22 0 0 1 -1.2,1.2 z"
     id="path45"
     style="fill:#127c71;fill-opacity:1" />
  <line
     class="cls-12"
     x1="105.84226"
     y1="51.670033"
     x2="160.64229"
     y2="50.970036"
     id="line45" />
  <line
     class="cls-12"
     x1="107.24229"
     y1="62.770039"
     x2="141.94228"
     y2="61.370029"
     id="line46" />
  <path
     class="cls-9"
     d="m 120.24227,131.17004 -3.3,0.7 a 1.21,1.21 0 0 1 -1.5,-1.1 l -3.3,-27.7 a 1.24,1.24 0 0 1 1.1,-1.4 l 3.3,-0.5 a 1.24,1.24 0 0 1 1.4,1.1 l 3.4,27.5 a 1.52,1.52 0 0 1 -1.1,1.4 z"
     id="path46"
     style="fill:#fde6a8;fill-opacity:1" />
  <path
     class="cls-8"
     d="m 131.94227,127.27004 -5.5,-44.000004 a 1.24,1.24 0 0 1 1.1,-1.4 l 2.8,-0.3 a 1.11,1.11 0 0 1 1.3,1.1 l 5.5,43.600004 a 1.28,1.28 0 0 1 -1,1.4 l -2.9,0.6 c -0.5,0.2 -1.2,-0.3 -1.3,-1 z"
     id="path47"
     style="fill:#127c71;fill-opacity:1" />
  <path
     class="cls-9"
     d="m 147.24227,123.97004 -2.1,-16.2 a 1.25,1.25 0 0 1 1,-1.4 l 2.4,-0.4 a 1.24,1.24 0 0 1 1.4,1.1 l 2.1,16.1 a 1.28,1.28 0 0 1 -1,1.4 l -2.4,0.5 a 1.19,1.19 0 0 1 -1.4,-1.1 z"
     id="path48"
     style="fill:#fde6a8;fill-opacity:1" />
  <path
     class="cls-14"
     d="m 164.84227,121.57004 -2.1,0.4 a 1.2,1.2 0 0 1 -1.5,-1 l -1.2,-8.7 a 1.25,1.25 0 0 1 1,-1.4 l 2.1,-0.4 a 1.19,1.19 0 0 1 1.4,1.1 l 1.2,8.7 a 1.13,1.13 0 0 1 -0.9,1.3 z"
     id="path49" />
  <path
     class="cls-8"
     d="m 205.64227,109.47004 -8.6,-19.300004 7.4,-17.1 c 3.4,3.6 5.9,9 6.9,15.1 1.1,8.7 -1.2,17.000004 -5.7,21.300004 z"
     id="path50"
     style="fill:#127c71;fill-opacity:1" />
  <path
     class="cls-14"
     d="m 204.34227,73.070036 -7.4,17.1 -14.5,-11.6 c 2.1,-5.9 6.2,-10 11.3,-10.3 3.8,-0.3 7.6,1.5 10.6,4.8 z"
     id="path51" />
  <path
     class="cls-9"
     d="m 205.64227,109.47004 a 11,11 0 0 1 -5.4,2.9 c -8.4,1.8 -17.1,-7.2 -18.9,-20.100004 a 30.88,30.88 0 0 1 1.1,-13.8 l 14.5,11.6 z"
     id="path52"
     style="fill:#fde6a8;fill-opacity:1" />
  <path
     class="cls-9"
     d="m 302.54227,24.270036 a 229.64,229.64 0 0 0 14.4,23.7 4.88,4.88 0 0 0 6.9,1.2 119.83,119.83 0 0 1 14.7,-8.5 5.45,5.45 0 0 0 2.6,-6.9 c -2.7,-6.3 -5.5,-14.7 -7.8,-22.1 a 16.59,16.59 0 0 0 -23.3,-9.8999998 v 0 a 16.53,16.53 0 0 0 -7.5,22.4999998 z"
     id="path53"
     style="fill:#fde6a8;fill-opacity:1" />
  <path
     class="cls-14"
     d="m 335.74227,35.170036 a 4.33,4.33 0 0 1 3.7,1.8 37.67,37.67 0 0 0 7.8,8.5 c 4.7,3.3 21.8,6.2 23.2,8.7 1.4,2.5 -2.7,3.3 -5.5,3 -2.8,-0.3 -5.2,-0.6 -5.8,0.6 -0.6,1.2 0.2,6.2 4.1,9.7 3.9,3.5 10.9,7.2 11.2,10.4 0.3,3.2 -7.6,0.1 -11.1,-2.1 -3.5,-2.2 -4.5,-2.6 -4.5,-2.6 0,0 -0.5,1 -3.3,2 -1.6,0.5 -3.3,-0.8 -4.8,-0.5 -1.5,0.3 -8.2,3.7 -11.4,2.1 -2.3,-1.2 -7.4,-12.8 -9.9,-15.9 -1.8,-2.3 -6.1,-8.9 -8.2,-12.2 a 4.12,4.12 0 0 1 -0.1,-4.4 16.75,16.75 0 0 1 14.6,-9.1 z"
     id="path54" />
  <path
     class="cls-15"
     d="m 358.74227,73.270036 a 29.25,29.25 0 0 1 -5.5,-3.6 11,11 0 0 1 -1.6,-2.2"
     id="path55" />
  <path
     class="cls-15"
     d="m 350.64227,74.670036 a 20.78,20.78 0 0 1 -3.3,-1.7 17.84,17.84 0 0 1 -2.2,-2.9"
     id="path56" />
  <path
     class="cls-15"
     d="m 344.84227,76.670036 a 11.08,11.08 0 0 1 -2.8,-1.6 24.58,24.58 0 0 1 -2.1,-2.4"
     id="path57" />
  <path
     class="cls-8"
     d="m 269.54227,103.37004 a 0.83,0.83 0 0 1 1.6,0 11.22,11.22 0 0 0 1.8,3.8 12.25,12.25 0 0 0 3.8,1.8 0.83,0.83 0 0 1 0,1.6 11.22,11.22 0 0 0 -3.8,1.8 12.25,12.25 0 0 0 -1.8,3.8 0.83,0.83 0 0 1 -1.6,0 11.22,11.22 0 0 0 -1.8,-3.8 12.25,12.25 0 0 0 -3.8,-1.8 0.83,0.83 0 0 1 0,-1.6 6.25,6.25 0 0 0 5.6,-5.6 z"
     id="path58"
     style="fill:#127c71;fill-opacity:1" />
  <path
     class="cls-8"
     d="m 281.64227,45.670036 a 0.63,0.63 0 0 1 1.2,0 7.51,7.51 0 0 0 1.3,2.7 8.48,8.48 0 0 0 2.7,1.3 0.62,0.62 0 0 1 0,1.2 7.51,7.51 0 0 0 -2.7,1.3 8.48,8.48 0 0 0 -1.3,2.7 0.63,0.63 0 0 1 -1.2,0 7.51,7.51 0 0 0 -1.3,-2.7 8.48,8.48 0 0 0 -2.7,-1.3 0.62,0.62 0 0 1 0,-1.2 4.54,4.54 0 0 0 4,-4 z"
     id="path59"
     style="fill:#127c71;fill-opacity:1" />
  <path
     class="cls-8"
     d="m 376.34227,95.370036 a 0.62,0.62 0 0 1 1.2,0 7.51,7.51 0 0 0 1.3,2.7 11.34,11.34 0 0 0 2.7,1.3 0.63,0.63 0 0 1 0,1.200004 7.51,7.51 0 0 0 -2.7,1.3 8.48,8.48 0 0 0 -1.3,2.7 0.63,0.63 0 0 1 -1.2,0 7.51,7.51 0 0 0 -1.3,-2.7 8.48,8.48 0 0 0 -2.7,-1.3 0.63,0.63 0 0 1 0,-1.200004 7.51,7.51 0 0 0 2.7,-1.3 6.17,6.17 0 0 0 1.3,-2.7 z"
     id="path60"
     style="fill:#127c71;fill-opacity:1" />
  <path
     class="cls-9"
     d="m 291.74227,78.270036 c 0.2,-0.5 0.8,-0.5 0.9,0 a 9.26,9.26 0 0 0 1,2.2 5,5 0 0 0 2.2,1 c 0.5,0.2 0.5,0.8 0,0.9 a 9.26,9.26 0 0 0 -2.2,1 5,5 0 0 0 -1,2.2 c -0.2,0.5 -0.8,0.5 -0.9,0 a 9.26,9.26 0 0 0 -1,-2.2 5,5 0 0 0 -2.2,-1 c -0.5,-0.2 -0.5,-0.8 0,-0.9 a 9.26,9.26 0 0 0 2.2,-1 7.66,7.66 0 0 0 1,-2.2 z"
     id="path61"
     style="fill:#fde6a8;fill-opacity:1" />
  <path
     class="cls-9"
     d="m 384.34227,122.07004 a 0.83,0.83 0 0 1 1.6,0 11.22,11.22 0 0 0 1.8,3.8 12.25,12.25 0 0 0 3.8,1.8 0.83,0.83 0 0 1 0,1.6 11.22,11.22 0 0 0 -3.8,1.8 12.25,12.25 0 0 0 -1.8,3.8 0.83,0.83 0 0 1 -1.6,0 11.22,11.22 0 0 0 -1.8,-3.8 12.25,12.25 0 0 0 -3.8,-1.8 0.83,0.83 0 0 1 0,-1.6 11.22,11.22 0 0 0 3.8,-1.8 13.5,13.5 0 0 0 1.8,-3.8 z"
     id="path62"
     style="fill:#fde6a8;fill-opacity:1" />
  <path
     class="cls-10"
     d="m 553.34227,102.17004 c 0,0 -1.4,1.4 1.2,12 a 59.48,59.48 0 0 0 8.5,18.7 18.42,18.42 0 0 0 5.3,-17.4 c -2.2,-11 -15,-13.3 -15,-13.3 z"
     id="path63" />
  <path
     class="cls-14"
     d="m 554.84227,133.37004 c 0,0 -2,0.6 -6.7,5.5 -4.7,4.9 -11.6,7.4 -19.8,11.1 -8.2,3.7 -12.2,-13.5 -10.1,-22.2 2.1,-8.7 11,-14.7 11,-14.7 l 17.5,2.4 c 0,0 5.8,-6.9 8.1,-2.4 2.3,4.5 2,14.6 0,20.3 z"
     id="path64" />
  <path
     class="cls-10"
     d="m 539.84227,165.27004 -59.6,13.7 a 4.82,4.82 0 0 1 -5.8,-3.6 l -16.9,-73.2 a 4.82,4.82 0 0 1 3.6,-5.800004 l 59.6,-13.7 a 4.82,4.82 0 0 1 5.8,3.6 l 16.8,73.200004 a 4.69,4.69 0 0 1 -3.5,5.8 z"
     id="path65" />
  <path
     class="cls-9"
     d="m 514.74227,103.67004 -38.8,8.9 a 2.31,2.31 0 0 1 -2.8,-1.8 v 0 a 2.31,2.31 0 0 1 1.8,-2.8 l 38.8,-8.900004 a 2.31,2.31 0 0 1 2.8,1.800004 v 0 a 2.53,2.53 0 0 1 -1.8,2.8 z"
     id="path66"
     style="fill:#fde6a8;fill-opacity:1" />
  <line
     class="cls-12"
     x1="475.84225"
     y1="122.87003"
     x2="519.24231"
     y2="112.87003"
     id="line66" />
  <line
     class="cls-12"
     x1="477.54227"
     y1="130.17004"
     x2="520.94232"
     y2="120.17005"
     id="line67" />
  <path
     class="cls-9"
     d="m 503.44227,158.97004 -16,3.7 a 2.31,2.31 0 0 1 -2.8,-1.8 l -3.7,-16 a 2.31,2.31 0 0 1 1.8,-2.8 l 16,-3.7 a 2.31,2.31 0 0 1 2.8,1.8 l 3.7,16 a 2.53,2.53 0 0 1 -1.8,2.8 z"
     id="path67"
     style="fill:#fde6a8;fill-opacity:1" />
  <line
     class="cls-12"
     x1="507.44229"
     y1="136.27002"
     x2="523.74231"
     y2="132.47003"
     id="line68" />
  <line
     class="cls-12"
     x1="509.24228"
     y1="144.17004"
     x2="525.64227"
     y2="140.47003"
     id="line69" />
  <line
     class="cls-12"
     x1="511.04227"
     y1="152.17004"
     x2="520.94232"
     y2="149.87003"
     id="line70" />
  <path
     class="cls-8"
     d="m 502.14227,89.270036 -21.2,4.9 a 2.11,2.11 0 0 1 -2.5,-2.5 l 0.2,-1 a 2.17,2.17 0 0 1 1.6,-1.6 l 20.3,-4.7 a 2.07,2.07 0 0 1 2.1,0.7 l 0.6,0.8 a 2.09,2.09 0 0 1 -1.1,3.4 z"
     id="path70"
     style="fill:#127c71;fill-opacity:1" />
  <path
     class="cls-14"
     d="m 548.14227,109.37004 c 0,0 -2.5,1.3 -7.3,0 -4.8,-1.3 -5.6,-2.5 -10.6,-3.8 -5,-1.3 -11.9,0.1 -13.1,2.2 -1.2,2.1 2,3.4 6.3,3.9 4.3,0.5 6.3,8.7 13.2,11.8 11.5,5.1 21.7,-10.5 11.5,-14.1 z"
     id="path71" />
  <path
     class="cls-15"
     d="m 517.14227,107.77004 c -1.2,2.1 2,3.4 6.3,3.9 4.3,0.5 6.3,8.7 13.2,11.8 a 11,11 0 0 0 6.8,0.8"
     id="path72" />
  <path
     class="cls-16"
     d="m 555.74227,104.77004 c 0,0 -5.3,3.4 -7.6,4.6 a 26.6,26.6 0 0 1 6.3,12.3 c 1.8,7.9 0.4,11.7 0.4,11.7 0,0 5.9,-0.6 8.8,-2.7 0,0 2.8,-4.6 0.5,-13.6 -2.3,-9 -8.4,-12.3 -8.4,-12.3 z"
     id="path73" />
  <path
     class="cls-8"
     d="m 618.54227,92.570036 a 20.15,20.15 0 0 0 -30.9,-10.7 222.29,222.29 0 0 1 -19,12.1 l -15.3,8.300004 c 0,0 8.7,8.6 10,18.1 1.3,9.5 -0.3,12.6 -0.3,12.6 0,0 23.9,-5.9 45,-16.2 a 20.5,20.5 0 0 0 10.5,-24.200004 z"
     id="path74"
     style="fill:#127c71;fill-opacity:1" />
  <path
     class="cls-10"
     d="m 561.04227,125.67004 a 1.2,1.2 0 1 0 -1.2,1.2 1.16,1.16 0 0 0 1.2,-1.2 z"
     id="path75" />
  <polygon
     class="cls-11"
     points="655.5,485.4 601.3,476.3 672,468 670.8,480.8 656.9,482.8 "
     id="polygon75"
     transform="translate(-174.45773,-166.02996)" />
  <path
     class="cls-10"
     d="m 481.04227,317.97004 18.4,-72.9 a 6.41,6.41 0 0 1 5.3,-4.8 l 94.5,-14.1 a 2.82,2.82 0 0 1 3.1,3.6 l -19.3,65.3 a 6.62,6.62 0 0 1 -4.8,4.5 l -93.9,21.9 a 2.84,2.84 0 0 1 -3.3,-3.5 z"
     id="path76" />
  <path
     class="cls-11"
     d="m 553.34227,271.37004 c -1,3.6 -4.3,7.1 -7.6,7.8 -3.3,0.7 -5.1,-1.7 -4.1,-5.3 1,-3.6 4.3,-7.1 7.6,-7.8 3.3,-0.7 5.1,1.7 4.1,5.3 z"
     id="path77" />
  <path
     class="cls-10"
     d="m 482.44227,321.17004 c -0.3,-0.2 -41.3,-5.6 -52.7,-7.2 a 3.26,3.26 0 0 1 -2.9,-3.3 v -0.4 l 55.6,6.5 z"
     id="path78" />
  <path
     class="cls-17"
     d="m 568.44227,183.77004 h 30.8 a 2.53,2.53 0 0 1 2.5,2.7 l -1.6,19.3 a 3.43,3.43 0 0 1 -3.1,3.2 l -31,3.4 a 2.44,2.44 0 0 1 -2.7,-2.6 l 1.7,-22.7 a 3.35,3.35 0 0 1 3.4,-3.3 z"
     id="path79" />
  <path
     class="cls-17"
     d="m 566.44227,184.47004 18,9.7 a 3.54,3.54 0 0 0 3.7,-0.3 l 12.8,-9.4"
     id="path80" />
  <path
     class="cls-10"
     d="m 395.34227,86.470036 -3.2,3.5 a 1.52,1.52 0 0 0 0,2 v 0 a 1.53,1.53 0 0 0 1.8,0.3 l 3.8,-2.3 z"
     id="path81" />
  <path
     class="cls-10"
     d="m 424.54227,94.970036 0.9,4.7 a 1.55,1.55 0 0 1 -1,1.700004 v 0 a 1.38,1.38 0 0 1 -1.7,-0.8 l -2,-4.000004 z"
     id="path82" />
  <circle
     class="cls-8"
     cx="413.84225"
     cy="77.270042"
     r="21.799999"
     id="circle82"
     style="fill:#127c71;fill-opacity:1" />
  <circle
     class="cls-9"
     cx="325.40637"
     cy="267.06705"
     r="14"
     transform="rotate(-28.8)"
     id="circle83"
     style="fill:#fde6a8;fill-opacity:1" />
  <polyline
     class="cls-12"
     points="592.2 248.3 588.3 243.3 590.4 236.3"
     id="polyline83"
     transform="translate(-174.45773,-166.02996)" />
  <path
     class="cls-8"
     d="m 399.94227,56.170036 a 1.16,1.16 0 0 1 -1.5,-0.8 6.34,6.34 0 0 1 11.6,-4.4 1.07,1.07 0 0 1 -0.6,1.6 z"
     id="path83"
     style="fill:#127c71;fill-opacity:1" />
  <path
     class="cls-8"
     d="m 436.84227,66.970036 a 1.15,1.15 0 0 0 1.7,0.1 6.31,6.31 0 0 0 -7.4,-9.9 1.08,1.08 0 0 0 -0.4,1.6 z"
     id="path84"
     style="fill:#127c71;fill-opacity:1" />
  <path
     class="cls-8"
     d="m 423.74227,53.870036 -5.7,-1.6 a 1.77,1.77 0 0 1 -1.2,-2.2 v 0 a 1.77,1.77 0 0 1 2.2,-1.2 l 5.7,1.6 a 1.77,1.77 0 0 1 1.2,2.2 v 0 a 1.81,1.81 0 0 1 -2.2,1.2 z"
     id="path85"
     style="fill:#127c71;fill-opacity:1" />
  <rect
     class="cls-8"
     x="61.960869"
     y="416.77695"
     width="5.5999999"
     height="4.3000002"
     transform="rotate(-73.8)"
     id="rect85"
     style="fill:#127c71;fill-opacity:1" />
  <path
     class="cls-10"
     d="m 181.14227,222.67004 0.9,9.2 a 2.16,2.16 0 0 1 -1.3,2.2 7.22,7.22 0 0 0 -4.2,7.2 l 1.1,10.2 a 7,7 0 0 0 5.6,6.2 2.24,2.24 0 0 1 1.7,1.9 l 0.9,9.2 a 2.11,2.11 0 0 1 -3.1,2.1 l -2.2,-1.1 a 15.78,15.78 0 0 1 -8.6,-12.6 l -2.1,-20.3 a 16,16 0 0 1 5.9,-14.1 l 2,-1.6 a 2.14,2.14 0 0 1 3.4,1.5 z"
     id="path86" />
  <path
     class="cls-18"
     d="m 227.84227,28.370036 c 1.8,12.2 -5,23.3 -16.4,24.9 -13.1,1.8 -26.8,-9.5 -28.6,-25.1 -1.7,-15.3 9,-25.7999998 22.1,-23.9999998 11.5,1.6 21.2,12.1999998 22.9,24.1999998 z"
     id="path87"
     style="fill:#ffaf35;fill-opacity:1" />
  <path
     class="cls-9"
     d="m 232.54227,26.270036 c 1.8,12.6 -5.1,24.1 -16.9,25.7 -13.6,1.9 -27.7,-9.8 -29.5,-25.9 -1.8,-15.8 9.3,-26.59999978 22.8,-24.7999998 11.8,1.7 21.8,12.6999998 23.6,24.9999998 z"
     id="path88"
     style="fill:#fde6a8;fill-opacity:1" />
  <path
     class="cls-10"
     d="m 216.14227,19.270036 c 0.4,3.1 -1.5,5.5 -4.3,5.5 -2.8,0 -5.7,-2.7 -6.1,-5.9 -0.4,-3.2 1.7,-5.6 4.6,-5.4 a 6.79,6.79 0 0 1 5.8,5.8 z"
     id="path89" />
  <path
     class="cls-10"
     d="m 218.84227,38.870036 -10.3,0.7 c -2.5,0.2 -4.8,-1.9 -5.2,-4.7 v 0 c -0.8,-6.1 3.2,-10.9 8.5,-10.8 v 0 c 5,0.1 9.5,4.6 10.3,10 v 0 c 0.2,2.6 -1.2,4.7 -3.3,4.8 z"
     id="path90" />
  <path
     class="cls-10"
     d="m 540.34227,206.57004 a 4,4 0 1 0 -0.3,5.6 3.88,3.88 0 0 0 0.3,-5.6 z"
     id="path91" />
  <path
     class="cls-8"
     d="m 535.14227,197.47004 -0.7,-0.8 a 6.28,6.28 0 0 0 -8.8,-0.4 v 0 a 6.28,6.28 0 0 0 -0.4,8.8 l 0.7,0.8 a 7.26,7.26 0 0 1 1.7,3.1 c 0.2,0.9 0.5,1.9 0.7,2.9 a 2.91,2.91 0 0 0 4.8,1.4 l 4.4,-4 4.4,-4 a 2.92,2.92 0 0 0 -1,-4.9 c -1,-0.3 -1.9,-0.7 -2.8,-1 a 6.72,6.72 0 0 1 -3,-1.9 z"
     id="path92"
     style="fill:#127c71;fill-opacity:1" />
  <path
     class="cls-10"
     d="m 455.74227,213.17004 a 74,74 0 0 1 0,25.2 l 32.4,-7 c 0,0 -7.2,-12 -9.1,-23 z"
     id="path93" />
  <line
     class="cls-12"
     x1="456.44229"
     y1="218.37003"
     x2="480.24228"
     y2="213.37003"
     id="line93" />
  <line
     class="cls-12"
     x1="462.04227"
     y1="223.07004"
     x2="477.44229"
     y2="219.37003"
     id="line94" />
  <line
     class="cls-12"
     x1="462.34225"
     y1="227.87003"
     x2="472.64224"
     y2="225.47003"
     id="line95" />
  <path
     class="cls-8"
     d="m 532.34227,323.17004 21.8,-4.9 c 0,0 0.3,10 15.7,15.9 0,0 -17.1,13 -22.4,16.4 0.1,-0.1 -12.7,-6.7 -15.1,-27.4 z"
     id="path95"
     style="fill:#127c71;fill-opacity:1" />
  <line
     class="cls-19"
     x1="533.64227"
     y1="329.77002"
     x2="555.5423"
     y2="322.67004"
     id="line96" />
  <line
     class="cls-19"
     x1="540.84229"
     y1="333.87003"
     x2="554.5423"
     y2="327.57004"
     id="line97" />
  <line
     class="cls-19"
     x1="543.14227"
     y1="338.07004"
     x2="556.84229"
     y2="330.67004"
     id="line98" />
  <line
     class="cls-19"
     x1="546.14227"
     y1="342.07004"
     x2="554.0423"
     y2="337.27002"
     id="line99" />
  <path
     class="cls-5"
     d="m 186.54227,167.27004 a 16.55,16.55 0 0 1 -5.7,0.2 l 1.8,-2.8 c -3.9,0.1 -13.3,-5 -14.3,-9.7 a 2.79,2.79 0 0 1 0.1,-1.6 v 0 -0.1 c 1.5,-3 9.4,-2.3 15.2,3.4 6.9,6.7 2.9,10.6 2.9,10.6 z"
     id="path99" />
  <path
     class="cls-8"
     d="m 182.74227,164.67004 -1.8,2.8 a 22.15,22.15 0 0 1 -8,-2.7 14.25,14.25 0 0 1 -6.5,-6.9 c 1.1,-2.5 1.9,-4.2 2.1,-4.6 a 2.86,2.86 0 0 0 -0.1,1.6 c 1,4.8 10.4,9.9 14.3,9.8 z"
     id="path100"
     style="fill:#127c71;fill-opacity:1" />
  <path
     class="cls-14"
     d="m 127.14227,194.97004 c 0,0 4.6,2.1 8.9,1.5 4.3,-0.6 12.7,-3 14.4,-2.1 1.7,0.9 4.6,1 3.7,3.9 -0.9,2.9 -2.6,6.3 -6.4,6.5 -3.8,0.2 -7.6,3.2 -13.9,1.4 -6.3,-1.8 -10,-2.7 -10.2,-5.2 -0.2,-2.5 3.5,-6 3.5,-6 z"
     id="path101" />
  <path
     class="cls-16"
     d="m 186.54227,167.27004 c -1.6,4.7 -22.5,32.2 -32.4,46.6 -9.9,14.4 -26.7,55.2 -35.1,53.5 -8.4,-1.7 -18.8,-9.9 -17,-14.6 1.8,-4.7 23.1,-18.1 39.3,-41.2 16.2,-23.1 15.8,-39.1 20.7,-52.2 2.1,-5.6 3.6,-5.2 3.6,-5.2 a 10.35,10.35 0 0 0 0.7,3.8 13.35,13.35 0 0 0 6.5,6.9 22.15,22.15 0 0 0 8,2.7 14.9,14.9 0 0 0 5.7,-0.3 z"
     id="path102" />
  <path
     class="cls-4"
     d="m 150.54227,208.67004 c 0,0 4,-7.4 5,-11.9"
     id="path103" />
  <path
     class="cls-4"
     d="m 154.34227,209.67004 c 0,0 2.7,-5.1 4.1,-6.4"
     id="path104" />
  <path
     class="cls-4"
     d="m 139.64227,229.07004 a 64.33,64.33 0 0 1 -4,8.5"
     id="path105" />
  <path
     class="cls-4"
     d="m 134.04227,227.67004 a 52.36,52.36 0 0 1 -10.4,11.2"
     id="path106" />
  <path
     class="cls-14"
     d="m 142.54227,201.17004 a 80.36,80.36 0 0 0 9.7,5.4 c 3.6,1.4 8.2,-0.1 8.6,-0.1 0.4,0 2.3,3 0.6,5.1 -1.7,2.1 -3.6,2.4 -3.8,3.1 -0.2,0.7 0.3,4.7 -0.8,6.1 -1.1,1.4 -3.2,2.2 -3.9,3.1 -0.7,0.9 -1.4,5.4 -2.5,6.1 -1.1,0.7 -2.5,3 -5.3,3.4 -2.8,0.4 -13.8,-4 -24,-11.9 a 56.21,56.21 0 0 0 -10.7,-6.8 c 0,0 4.5,-19.7 12.7,-17.9 8.2,1.8 19.4,4.4 19.4,4.4 z"
     id="path107" />
  <path
     class="cls-15"
     d="m 142.54227,201.17004 a 80.36,80.36 0 0 0 9.7,5.4 c 3.6,1.4 8.2,-0.1 8.6,-0.1"
     id="path108" />
  <path
     class="cls-8"
     d="m 117.84227,188.37004 a 1.92,1.92 0 0 1 2.4,0.1 c 1.3,1 6.2,4.9 6.8,6.5 0.6,1.6 -2.7,11.5 -8,17.6 -5.3,6.1 -8.1,6.1 -8.4,6 -0.3,-0.1 -7.7,-3.5 -8.7,-4.8 a 3.26,3.26 0 0 1 -0.6,-2.7 c 0,0 14.1,-22.8 16.5,-22.7 z"
     id="path109"
     style="fill:#127c71;fill-opacity:1" />
  <path
     class="cls-9"
     d="m 53.142275,153.77004 a 20.45,20.45 0 0 0 1.9,27.9 c 2.3,2.1 4.9,4.5 7.8,7.1 15.6,14 39.799995,22.7 39.799995,22.7 13.2,-6.1 15.2,-23.1 15.2,-23.1 -11.9,-7.5 -23.699995,-21.5 -32.399995,-33.7 a 20.44,20.44 0 0 0 -32.3,-0.9 z"
     id="path110"
     style="fill:#fde6a8;fill-opacity:1" />
  <path
     class="cls-15"
     d="m 157.74227,214.77004 a 18.67,18.67 0 0 1 -4.4,1.5 25.35,25.35 0 0 1 -4.1,0"
     id="path111" />
  <path
     class="cls-15"
     d="m 153.54227,223.57004 a 6.85,6.85 0 0 1 -2.9,1.3 5.57,5.57 0 0 1 -3.1,-0.6"
     id="path112" />
  <path
     class="cls-15"
     d="m 149.64227,230.87004 c 0,0 -2.4,0.8 -3.7,-0.4"
     id="path113" />
  <path
     class="cls-10"
     d="m 418.14227,329.97004 c -19.1,0.4 -49.1,7.6 -67.3,15 a 312.15,312.15 0 0 0 -30.5,14.3 c 0,0 4.3,-2.4 9.4,7.4 5.1,9.8 3.3,21.2 3.3,21.2 2.6,-0.7 64.6,-2.6 84.4,-5.2 19.8,-2.6 42.7,-9.8 41.3,-29.1 -1.4,-19.3 -18.4,-24.6 -41.7,-28.9 -23.3,-4.3 -36.3,-2.5 -37.7,-2.9 a 18.49,18.49 0 0 1 -8.3,-5.1 c -2.4,-2.9 -4.9,-10.8 -4.9,-10.8 0,0 -60.4,-3.8 -66.5,6.4 -6.1,10.2 21.3,39.4 21.3,39.4 z"
     id="path114" />
  <path
     class="cls-10"
     d="m 274.14227,304.67004 c 0,0 -3.3,7.2 -4.5,9.8 -1.2,2.6 -28.9,3.6 -41.3,3.8 -12.4,0.2 -36.7,5.2 -38.6,23.1 -2.2,20.4 14.9,29.9 45.4,32.1 34.3,2.5 66.1,1.7 72.8,2.4 6.7,0.7 25.2,-7.6 27.3,-15.3 2.1,-7.7 31.2,-13.6 31.2,-13.6 0,0 6.4,-32 -4.1,-38.4 -10.5,-6.4 -88.2,-3.9 -88.2,-3.9 z"
     id="path115" />
  <path
     class="cls-12"
     d="m 335.24227,353.37004 c 0,0 -56.8,-32.7 -101.9,-30.8"
     id="path116" />
  <path
     class="cls-10"
     d="m 320.34227,359.37004 c 0,0 -2.8,1.2 -1.2,10.8 1.6,9.6 10.4,19.8 13.9,17.8 3.5,-2 1.7,-19.4 -2.3,-25.2 -4,-5.8 -10.4,-3.4 -10.4,-3.4 z"
     id="path117" />
  <path
     class="cls-8"
     d="m 313.84227,362.57004 c 0,0 -5.5,6.7 -8,8.6 -2.5,1.9 -13.7,2.7 -17.8,9.1 -4.1,6.4 5.3,21.1 12.9,18.7 -2.1,1.3 -3.9,2.5 -5.3,3.4 -6.8,4.6 -19.2,11.5 -28,1.4 -7.4,-8.6 -4.8,-19 0.6,-25.9 5.4,-6.9 19.3,-7.7 22.5,-8.6 3.2,-0.9 10.5,-6.2 13.7,-8.1 2.7,-1.6 4.7,0.5 9.4,1.4 z"
     id="path118"
     style="fill:#127c71;fill-opacity:1" />
  <path
     class="cls-14"
     d="m 333.24227,384.67004 c -0.4,0.1 -7.6,1.3 -10.6,1.9 -2.4,0.5 -13.8,7.2 -21.8,12.3 -7.6,2.4 -17,-12.3 -12.9,-18.7 4.1,-6.4 15.3,-7.2 17.8,-9.1 2.5,-1.9 8,-8.6 8,-8.6 l 2.3,0.3 c 6.4,0.5 9.7,-1.7 9.7,-1.7 a 19.08,19.08 0 0 1 3.8,5.5 c 3.6,6.7 3.9,14 3.7,18.1 z"
     id="path119" />
  <path
     class="cls-12"
     d="m 418.14227,329.97004 c -19.1,0.4 -49.1,7.6 -67.3,15 a 312.15,312.15 0 0 0 -30.5,14.3"
     id="path120" />
  <path
     class="cls-12"
     d="m 193.84227,331.37004 a 7.16,7.16 0 0 1 5.5,-0.1 c 5.4,1.8 7.2,13.7 4.5,21.1 -2.7,7.4 -8.7,7.1 -10.7,5"
     id="path121" />
  <path
     class="cls-12"
     d="m 455.24227,342.07004 c 0,0 -5,-5.7 -10.9,1.4 -6.5,7.7 -3.1,20.7 2.1,23.8 5.2,3.1 8.2,0 8.2,0"
     id="path122" />
  <path
     class="cls-19"
     d="m 236.94227,200.97004 a 1.1,1.1 0 1 1 -1.1,-1.1 1.11,1.11 0 0 1 1.1,1.1 z"
     id="path123" />
  <path
     class="cls-14"
     d="m 258.74227,182.27004 c -2.1,7 -4.3,10 -4.1,16.4 a 22.61,22.61 0 0 1 -21.1,-4.2 c 0.6,-2.7 0.9,-4.8 0.5,-6.1 -1.2,-4.8 -7.7,-7 -12.2,-13 -4.5,-6 -4.9,-16.6 -2.7,-17.9 1,-0.6 2,-0.4 3.5,4.6 a 29.61,29.61 0 0 0 2.5,5.9 c -2.1,-4.8 -3,-20.6 2.8,-18.2 1.9,0.8 -0.3,4.2 2,10.3 a 15.39,15.39 0 0 0 6,8 12.89,12.89 0 0 1 1.9,-8.4 c 2.2,-3.1 7.8,-6.6 8.8,-3.3 1,3.3 -4,4.4 -4.4,8.5 -0.6,4.9 4.9,8.7 8.6,5.5 3.7,-3.2 1.6,-6.8 0,-9.1 -1.6,-2.3 -4.1,-5.1 -2.3,-6.4 1.8,-1.3 6.3,0.2 9.5,5.7 3.2,5.5 2.8,14.7 0.7,21.7 z"
     id="path124" />
  <path
     class="cls-8"
     d="m 279.04227,253.97004 c 0,0 -22.5,28.4 -37.3,34.8 -14.8,6.4 -24.8,1.9 -27.7,-13.6 -2.9,-15.5 6.3,-43.2 10.3,-53.4 2.9,-7.6 7.5,-19.6 9.2,-27.2 a 23,23 0 0 0 21.1,4.2 c 0.1,6.1 -2.7,28.6 -3,30.7 0.1,-0.7 1.3,-4 9.7,-15.8 9.7,-13.5 19.4,-19.4 19.4,-19.4 0,0 8.2,3.9 10.6,22.2 2.4,18.3 -12.3,37.5 -12.3,37.5 z"
     id="path125"
     style="fill:#127c71;fill-opacity:1" />
  <path
     class="cls-19"
     d="m 251.64227,229.47004 c 0,0 -0.9,25.6 -4.2,33.9"
     id="path126" />
  <path
     class="cls-15"
     d="m 235.84227,168.17004 a 11.53,11.53 0 0 0 1.6,4.4"
     id="path127" />
  <path
     class="cls-19"
     d="m 231.24227,202.47004 c 0,0 5.7,8.2 22.8,5.8"
     id="path128" />
  <path
     class="cls-19"
     d="m 216.94227,283.87004 c 0,0 -2.6,-8.9 7,-11 9.6,-2.1 21.3,11.8 13.9,17.3"
     id="path129" />
  <path
     class="cls-15"
     d="m 225.04227,168.17004 a 18,18 0 0 0 3.5,4.9 c 1,1 2.4,2 3,3.3"
     id="path130" />
  <path
     class="cls-10"
     d="m 344.44227,107.67004 c 11.4,2.9 16.8,9.4 16.3,25.8 -0.5,16.4 -2.7,22.3 5.1,31.4 7.8,9.1 9.9,21.9 -4.9,30 -14.8,8.1 -47.2,10.2 -63.3,0 -16.1,-10.2 -18,-21.1 -13.2,-31.8 4.8,-10.7 17.6,-17.7 14.8,-25.4 -2.8,-7.7 0.6,0.7 0.6,0.7 a 21.64,21.64 0 0 1 -7.7,-18.3 c 0.6,-12.2 15.6,-16.8 23.4,-17.2 4,-0.2 8.3,2.3 14.2,3.3 5.9,0.8 11.8,0.8 14.7,1.5 z"
     id="path131" />
  <path
     class="cls-9"
     d="m 320.54227,185.47004 c 0,0 -21.6,1.2 -34.2,5.7 -12.6,4.5 -10.3,14.5 -11.9,25 -1.6,10.5 -11.9,21.2 -6.7,35.5 5.2,14.3 10.3,22.4 7.6,33.4 -2.7,11 -5.2,16.5 -4.8,19.6 0.4,3.1 14.8,12.6 20.3,14.5 5.5,1.9 16.2,-5.7 16.2,-5.7 0,0 5.5,7.2 13.5,8.8 8,1.6 40.4,-6.7 47.8,-15 a 51.86,51.86 0 0 1 -5,-20.5 c -0.2,-11.2 6.3,-25.1 8.7,-32.8 2.4,-7.7 15.9,-37.4 10.6,-47.3 -3.8,-7.1 -32.2,-23.1 -62.1,-21.2 z"
     id="path132"
     style="fill:#fde6a8;fill-opacity:1" />
  <g
     class="cls-20"
     clip-path="url(#clip-path-3)"
     id="g195"
     transform="translate(-174.45773,-166.02996)">
    <path
       class="cls-18"
       d="m 440.6,482.6 1,1.2 a 2,2 0 0 1 -0.3,2.8 l -1.2,1 a 2,2 0 0 1 -2.8,-0.3 l -1,-1.2 a 2,2 0 0 1 0.3,-2.8 l 1.2,-1 a 1.94,1.94 0 0 1 2.8,0.3 z"
       id="path133"
       style="fill:#ffaf35;fill-opacity:1" />
    <path
       class="cls-18"
       d="m 442.7,464.5 1,1.2 a 2,2 0 0 1 -0.3,2.8 l -1.2,1 a 2,2 0 0 1 -2.8,-0.3 l -1,-1.2 a 2,2 0 0 1 0.3,-2.8 l 1.2,-1 a 2,2 0 0 1 2.8,0.3 z"
       id="path134"
       style="fill:#ffaf35;fill-opacity:1" />
    <path
       class="cls-18"
       d="m 444.9,446.5 1,1.2 a 2,2 0 0 1 -0.3,2.8 l -1.2,1 a 2,2 0 0 1 -2.8,-0.3 l -1,-1.2 a 2,2 0 0 1 0.3,-2.8 l 1.2,-1 a 1.87,1.87 0 0 1 2.8,0.3 z"
       id="path135"
       style="fill:#ffaf35;fill-opacity:1" />
    <path
       class="cls-18"
       d="m 447,428.4 1,1.2 a 2,2 0 0 1 -0.3,2.8 l -1.2,1 a 2,2 0 0 1 -2.8,-0.3 l -1,-1.2 a 2,2 0 0 1 0.3,-2.8 l 1.2,-1 a 2,2 0 0 1 2.8,0.3 z"
       id="path136"
       style="fill:#ffaf35;fill-opacity:1" />
    <path
       class="cls-18"
       d="m 449.1,410.3 1,1.2 a 2,2 0 0 1 -0.3,2.8 l -1.2,1 a 2,2 0 0 1 -2.8,-0.3 l -1,-1.2 a 2,2 0 0 1 0.3,-2.8 l 1.2,-1 a 2,2 0 0 1 2.8,0.3 z"
       id="path137"
       style="fill:#ffaf35;fill-opacity:1" />
    <path
       class="cls-18"
       d="m 456.9,484.5 1,1.2 a 2,2 0 0 1 -0.3,2.8 l -1.2,1 a 2,2 0 0 1 -2.8,-0.3 l -1,-1.2 a 2,2 0 0 1 0.3,-2.8 l 1.2,-1 a 1.94,1.94 0 0 1 2.8,0.3 z"
       id="path138"
       style="fill:#ffaf35;fill-opacity:1" />
    <path
       class="cls-18"
       d="m 459,466.4 1,1.2 a 2,2 0 0 1 -0.3,2.8 l -1.2,1 a 2,2 0 0 1 -2.8,-0.3 l -1,-1.2 a 2,2 0 0 1 0.3,-2.8 l 1.2,-1 a 2,2 0 0 1 2.8,0.3 z"
       id="path139"
       style="fill:#ffaf35;fill-opacity:1" />
    <path
       class="cls-18"
       d="m 461.1,448.4 1,1.2 a 2,2 0 0 1 -0.3,2.8 l -1.2,1 a 2,2 0 0 1 -2.8,-0.3 l -1,-1.2 a 2,2 0 0 1 0.3,-2.8 l 1.2,-1 a 1.93,1.93 0 0 1 2.8,0.3 z"
       id="path140"
       style="fill:#ffaf35;fill-opacity:1" />
    <path
       class="cls-18"
       d="m 463.3,430.3 1,1.2 a 2,2 0 0 1 -0.3,2.8 l -1.2,1 A 2,2 0 0 1 460,435 l -1,-1.2 a 2,2 0 0 1 0.3,-2.8 l 1.2,-1 a 2,2 0 0 1 2.8,0.3 z"
       id="path141"
       style="fill:#ffaf35;fill-opacity:1" />
    <path
       class="cls-18"
       d="m 465.4,412.2 1,1.2 a 2,2 0 0 1 -0.3,2.8 l -1.2,1 a 2,2 0 0 1 -2.8,-0.3 l -1,-1.2 a 2,2 0 0 1 0.3,-2.8 l 1.2,-1 a 2,2 0 0 1 2.8,0.3 z"
       id="path142"
       style="fill:#ffaf35;fill-opacity:1" />
    <path
       class="cls-18"
       d="m 473.2,486.4 1,1.2 a 2,2 0 0 1 -0.3,2.8 l -1.2,1 a 2,2 0 0 1 -2.8,-0.3 l -1,-1.2 a 2,2 0 0 1 0.3,-2.8 l 1.2,-1 a 2,2 0 0 1 2.8,0.3 z"
       id="path143"
       style="fill:#ffaf35;fill-opacity:1" />
    <path
       class="cls-18"
       d="m 475.3,468.3 1,1.2 a 2,2 0 0 1 -0.3,2.8 l -1.2,1 A 2,2 0 0 1 472,473 l -1,-1.2 a 2,2 0 0 1 0.3,-2.8 l 1.2,-1 a 2,2 0 0 1 2.8,0.3 z"
       id="path144"
       style="fill:#ffaf35;fill-opacity:1" />
    <path
       class="cls-18"
       d="m 477.4,450.3 1,1.2 a 2,2 0 0 1 -0.3,2.8 l -1.2,1 a 2,2 0 0 1 -2.8,-0.3 l -1,-1.2 a 2,2 0 0 1 0.3,-2.8 l 1.2,-1 a 1.94,1.94 0 0 1 2.8,0.3 z"
       id="path145"
       style="fill:#ffaf35;fill-opacity:1" />
    <path
       class="cls-18"
       d="m 479.5,432.2 1,1.2 a 2,2 0 0 1 -0.3,2.8 l -1.2,1 a 2,2 0 0 1 -2.8,-0.3 l -1,-1.2 a 2,2 0 0 1 0.3,-2.8 l 1.2,-1 a 1.94,1.94 0 0 1 2.8,0.3 z"
       id="path146"
       style="fill:#ffaf35;fill-opacity:1" />
    <path
       class="cls-18"
       d="m 481.6,414.1 1,1.2 a 2,2 0 0 1 -0.3,2.8 l -1.2,1 a 2,2 0 0 1 -2.8,-0.3 l -1,-1.2 a 2,2 0 0 1 0.3,-2.8 l 1.2,-1 a 2,2 0 0 1 2.8,0.3 z"
       id="path147"
       style="fill:#ffaf35;fill-opacity:1" />
    <path
       class="cls-18"
       d="m 489.4,488.3 1,1.2 a 2,2 0 0 1 -0.3,2.8 l -1.2,1 a 2,2 0 0 1 -2.8,-0.3 l -1,-1.2 a 2,2 0 0 1 0.3,-2.8 l 1.2,-1 a 2,2 0 0 1 2.8,0.3 z"
       id="path148"
       style="fill:#ffaf35;fill-opacity:1" />
    <path
       class="cls-18"
       d="m 491.6,470.3 1,1.2 a 2,2 0 0 1 -0.3,2.8 l -1.2,1 a 2,2 0 0 1 -2.8,-0.3 l -1,-1.2 a 2,2 0 0 1 0.3,-2.8 l 1.2,-1 a 1.87,1.87 0 0 1 2.8,0.3 z"
       id="path149"
       style="fill:#ffaf35;fill-opacity:1" />
    <path
       class="cls-18"
       d="m 493.7,452.2 1,1.2 a 2,2 0 0 1 -0.3,2.8 l -1.2,1 a 2,2 0 0 1 -2.8,-0.3 l -1,-1.2 a 2,2 0 0 1 0.3,-2.8 l 1.2,-1 a 2,2 0 0 1 2.8,0.3 z"
       id="path150"
       style="fill:#ffaf35;fill-opacity:1" />
    <path
       class="cls-18"
       d="m 495.8,434.1 1,1.2 a 2,2 0 0 1 -0.3,2.8 l -1.2,1 a 2,2 0 0 1 -2.8,-0.3 l -1,-1.2 a 2,2 0 0 1 0.3,-2.8 l 1.2,-1 a 2,2 0 0 1 2.8,0.3 z"
       id="path151"
       style="fill:#ffaf35;fill-opacity:1" />
    <path
       class="cls-18"
       d="m 497.9,416.1 1,1.2 a 2,2 0 0 1 -0.3,2.8 l -1.2,1 a 2,2 0 0 1 -2.8,-0.3 l -1,-1.2 a 2,2 0 0 1 0.3,-2.8 l 1.2,-1 a 1.87,1.87 0 0 1 2.8,0.3 z"
       id="path152"
       style="fill:#ffaf35;fill-opacity:1" />
    <path
       class="cls-18"
       d="m 505.7,490.2 1,1.2 a 2,2 0 0 1 -0.3,2.8 l -1.2,1 a 2,2 0 0 1 -2.8,-0.3 l -1,-1.2 a 2,2 0 0 1 0.3,-2.8 l 1.2,-1 a 2,2 0 0 1 2.8,0.3 z"
       id="path153"
       style="fill:#ffaf35;fill-opacity:1" />
    <path
       class="cls-18"
       d="m 507.8,472.2 1,1.2 a 2,2 0 0 1 -0.3,2.8 l -1.2,1 a 2,2 0 0 1 -2.8,-0.3 l -1,-1.2 a 2,2 0 0 1 0.3,-2.8 l 1.2,-1 a 1.87,1.87 0 0 1 2.8,0.3 z"
       id="path154"
       style="fill:#ffaf35;fill-opacity:1" />
    <path
       class="cls-18"
       d="m 509.9,454.1 1,1.2 a 2,2 0 0 1 -0.3,2.8 l -1.2,1 a 2,2 0 0 1 -2.8,-0.3 l -1,-1.2 a 2,2 0 0 1 0.3,-2.8 l 1.2,-1 a 1.93,1.93 0 0 1 2.8,0.3 z"
       id="path155"
       style="fill:#ffaf35;fill-opacity:1" />
    <path
       class="cls-18"
       d="m 512.1,436 1,1.2 a 2,2 0 0 1 -0.3,2.8 l -1.2,1 a 2,2 0 0 1 -2.8,-0.3 l -1,-1.2 a 2,2 0 0 1 0.3,-2.8 l 1.2,-1 a 2,2 0 0 1 2.8,0.3 z"
       id="path156"
       style="fill:#ffaf35;fill-opacity:1" />
    <path
       class="cls-18"
       d="m 514.2,418 1,1.2 a 2,2 0 0 1 -0.3,2.8 l -1.2,1 a 2,2 0 0 1 -2.8,-0.3 l -1,-1.2 a 2,2 0 0 1 0.3,-2.8 l 1.2,-1 a 2,2 0 0 1 2.8,0.3 z"
       id="path157"
       style="fill:#ffaf35;fill-opacity:1" />
    <path
       class="cls-18"
       d="m 522,492.1 1,1.2 a 2,2 0 0 1 -0.3,2.8 l -1.2,1 a 2,2 0 0 1 -2.8,-0.3 l -1,-1.2 a 2,2 0 0 1 0.3,-2.8 l 1.2,-1 a 2,2 0 0 1 2.8,0.3 z"
       id="path158"
       style="fill:#ffaf35;fill-opacity:1" />
    <path
       class="cls-18"
       d="m 524.1,474.1 1,1.2 a 2,2 0 0 1 -0.3,2.8 l -1.2,1 a 2,2 0 0 1 -2.8,-0.3 l -1,-1.2 a 2,2 0 0 1 0.3,-2.8 l 1.2,-1 a 2,2 0 0 1 2.8,0.3 z"
       id="path159"
       style="fill:#ffaf35;fill-opacity:1" />
    <path
       class="cls-18"
       d="m 526.2,456 1,1.2 a 2,2 0 0 1 -0.3,2.8 l -1.2,1 a 2,2 0 0 1 -2.8,-0.3 l -1,-1.2 a 2,2 0 0 1 0.3,-2.8 l 1.2,-1 a 1.94,1.94 0 0 1 2.8,0.3 z"
       id="path160"
       style="fill:#ffaf35;fill-opacity:1" />
    <path
       class="cls-18"
       d="m 528.3,437.9 1,1.2 a 2,2 0 0 1 -0.3,2.8 l -1.2,1 a 2,2 0 0 1 -2.8,-0.3 l -1,-1.2 a 2,2 0 0 1 0.3,-2.8 l 1.2,-1 a 2,2 0 0 1 2.8,0.3 z"
       id="path161"
       style="fill:#ffaf35;fill-opacity:1" />
    <path
       class="cls-18"
       d="m 530.4,419.9 1,1.2 a 2,2 0 0 1 -0.3,2.8 l -1.2,1 a 2,2 0 0 1 -2.8,-0.3 l -1,-1.2 a 2,2 0 0 1 0.3,-2.8 l 1.2,-1 a 1.93,1.93 0 0 1 2.8,0.3 z"
       id="path162"
       style="fill:#ffaf35;fill-opacity:1" />
    <path
       class="cls-18"
       d="m 538.2,494 1,1.2 a 2,2 0 0 1 -0.3,2.8 l -1.2,1 a 2,2 0 0 1 -2.8,-0.3 l -1,-1.2 a 2,2 0 0 1 0.3,-2.8 l 1.2,-1 a 2,2 0 0 1 2.8,0.3 z"
       id="path163"
       style="fill:#ffaf35;fill-opacity:1" />
    <path
       class="cls-18"
       d="m 540.4,476 1,1.2 a 2,2 0 0 1 -0.3,2.8 l -1.2,1 a 2,2 0 0 1 -2.8,-0.3 l -1,-1.2 a 2,2 0 0 1 0.3,-2.8 l 1.2,-1 a 2,2 0 0 1 2.8,0.3 z"
       id="path164"
       style="fill:#ffaf35;fill-opacity:1" />
    <path
       class="cls-18"
       d="m 542.5,457.9 1,1.2 a 2,2 0 0 1 -0.3,2.8 l -1.2,1 a 2,2 0 0 1 -2.8,-0.3 l -1,-1.2 a 2,2 0 0 1 0.3,-2.8 l 1.2,-1 a 2,2 0 0 1 2.8,0.3 z"
       id="path165"
       style="fill:#ffaf35;fill-opacity:1" />
    <path
       class="cls-18"
       d="m 544.6,439.8 1,1.2 a 2,2 0 0 1 -0.3,2.8 l -1.2,1 a 2,2 0 0 1 -2.8,-0.3 l -1,-1.2 a 2,2 0 0 1 0.3,-2.8 l 1.2,-1 a 2,2 0 0 1 2.8,0.3 z"
       id="path166"
       style="fill:#ffaf35;fill-opacity:1" />
    <path
       class="cls-18"
       d="m 546.7,421.8 1,1.2 a 2,2 0 0 1 -0.3,2.8 l -1.2,1 a 2,2 0 0 1 -2.8,-0.3 l -1,-1.2 a 2,2 0 0 1 0.3,-2.8 l 1.2,-1 a 1.94,1.94 0 0 1 2.8,0.3 z"
       id="path167"
       style="fill:#ffaf35;fill-opacity:1" />
    <path
       class="cls-18"
       d="m 451.2,392.3 1,1.2 a 2,2 0 0 1 -0.3,2.8 l -1.2,1 a 2,2 0 0 1 -2.8,-0.3 l -1,-1.2 a 2,2 0 0 1 0.3,-2.8 l 1.2,-1 a 1.87,1.87 0 0 1 2.8,0.3 z"
       id="path168"
       style="fill:#ffaf35;fill-opacity:1" />
    <path
       class="cls-18"
       d="m 453.3,374.2 1,1.2 a 2,2 0 0 1 -0.3,2.8 l -1.2,1 a 2,2 0 0 1 -2.8,-0.3 l -1,-1.2 a 2,2 0 0 1 0.3,-2.8 l 1.2,-1 a 1.93,1.93 0 0 1 2.8,0.3 z"
       id="path169"
       style="fill:#ffaf35;fill-opacity:1" />
    <path
       class="cls-18"
       d="m 455.5,356.1 1,1.2 a 2,2 0 0 1 -0.3,2.8 l -1.2,1 a 2,2 0 0 1 -2.8,-0.3 l -1,-1.2 a 2,2 0 0 1 0.3,-2.8 l 1.2,-1 a 2,2 0 0 1 2.8,0.3 z"
       id="path170"
       style="fill:#ffaf35;fill-opacity:1" />
    <path
       class="cls-18"
       d="m 457.6,338.1 1,1.2 a 2,2 0 0 1 -0.3,2.8 l -1.2,1 a 2,2 0 0 1 -2.8,-0.3 l -1,-1.2 a 2,2 0 0 1 0.3,-2.8 l 1.2,-1 a 2,2 0 0 1 2.8,0.3 z"
       id="path171"
       style="fill:#ffaf35;fill-opacity:1" />
    <path
       class="cls-18"
       d="m 467.5,394.2 1,1.2 a 2,2 0 0 1 -0.3,2.8 l -1.2,1 a 2,2 0 0 1 -2.8,-0.3 l -1,-1.2 a 2,2 0 0 1 0.3,-2.8 l 1.2,-1 a 1.94,1.94 0 0 1 2.8,0.3 z"
       id="path172"
       style="fill:#ffaf35;fill-opacity:1" />
    <path
       class="cls-18"
       d="m 469.6,376.1 1,1.2 a 2,2 0 0 1 -0.3,2.8 l -1.2,1 a 2,2 0 0 1 -2.8,-0.3 l -1,-1.2 a 2,2 0 0 1 0.3,-2.8 l 1.2,-1 a 1.94,1.94 0 0 1 2.8,0.3 z"
       id="path173"
       style="fill:#ffaf35;fill-opacity:1" />
    <path
       class="cls-18"
       d="m 471.7,358 1,1.2 a 2,2 0 0 1 -0.3,2.8 l -1.2,1 a 2,2 0 0 1 -2.8,-0.3 l -1,-1.2 a 2,2 0 0 1 0.3,-2.8 l 1.2,-1 a 2,2 0 0 1 2.8,0.3 z"
       id="path174"
       style="fill:#ffaf35;fill-opacity:1" />
    <path
       class="cls-18"
       d="m 473.9,340 1,1.2 a 2,2 0 0 1 -0.3,2.8 l -1.2,1 a 2,2 0 0 1 -2.8,-0.3 l -1,-1.2 a 2,2 0 0 1 0.3,-2.8 l 1.2,-1 a 2,2 0 0 1 2.8,0.3 z"
       id="path175"
       style="fill:#ffaf35;fill-opacity:1" />
    <path
       class="cls-18"
       d="m 483.8,396.1 1,1.2 a 2,2 0 0 1 -0.3,2.8 l -1.2,1 a 2,2 0 0 1 -2.8,-0.3 l -1,-1.2 a 2,2 0 0 1 0.3,-2.8 l 1.2,-1 a 2,2 0 0 1 2.8,0.3 z"
       id="path176"
       style="fill:#ffaf35;fill-opacity:1" />
    <path
       class="cls-18"
       d="m 485.9,378 1,1.2 a 2,2 0 0 1 -0.3,2.8 l -1.2,1 a 2,2 0 0 1 -2.8,-0.3 l -1,-1.2 a 2,2 0 0 1 0.3,-2.8 l 1.2,-1 a 2,2 0 0 1 2.8,0.3 z"
       id="path177"
       style="fill:#ffaf35;fill-opacity:1" />
    <path
       class="cls-18"
       d="m 488,359.9 1,1.2 a 2,2 0 0 1 -0.3,2.8 l -1.2,1 a 2,2 0 0 1 -2.8,-0.3 l -1,-1.2 a 2,2 0 0 1 0.3,-2.8 l 1.2,-1 a 2,2 0 0 1 2.8,0.3 z"
       id="path178"
       style="fill:#ffaf35;fill-opacity:1" />
    <path
       class="cls-18"
       d="m 490.1,341.9 1,1.2 a 2,2 0 0 1 -0.3,2.8 l -1.2,1 a 2,2 0 0 1 -2.8,-0.3 l -1,-1.2 a 2,2 0 0 1 0.3,-2.8 l 1.2,-1 a 1.94,1.94 0 0 1 2.8,0.3 z"
       id="path179"
       style="fill:#ffaf35;fill-opacity:1" />
    <path
       class="cls-18"
       d="m 500,398 1,1.2 a 2,2 0 0 1 -0.3,2.8 l -1.2,1 a 2,2 0 0 1 -2.8,-0.3 l -1,-1.2 a 2,2 0 0 1 0.3,-2.8 l 1.2,-1 a 1.94,1.94 0 0 1 2.8,0.3 z"
       id="path180"
       style="fill:#ffaf35;fill-opacity:1" />
    <path
       class="cls-18"
       d="m 502.2,379.9 1,1.2 a 2,2 0 0 1 -0.3,2.8 l -1.2,1 a 2,2 0 0 1 -2.8,-0.3 l -1,-1.2 a 2,2 0 0 1 0.3,-2.8 l 1.2,-1 a 2,2 0 0 1 2.8,0.3 z"
       id="path181"
       style="fill:#ffaf35;fill-opacity:1" />
    <path
       class="cls-18"
       d="m 504.3,361.9 1,1.2 a 2,2 0 0 1 -0.3,2.8 l -1.2,1 a 2,2 0 0 1 -2.8,-0.3 l -1,-1.2 a 2,2 0 0 1 0.3,-2.8 l 1.2,-1 a 1.87,1.87 0 0 1 2.8,0.3 z"
       id="path182"
       style="fill:#ffaf35;fill-opacity:1" />
    <path
       class="cls-18"
       d="m 506.4,343.8 1,1.2 a 2,2 0 0 1 -0.3,2.8 l -1.2,1 a 2,2 0 0 1 -2.8,-0.3 l -1,-1.2 a 2,2 0 0 1 0.3,-2.8 l 1.2,-1 a 2,2 0 0 1 2.8,0.3 z"
       id="path183"
       style="fill:#ffaf35;fill-opacity:1" />
    <path
       class="cls-18"
       d="m 516.3,399.9 1,1.2 a 2,2 0 0 1 -0.3,2.8 l -1.2,1 a 2,2 0 0 1 -2.8,-0.3 l -1,-1.2 a 2,2 0 0 1 0.3,-2.8 l 1.2,-1 a 1.94,1.94 0 0 1 2.8,0.3 z"
       id="path184"
       style="fill:#ffaf35;fill-opacity:1" />
    <path
       class="cls-18"
       d="m 518.4,381.8 1,1.2 a 2,2 0 0 1 -0.3,2.8 l -1.2,1 a 2,2 0 0 1 -2.8,-0.3 l -1,-1.2 a 2,2 0 0 1 0.3,-2.8 l 1.2,-1 a 2,2 0 0 1 2.8,0.3 z"
       id="path185"
       style="fill:#ffaf35;fill-opacity:1" />
    <path
       class="cls-18"
       d="m 520.5,363.8 1,1.2 a 2,2 0 0 1 -0.3,2.8 l -1.2,1 a 2,2 0 0 1 -2.8,-0.3 l -1,-1.2 a 2,2 0 0 1 0.3,-2.8 l 1.2,-1 a 1.93,1.93 0 0 1 2.8,0.3 z"
       id="path186"
       style="fill:#ffaf35;fill-opacity:1" />
    <path
       class="cls-18"
       d="m 522.7,345.7 1,1.2 a 2,2 0 0 1 -0.3,2.8 l -1.2,1 a 2,2 0 0 1 -2.8,-0.3 l -1,-1.2 a 2,2 0 0 1 0.3,-2.8 l 1.2,-1 a 2,2 0 0 1 2.8,0.3 z"
       id="path187"
       style="fill:#ffaf35;fill-opacity:1" />
    <path
       class="cls-18"
       d="m 532.6,401.8 1,1.2 a 2,2 0 0 1 -0.3,2.8 l -1.2,1 a 2,2 0 0 1 -2.8,-0.3 l -1,-1.2 a 2,2 0 0 1 0.3,-2.8 l 1.2,-1 a 2,2 0 0 1 2.8,0.3 z"
       id="path188"
       style="fill:#ffaf35;fill-opacity:1" />
    <path
       class="cls-18"
       d="m 534.7,383.7 1,1.2 a 2,2 0 0 1 -0.3,2.8 l -1.2,1 a 2,2 0 0 1 -2.8,-0.3 l -1,-1.2 a 2,2 0 0 1 0.3,-2.8 l 1.2,-1 a 2,2 0 0 1 2.8,0.3 z"
       id="path189"
       style="fill:#ffaf35;fill-opacity:1" />
    <path
       class="cls-18"
       d="m 536.8,365.7 1,1.2 a 2,2 0 0 1 -0.3,2.8 l -1.2,1 a 2,2 0 0 1 -2.8,-0.3 l -1,-1.2 a 2,2 0 0 1 0.3,-2.8 l 1.2,-1 a 1.94,1.94 0 0 1 2.8,0.3 z"
       id="path190"
       style="fill:#ffaf35;fill-opacity:1" />
    <path
       class="cls-18"
       d="m 538.9,347.6 1,1.2 a 2,2 0 0 1 -0.3,2.8 l -1.2,1 a 2,2 0 0 1 -2.8,-0.3 l -1,-1.2 a 2,2 0 0 1 0.3,-2.8 l 1.2,-1 a 1.94,1.94 0 0 1 2.8,0.3 z"
       id="path191"
       style="fill:#ffaf35;fill-opacity:1" />
    <path
       class="cls-18"
       d="m 548.8,403.7 1,1.2 a 2,2 0 0 1 -0.3,2.8 l -1.2,1 a 2,2 0 0 1 -2.8,-0.3 l -1,-1.2 a 2,2 0 0 1 0.3,-2.8 l 1.2,-1 a 1.93,1.93 0 0 1 2.8,0.3 z"
       id="path192"
       style="fill:#ffaf35;fill-opacity:1" />
    <path
       class="cls-18"
       d="m 551,385.7 1,1.2 a 2,2 0 0 1 -0.3,2.8 l -1.2,1 a 2,2 0 0 1 -2.8,-0.3 l -1,-1.2 a 2,2 0 0 1 0.3,-2.8 l 1.2,-1 a 1.87,1.87 0 0 1 2.8,0.3 z"
       id="path193"
       style="fill:#ffaf35;fill-opacity:1" />
    <path
       class="cls-18"
       d="m 553.1,367.6 1,1.2 a 2,2 0 0 1 -0.3,2.8 l -1.2,1 a 2,2 0 0 1 -2.8,-0.3 l -1,-1.2 a 2,2 0 0 1 0.3,-2.8 l 1.2,-1 a 2,2 0 0 1 2.8,0.3 z"
       id="path194"
       style="fill:#ffaf35;fill-opacity:1" />
    <path
       class="cls-18"
       d="m 555.2,349.5 1,1.2 a 2,2 0 0 1 -0.3,2.8 l -1.2,1 a 2,2 0 0 1 -2.8,-0.3 l -1,-1.2 a 2,2 0 0 1 0.3,-2.8 l 1.2,-1 a 2,2 0 0 1 2.8,0.3 z"
       id="path195"
       style="fill:#ffaf35;fill-opacity:1" />
  </g>
  <path
     class="cls-8"
     d="m 383.04227,207.77004 a 108.67,108.67 0 0 1 18.4,27 c 0,0 0.5,-34.6 1.2,-37 a 39.27,39.27 0 0 0 21.5,-1.7 c 0,0 2.9,26.7 7.2,47 4.3,20.3 9.1,50.6 -5.5,54.6 -14.6,4 -27.9,-5.2 -45.6,-28.9 -17.7,-23.7 -16.2,-35.5 -16.2,-41.5 -0.1,-7.1 9.5,-25.3 19,-19.5 z"
     id="path196"
     style="fill:#127c71;fill-opacity:1" />
  <path
     class="cls-19"
     d="m 401.44227,234.87004 c 0,0 -0.7,21.5 1.9,35.1"
     id="path197" />
  <path
     class="cls-19"
     d="m 402.04227,207.17004 c 0,0 12.8,4 23,-2.5"
     id="path198" />
  <path
     class="cls-19"
     d="m 421.14227,202.07004 a 1.1,1.1 0 1 1 -1.1,-1.1 1,1 0 0 1 1.1,1.1 z"
     id="path199" />
  <path
     class="cls-14"
     d="m 423.34227,196.47004 c 0,0 -1,-7.1 3.8,-9.4 4.8,-2.3 9.2,-1.2 14.1,-4.8 4.9,-3.6 13.2,-15 12.9,-17.5 -0.3,-2.5 -2.1,-1.4 -5.4,1.3 a 19.69,19.69 0 0 1 -4.8,3.3 c 0,0 2,-6.8 1.1,-11.8 -0.9,-5 -4.3,-5.6 -5.1,-5.1 -0.8,0.5 0,2.6 -0.2,6.6 -0.2,4 -1.4,7.3 -4.9,9.8 a 12.5,12.5 0 0 0 -0.7,-7 c -1.6,-3.8 -4.3,-6.3 -6.4,-5.7 -2.1,0.6 -1.4,2.2 -0.4,4.4 1,2.2 2.6,6.2 -1.6,10.4 a 5.24,5.24 0 0 1 -8.7,-5.6 c 2.3,-5.6 5.8,-6.9 7.6,-8.4 1.8,-1.5 1.3,-4.2 -2.5,-3.6 -3.8,0.6 -10.3,5.2 -14.1,10.3 -3.8,5.1 -4.9,12 -5,18.8 -0.1,6.8 -0.4,15.5 -0.4,15.5 0,0 2.5,3.1 8,3.1 5.5,0 12.7,-2.1 12.7,-4.6 z"
     id="path200" />
  <path
     class="cls-15"
     d="m 443.94227,169.47004 a 50.93,50.93 0 0 1 -4.1,8.5"
     id="path201" />
  <path
     class="cls-15"
     d="m 434.74227,168.87004 a 17.51,17.51 0 0 1 -3.2,7.8"
     id="path202" />
  <path
     class="cls-19"
     d="m 411.14227,297.27004 c 0,0 -2.5,-4 3.6,-10.1 6.1,-6.1 19.1,-5.4 19.5,0.9"
     id="path203" />
  <path
     class="cls-16"
     d="m 314.04227,184.07004 c 0,0 -5.6,-0.3 -9.1,7.3 -3.5,7.6 -2.5,23.2 1.3,25.6 3.8,2.4 14,-7.9 14,-7.9 0,0 8.6,11.6 14.8,11.1 6.2,-0.5 14,-11.6 13.5,-23.8 -0.5,-12.2 -5.5,-13.6 -8.2,-13.9 -2.6,-0.5 -26.3,1.6 -26.3,1.6 z"
     id="path204" />
  <path
     class="cls-16"
     d="m 320.24227,208.97004 c 0,0 -19.7,21.8 -19.9,25.9 -0.2,4.1 6.5,5.4 8.3,4.5 1.8,-0.9 13.6,-30.7 11.6,-30.4 z"
     id="path205" />
  <path
     class="cls-16"
     d="m 320.04227,211.67004 c 0,0 3.4,24.2 5.6,28 2.2,3.8 9.2,-1.9 8.4,-5.2 -0.8,-3.3 -10.3,-22.6 -13.8,-25.4 -3.5,-2.8 -0.2,2.6 -0.2,2.6 z"
     id="path206" />
  <path
     class="cls-14"
     d="m 344.44227,162.77004 c 0,0 -2.2,13.7 -0.6,24 0,0 -9.5,21.1 -23.5,21.1 -6.9,0 -9.1,-14.2 -7.9,-19.8 l 2.1,-15.6 c 0,0 14,-24.2 29.9,-9.7 z"
     id="path207" />
  <path
     class="cls-21"
     d="m 332.94227,177.27004 c -6,3.6 -12.6,5.4 -19.6,4 l -0.8,5.9 c 7.6,-1.5 15.3,-3.7 20.4,-9.9 z"
     id="path208" />
  <path
     class="cls-14"
     d="m 300.84227,133.27004 a 136.91,136.91 0 0 1 -0.8,20.5 c -1.3,12.7 -0.8,21 10,26.4 10.8,5.4 28.3,0.5 34.7,-14.9 6.4,-15.4 14.9,-44.7 -8.1,-49.1 -23,-4.4 -36.1,1.1 -35.8,17.1 z"
     id="path209" />
  <path
     class="cls-10"
     d="m 316.84227,123.17004 c 0,0 4.4,14.8 14.2,18.6 9.8,3.8 8.3,13 13.2,11.9 4.9,-1.1 8.7,-5.1 12,-1.2 3.3,3.9 3.6,-30.4 -13.3,-36.3 -16.9,-5.9 -34.8,-6.2 -40.1,-0.8 -5.3,5.4 -3.4,22.7 -3.4,22.7 0,0 10.8,-2.5 17.4,-14.9 z"
     id="path210" />
  <path
     class="cls-14"
     d="m 345.34227,153.77004 c 0,0 2.3,-5.7 7.2,-4.7 4.9,1 4.5,16.5 -8,15.7"
     id="path211" />
  <path
     class="cls-10"
     d="m 310.34227,148.47004 a 6.06,6.06 0 0 1 0.2,4.2 7.22,7.22 0 0 1 -0.9,2 l -0.6,0.9 c -0.1,0.2 -0.3,0.5 -0.4,0.7 a 3.1,3.1 0 0 0 0.4,2.9 5.5,5.5 0 0 0 3,2.1 3,3 0 0 1 -2.1,0 4.53,4.53 0 0 1 -1.9,-1.1 4.64,4.64 0 0 1 -1.3,-2 4.3,4.3 0 0 1 0.2,-2.5 8.79,8.79 0 0 1 0.6,-1 c 0.2,-0.3 0.4,-0.5 0.6,-0.8 a 8.64,8.64 0 0 0 1,-1.6 10,10 0 0 0 1.2,-3.8 z"
     id="path212" />
  <path
     class="cls-19"
     d="m 317.74227,167.97004 a 7.23,7.23 0 0 0 8,-3.7"
     id="path213" />
  <path
     class="cls-19"
     d="m 324.14227,148.47004 c 0,0 0.4,2.2 4.2,2.6 a 4.84,4.84 0 0 0 4.7,-2.2"
     id="path214" />
  <path
     class="cls-19"
     d="m 308.54227,146.87004 c 0,0 -3,2.4 -5.4,-0.6"
     id="path215" />
  <path
     class="cls-10"
     d="m 311.34227,137.37004 c 0.2,-1.3 -1.3,-3.5 -3.3,-4.1 -2,-0.6 -5.2,2.2 -4.9,3.4 0.3,1.2 2.3,-0.6 4.1,-0.4 1.6,0.2 3.9,2.2 4.1,1.1 z"
     id="path216" />
  <path
     class="cls-10"
     d="m 335.24227,139.57004 c 0.2,-1.3 -1.3,-3.5 -3.3,-4.1 -2,-0.6 -5.2,2.2 -4.9,3.4 0.3,1.2 2.3,-0.6 4.1,-0.4 1.8,0.2 4,2.2 4.1,1.1 z"
     id="path217" />
  <path
     class="cls-10"
     d="m 352.14227,153.77004 a 3.4,3.4 0 0 0 -2.1,1.4 3,3 0 0 0 -0.2,1 v 1.4 a 4.67,4.67 0 0 1 -0.3,1.7 2.26,2.26 0 0 1 -1.3,1.4 3.8,3.8 0 0 1 -3.3,-0.3 6.5,6.5 0 0 0 2.5,-1 2.42,2.42 0 0 0 0.6,-2 v -1.6 a 2.72,2.72 0 0 1 0.8,-1.7 3.59,3.59 0 0 1 3.3,-0.3 z"
     id="path218" />
  <ellipse
     class="cls-19"
     cx="301.54227"
     cy="146.97003"
     rx="8.8999996"
     ry="9.6999998"
     id="ellipse218" />
  <circle
     class="cls-22"
     cx="327.22226"
     cy="149.74002"
     r="10.3"
     id="circle218" />
  <path
     class="cls-19"
     d="m 310.44227,147.77004 c 0,0 1.6,-1.7 6.6,0.4"
     id="path219" />
  <line
     class="cls-19"
     x1="337.54227"
     y1="149.77002"
     x2="347.34225"
     y2="150.67004"
     id="line219" />
  <path
     class="cls-9"
     d="m 349.74227,162.37004 -3.4,5.9 a 1.14,1.14 0 0 0 1,1.7 h 6.8 a 1.14,1.14 0 0 0 1,-1.7 l -3.4,-5.9 a 1.21,1.21 0 0 0 -2,0 z"
     id="path220"
     style="fill:#fde6a8;fill-opacity:1" />
  <path
     class="cls-10"
     d="m 489.04227,362.47004 2.4,22.2 c 0,1.6 8.3,2.8 18.5,2.8 10.2,0 18.5,-1.3 18.5,-2.8 l 2.4,-22.2 z"
     id="path221" />
  <path
     class="cls-9"
     d="m 530.84227,362.47004 c 0,1.8 -9.4,3.2 -20.9,3.2 -11.5,0 -20.9,-1.4 -20.9,-3.2 0,-1.8 9.4,-3.2 20.9,-3.2 11.5,0 20.9,1.5 20.9,3.2 z"
     id="path222"
     style="fill:#fde6a8;fill-opacity:1" />
  <path
     class="cls-8"
     d="m 504.34227,362.47004 c 0,0 -11.2,-4.4 -10,-13 1.2,-8.6 9.5,9.2 11.6,6.5 2.1,-2.7 -0.6,-15.8 4,-17 4.6,-1.2 3.4,17.2 3.4,17.2 a 27.29,27.29 0 0 0 7.6,-5.7 c 2.9,-3.4 7.1,4.2 -4.8,12 a 15.48,15.48 0 0 1 -11.8,0 z"
     id="path223"
     style="fill:#127c71;fill-opacity:1" />
  <path
     class="cls-9"
     d="m 603.04227,356.67004 a 5.4,5.4 0 1 1 -5.4,-5.4 5.51,5.51 0 0 1 5.4,5.4 z"
     id="path224"
     style="fill:#fde6a8;fill-opacity:1" />
  <path
     class="cls-16"
     d="m 218.14227,375.97004 a 19.38,19.38 0 0 0 -8,4.2 26.9,26.9 0 0 1 -18.5,5.9 25.93,25.93 0 0 1 -20,-10.9 280.11,280.11 0 0 0 46.5,0.8 z"
     id="path225" />
  <path
     class="cls-10"
     d="m 191.54227,386.17004 c -17.6,0.3 -42.2,0 -49.8,-0.1 -8.8,0.7 -18.7,-2.7 -25.3,-13.6 0,0 6.5,1 23.2,1.1 16.7,0.1 30,-1.1 30,-1.1 0.6,1 1.2,1.9 1.8,2.8 a 26.88,26.88 0 0 0 20.1,10.9 z"
     id="path226"
     inkscape:export-filename="Project_Manager_7.svg"
     inkscape:export-xdpi="96"
     inkscape:export-ydpi="96" />
</svg>
