<?xml version="1.0" encoding="UTF-8" standalone="no"?>
<!-- Created with Inkscape (http://www.inkscape.org/) -->

<svg
   width="24.077234mm"
   height="3.1750948mm"
   viewBox="0 0 24.077234 3.1750948"
   version="1.1"
   id="svg1"
   xml:space="preserve"
   inkscape:export-filename="bitmap.svg"
   inkscape:export-xdpi="96"
   inkscape:export-ydpi="96"
   xmlns:inkscape="http://www.inkscape.org/namespaces/inkscape"
   xmlns:sodipodi="http://sodipodi.sourceforge.net/DTD/sodipodi-0.dtd"
   xmlns="http://www.w3.org/2000/svg"
   xmlns:svg="http://www.w3.org/2000/svg"><sodipodi:namedview
     id="namedview1"
     pagecolor="#ffffff"
     bordercolor="#000000"
     borderopacity="0.25"
     inkscape:showpageshadow="2"
     inkscape:pageopacity="0.0"
     inkscape:pagecheckerboard="0"
     inkscape:deskcolor="#d1d1d1"
     inkscape:document-units="mm" /><defs
     id="defs1" /><g
     inkscape:label="Layer 1"
     inkscape:groupmode="layer"
     id="layer1"
     transform="translate(-93.112268,-146.91245)"><path
       fill="#ffc221"
       d="m 93.735415,149.49609 c 6.268205,-2.3177 13.526825,-3.05442 22.243315,-2.0314 0.047,0.006 0.0431,0.004 0.0426,-0.20497 -5.5e-4,-0.21494 10e-4,-0.22402 0.021,-0.20572 0.4314,0.40396 0.42973,0.40646 0.59303,0.55584 0.29679,0.30105 0.29719,0.29895 0.51087,0.53078 0.0538,0.0725 0.0781,0.008 -0.32581,0.39137 -0.24783,0.23519 -0.25009,0.23797 -0.70951,0.66767 -0.15004,0.14033 -0.1275,0.14589 -0.13245,-0.0382 -0.0104,-0.38539 0.006,-0.3251 -0.0771,-0.33474 -8.54579,-0.9952 -16.047455,-1.3711 -22.159425,0.88883 0,0 4.95e-4,-1.2e-4 -0.623569,0.14995 0.593488,-0.37076 0.471464,-0.31014 0.617049,-0.36941 z"
       id="path1"
       style="fill:#ffaf35;fill-opacity:1;stroke-width:0.264583"
       sodipodi:nodetypes="cssscccsssccc" /></g></svg>
