<?xml version="1.0" encoding="UTF-8" standalone="no"?>
<svg
   width="10.000001"
   height="9.9903965"
   version="1.1"
   id="svg4"
   xmlns="http://www.w3.org/2000/svg"
   xmlns:svg="http://www.w3.org/2000/svg">
  <defs
     id="defs4" />
  <g
     transform="matrix(0.123006,0,0,0.123006,-29.423035,-14.157991)"
     id="g4">
    <path
       d="m 319.73122,143.69373 c 0,8.53126 -3.54684,15.42184 -10.62497,20.65628 -7.07808,5.23435 -16.96878,7.84374 -29.68751,7.84374 h -7.03126 l -5.39066,23.35939 h -18.57808 l 17.15624,-71.68756 h 25.15626 c 4.68751,0 8.76558,0.32816 12.26559,0.96887 3.48442,0.64049 6.49999,1.75 9.03131,3.32803 2.49999,1.57808 4.42185,3.625 5.73433,6.14069 1.31254,2.5 1.96875,5.64056 1.96875,9.39056 z"
       fill="#009cde"
       id="path1"
       style="stroke-width:0.156251" />
    <path
       d="m 267.62182,196.31878 h -20.17184 l 17.53129,-73.23432 h 25.74997 c 4.70312,0 8.87499,0.32802 12.39059,0.96871 3.56256,0.65627 6.68755,1.81238 9.29693,3.42186 2.60937,1.64053 4.64062,3.81245 6.01562,6.43745 1.37499,2.625 2.06247,5.90625 2.06247,9.76569 0,8.75 -3.67186,15.92182 -10.93747,21.28121 -7.18755,5.31244 -17.32814,8.00002 -30.1562,8.00002 h -6.42191 z m -18.21865,-1.53131 h 16.98431 l 5.39068,-23.3593 h 7.64058 c 12.48443,0 22.32809,-2.59376 29.2344,-7.7032 3.42184,-2.53123 6.03124,-5.49988 7.73433,-8.8125 1.70313,-3.31248 2.56254,-7.09373 2.56254,-11.21874 0,-3.60931 -0.64063,-6.65625 -1.89063,-9.06246 -1.25,-2.39069 -3.07814,-4.34379 -5.45314,-5.84379 -2.43748,-1.51565 -5.39065,-2.59374 -8.76565,-3.21874 -3.42183,-0.625 -7.5,-0.95319 -12.12499,-0.95319 h -24.5312 z"
       fill="#ffffff"
       id="path2"
       style="stroke-width:0.156251" />
    <path
       d="m 311.48124,135.70941 c 0,8.53119 -3.54686,15.42186 -10.62501,20.65617 -7.07806,5.23437 -16.96876,7.84379 -29.68749,7.84379 h -7.03126 l -5.39066,23.35939 h -18.57809 l 16.54684,-71.7032 h 25.7657 c 4.68748,0 8.76554,0.32817 12.26555,0.96896 3.48442,0.64052 6.5,1.74992 9.03134,3.328 2.49999,1.57806 4.42182,3.62496 5.73431,6.14065 1.31251,2.49999 1.96877,5.64056 1.96877,9.40624 z"
       fill="#0f3572"
       id="path3"
       style="stroke-width:0.156251" />
    <path
       d="M 259.35627,188.33438 H 239.2 L 256.09057,115.1 h 26.3907 c 4.70311,0 8.87497,0.32817 12.39055,0.96873 3.56254,0.65623 6.68754,1.81254 9.29694,3.42181 2.60939,1.64073 4.64062,3.81263 6.01562,6.43763 1.375,2.62499 2.06244,5.90627 2.06244,9.76556 0,8.75001 -3.67184,15.92185 -10.93746,21.28124 -7.18754,5.3125 -17.32809,7.99998 -30.1562,7.99998 h -6.42189 z m -18.21875,-1.54691 h 16.99996 l 5.39069,-23.3593 h 7.64057 c 12.48443,0 22.32808,-2.59377 29.23443,-7.70312 3.42181,-2.53131 6.03122,-5.50008 7.7343,-8.81257 1.70312,-3.31241 2.56251,-7.09375 2.56251,-11.21875 0,-3.60932 -0.6406,-6.65625 -1.8906,-9.06246 -1.25,-2.39069 -3.07812,-4.34377 -5.45313,-5.84375 -2.43749,-1.5157 -5.39066,-2.59379 -8.76565,-3.21879 -3.42185,-0.62501 -7.50001,-0.95317 -12.12502,-0.95317 h -25.15617 z m 51.24995,-48.5312 c -0.14065,2.18746 -0.5781,3.79691 -1.92187,5.65621 -1.32813,1.85935 -2.89063,3.06247 -4.98434,4.0625 -1.26567,0.59376 -2.57809,0.98439 -3.95308,1.17185 -1.375,0.18757 -3.01571,0.29691 -4.9376,0.29691 h -9.23431 l 5.17189,-18.53126 h 8.39058 c 2.14064,0 3.85943,0.0318 5.15624,0.3281 1.29684,0.28125 2.35939,0.6719 3.15626,1.15625 1.10936,0.65634 2,1.45326 2.51557,2.46874 0.64066,1.1876 0.71879,1.95316 0.64066,3.3907 z"
       fill="#ffffff"
       id="path4"
       style="stroke-width:0.156251" />
  </g>
</svg>
