<?xml version="1.0" encoding="UTF-8" standalone="no"?>
<svg
   width="10"
   height="11.380813"
   version="1.1"
   id="svg3"
   sodipodi:docname="shopify-icon.svg"
   inkscape:version="1.3.1 (91b66b0783, 2023-11-16)"
   xmlns:inkscape="http://www.inkscape.org/namespaces/inkscape"
   xmlns:sodipodi="http://sodipodi.sourceforge.net/DTD/sodipodi-0.dtd"
   xmlns="http://www.w3.org/2000/svg"
   xmlns:svg="http://www.w3.org/2000/svg">
  <sodipodi:namedview
     id="namedview1"
     pagecolor="#ffffff"
     bordercolor="#000000"
     borderopacity="0.25"
     inkscape:showpageshadow="2"
     inkscape:pageopacity="0.0"
     inkscape:pagecheckerboard="0"
     inkscape:deskcolor="#d1d1d1"
     inkscape:zoom="44.548664"
     inkscape:cx="4.9945381"
     inkscape:cy="5.6904063"
     inkscape:window-width="1360"
     inkscape:window-height="745"
     inkscape:window-x="-8"
     inkscape:window-y="-8"
     inkscape:window-maximized="1"
     inkscape:current-layer="svg3" />
  <defs
     id="defs3" />
  <path
     d="M 8.75878,2.2199698 C 8.75038,2.1696448 8.70935,2.1310568 8.658487,2.1262558 8.618477,2.1196758 7.73913,2.0593938 7.73913,2.0593938 L 7.068729,1.3889928 c -0.06046,-0.066862 -0.194185,-0.047301 -0.244687,-0.033431 -0.0066,0 -0.133725,0.040011 -0.34178,0.1075842 C 6.280075,0.87810083 5.9221126,0.34178003 5.2915444,0.34178003 H 5.2376634 C 5.056993,0.10758424 4.8357784,0 4.649062,0 3.1809371,0.00657953 2.4813728,1.8374678 2.2601583,2.7730061 L 1.2341069,3.0877567 C 0.9193563,3.1880501 0.9077976,3.195341 0.8654752,3.4955099 L 0,10.167156 l 6.484929,1.213657 3.51436,-0.757536 c 0,-0.0066 -1.234107,-8.339468 -1.240509,-8.4031294 z M 6.122699,1.5755313 C 5.9596337,1.6294123 5.7736285,1.6831155 5.5732195,1.7435761 V 1.6226549 A 2.6727127,2.6727127 0 0 0 5.439495,0.73370677 C 5.7681159,0.78420912 5.9889748,1.1528408 6.122877,1.5753534 Z M 5.0436561,0.81123855 C 5.1508847,1.1274118 5.2006757,1.4603005 5.1905397,1.7940784 V 1.854539 L 4.0569041,2.2036099 C 4.2788299,1.3749444 4.6881835,0.96559082 5.0438339,0.81123855 Z M 4.6079844,0.40348537 a 0.34498088,0.34498088 0 0 1 0.1876055,0.0602827 C 4.3225749,0.68391571 3.8225305,1.2401529 3.6080733,2.3535165 L 2.7109451,2.6284342 C 2.9639904,1.7835867 3.5543701,0.40188495 4.6074509,0.40188495 Z"
     fill="#95bf47"
     id="path1"
     style="stroke-width:0.177825" />
  <path
     d="M 8.658487,2.1262559 C 8.618477,2.1196759 7.73913,2.0593939 7.73913,2.0593939 L 7.068729,1.3889929 c -0.0249,-0.025251 -0.05868,-0.039655 -0.09371,-0.040011 L 6.485641,11.380813 10,10.623277 8.75878,2.2267271 A 0.12092113,0.12092113 0 0 0 8.658487,2.1264337 Z"
     fill="#5e8e3e"
     id="path2"
     style="stroke-width:0.177825" />
  <path
     d="M 5.2917222,4.0704188 4.8553392,5.3582289 C 4.5916244,5.2305504 4.3033698,5.1619098 4.0103139,5.1567529 c -0.6842714,0 -0.7177025,0.4289144 -0.7177025,0.5366765 0,0.5864675 1.5356984,0.8115942 1.5356984,2.1931181 0,1.086512 -0.6908509,1.7835868 -1.6182093,1.7835868 -1.1131858,0 -1.6834712,-0.6908509 -1.6834712,-0.6908509 l 0.296079,-0.9869299 c 0,0 0.5832666,0.5032453 1.0799324,0.5032453 A 0.43922824,0.43922824 0 0 0 3.3585845,8.0528141 c 0,-0.7717614 -1.2607806,-0.8050147 -1.2607806,-2.0659732 0,-1.0601938 0.7642927,-2.0930025 2.2999911,-2.0930025 0.6035387,0.00889 0.8923268,0.1760469 0.8923268,0.1760469 z"
     fill="#ffffff"
     id="path3"
     style="stroke-width:0.177825"
     inkscape:export-filename="shopify-icon.svg"
     inkscape:export-xdpi="96"
     inkscape:export-ydpi="96" />
</svg>
