<?xml version="1.0" encoding="UTF-8" standalone="no"?>
<svg
   viewBox="0 0 5 7.1749864"
   width="10"
   height="14.349973"
   fill="#6772e5"
   version="1.1"
   id="svg3"
   sodipodi:docname="stripe-icon.svg"
   inkscape:version="1.3.1 (91b66b0783, 2023-11-16)"
   inkscape:export-filename="stripe-icon.svg"
   inkscape:export-xdpi="96"
   inkscape:export-ydpi="96"
   xmlns:inkscape="http://www.inkscape.org/namespaces/inkscape"
   xmlns:sodipodi="http://sodipodi.sourceforge.net/DTD/sodipodi-0.dtd"
   xmlns="http://www.w3.org/2000/svg"
   xmlns:svg="http://www.w3.org/2000/svg">
  <defs
     id="defs3" />
  <sodipodi:namedview
     id="namedview3"
     pagecolor="#ffffff"
     bordercolor="#000000"
     borderopacity="0.25"
     inkscape:showpageshadow="2"
     inkscape:pageopacity="0.0"
     inkscape:pagecheckerboard="0"
     inkscape:deskcolor="#d1d1d1"
     inkscape:zoom="5.6183511"
     inkscape:cx="16.463905"
     inkscape:cy="-0.088994082"
     inkscape:window-width="1360"
     inkscape:window-height="745"
     inkscape:window-x="-8"
     inkscape:window-y="-8"
     inkscape:window-maximized="1"
     inkscape:current-layer="svg3" />
  <path
     d="m 1.991031,2.1335064 c 0,-0.307175 0.255606,-0.426009 0.66861,-0.426009 0.683541,0.01477 1.354278,0.188324 1.959193,0.506951 V 0.36018841 C 3.995075,0.11505641 3.329798,-0.00714159 2.659641,3.2240978e-4 1.067713,3.2240978e-4 0,0.83417941 0,2.2265564 c 0,2.178475 2.99148,1.824663 2.99148,2.763677 0,0.367264 -0.313902,0.481166 -0.755606,0.481166 -0.651345,0 -1.4926,-0.269507 -2.152466,-0.628252 v 1.878476 c 0.679374,0.295603 1.4118,0.449854 2.152691,0.453363 C 3.872197,7.1749864 5,6.3666904 5,4.9500984 5,2.5989774 1.991031,3.0189324 1.991031,2.1339554 Z"
     fill-rule="evenodd"
     id="path3"
     sodipodi:nodetypes="sccccssscccsss"
     style="stroke-width:0.224215"
     inkscape:export-filename="stripe-icon.svg"
     inkscape:export-xdpi="96"
     inkscape:export-ydpi="96" />
</svg>
