<?xml version="1.0" encoding="UTF-8" standalone="no"?>
<!-- Created with Inkscape (http://www.inkscape.org/) -->

<svg
   width="16.455727mm"
   height="20.372919mm"
   viewBox="0 0 16.455727 20.372919"
   version="1.1"
   id="svg1"
   xml:space="preserve"
   inkscape:version="1.3.1 (91b66b0783, 2023-11-16)"
   sodipodi:docname="course-default.svg"
   xmlns:inkscape="http://www.inkscape.org/namespaces/inkscape"
   xmlns:sodipodi="http://sodipodi.sourceforge.net/DTD/sodipodi-0.dtd"
   xmlns="http://www.w3.org/2000/svg"
   xmlns:svg="http://www.w3.org/2000/svg"><sodipodi:namedview
     id="namedview1"
     pagecolor="#ffffff"
     bordercolor="#000000"
     borderopacity="0.25"
     inkscape:showpageshadow="2"
     inkscape:pageopacity="0.0"
     inkscape:pagecheckerboard="0"
     inkscape:deskcolor="#d1d1d1"
     inkscape:document-units="mm"
     inkscape:zoom="5.1099774"
     inkscape:cx="47.456179"
     inkscape:cy="53.718437"
     inkscape:window-width="1360"
     inkscape:window-height="745"
     inkscape:window-x="-8"
     inkscape:window-y="-8"
     inkscape:window-maximized="1"
     inkscape:current-layer="layer1" /><defs
     id="defs1" /><g
     inkscape:label="Layer 1"
     inkscape:groupmode="layer"
     id="layer1"
     transform="translate(-96.500374,-138.57813)"><path
       style="fill:#008080;stroke-width:0.138312"
       d="m 18.346101,76.787499 c 12.698318,0 -15.5049622,0.214925 -17.2217904,0.151088 C -0.54703869,76.876441 0.02690839,74.59383 0.0525461,71.758404 0.11179013,65.206257 -0.10661966,49.936738 0.06994477,32.825836 0.27651808,12.806766 -0.0711554,-0.01998386 0.29632269,-0.0281522 1.3800854,-0.05224218 2.3744914,-0.05129645 4.1747209,-0.09702097 5.3173374,-0.1260426 14.244599,-0.07253925 32.63808,-0.03367038 c 9.863307,0.02084301 19.693165,0.09540559 29.589921,0.06252904 l -0.01943,1.72218884 c -0.03167,2.80608 0.01402,2.7655273 -0.02933,6.7739413 -0.03522,3.2575652 0.06486,43.8976102 0.06156,53.1313502 -0.0034,9.612802 0.147916,15.319525 -0.163469,15.31923 l -4.005029,-0.0038 -13.796538,-0.03078 c -7.5881,-0.01693 -32.60323,-0.153489 -25.929669,-0.153489 z M 12.298048,36.154638 c 2.671056,-1.57861 4.948447,-2.868922 5.060868,-2.867361 0.112422,0.0016 2.387696,1.293153 5.056168,2.870203 2.66847,1.577048 4.892061,2.867361 4.941313,2.867361 0.04925,0 0.08955,-7.221167 0.08955,-16.047038 V 6.9307652 H 17.367623 7.2893005 V 22.977803 c 0,8.825871 0.095779,16.014542 0.1376559,16.014542 0.041878,0 2.2000354,-1.259095 4.8710916,-2.837707 z"
       id="path2"
       transform="matrix(0.26458333,0,0,0.26458333,96.500374,138.57813)"
       sodipodi:nodetypes="ssssssscsssscssscssscccsssc" /><path
       style="fill:none;stroke-width:0.138312"
       d="m 23.679165,36.76821 c -1.937386,-1.138506 -4.162596,-2.422614 -4.944912,-2.853575 l -1.422392,-0.783561 -4.80033,2.782631 C 9.8713488,37.44415 7.6493772,38.634512 7.5738161,38.558953 7.4982549,38.483393 7.4047997,31.339837 7.3661378,22.684382 L 7.2958434,6.9471932 H 17.297689 27.299534 V 22.896383 c 0,8.772055 -0.02202,15.947537 -0.04892,15.945515 -0.02691,-0.002 -1.634058,-0.935182 -3.571445,-2.073688 z"
       id="path3"
       transform="matrix(0.26458333,0,0,0.26458333,96.500374,138.57813)" /></g></svg>
