<?xml version="1.0" encoding="UTF-8" standalone="no"?>
<!-- Created with Inkscape (http://www.inkscape.org/) -->

<svg
   width="77.963097mm"
   height="80.012512mm"
   viewBox="0 0 77.963097 80.012512"
   version="1.1"
   id="svg1"
   xml:space="preserve"
   sodipodi:docname="default.svg"
   inkscape:version="1.3.1 (91b66b0783, 2023-11-16)"
   xmlns:inkscape="http://www.inkscape.org/namespaces/inkscape"
   xmlns:sodipodi="http://sodipodi.sourceforge.net/DTD/sodipodi-0.dtd"
   xmlns="http://www.w3.org/2000/svg"
   xmlns:svg="http://www.w3.org/2000/svg"><sodipodi:namedview
     id="namedview1"
     pagecolor="#ffffff"
     bordercolor="#000000"
     borderopacity="0.25"
     inkscape:showpageshadow="2"
     inkscape:pageopacity="0.0"
     inkscape:pagecheckerboard="0"
     inkscape:deskcolor="#d1d1d1"
     inkscape:document-units="mm"
     inkscape:zoom="1"
     inkscape:cx="178.5"
     inkscape:cy="129.5"
     inkscape:window-width="1360"
     inkscape:window-height="745"
     inkscape:window-x="-8"
     inkscape:window-y="-8"
     inkscape:window-maximized="1"
     inkscape:current-layer="layer1" /><defs
     id="defs1" /><g
     inkscape:label="Layer 1"
     inkscape:groupmode="layer"
     id="layer1"
     transform="translate(104.33757,-24.253508)"><path
       style="fill:#008080;fill-opacity:1;stroke:none;stroke-width:0.337118;stroke-dasharray:none;stroke-opacity:1"
       d="m -95.553182,104.15207 c -7.536538,-0.19286 -7.636408,-0.21074 -8.316658,-1.48852 -0.82274,-1.54544 -0.60174,-3.777761 0.99588,-10.059384 2.73038,-10.735474 8.860266,-20.640935 16.56755,-26.771971 l 2.623612,-2.087046 1.318454,1.545042 c 5.889884,6.902106 16.522603,9.550665 24.965547,6.218799 3.633083,-1.433738 6.871689,-3.657333 9.057501,-6.218799 l 1.318459,-1.545042 2.766039,2.20019 c 7.628904,6.068251 13.670263,15.869531 16.432093,26.658827 1.642354,6.415994 1.837478,8.777764 0.849283,10.279764 l -0.818117,1.24349 -30.065753,0.10992 c -16.536161,0.0605 -33.498412,0.0221 -37.69389,-0.0853 z"
       id="path26" /><path
       style="fill:#008080;fill-opacity:1;stroke:none;stroke-width:0.28941;stroke-dasharray:none;stroke-opacity:1"
       d="m -69.685406,70.486322 c -4.667343,-1.604644 -8.203352,-4.466659 -10.880875,-8.806888 -4.43748,-7.193093 -5.163085,-15.809031 -2.014748,-23.923432 3.594454,-9.264215 12.136493,-14.867973 20.14317,-13.214347 9.680395,1.999301 16.998066,13.154236 16.225785,24.734311 -0.610321,9.15149 -5.65719,17.213737 -12.779262,20.414544 -3.110747,1.398036 -7.904762,1.754787 -10.69407,0.795812 z"
       id="path27" /><ellipse
       style="fill:#008080;fill-opacity:1;stroke:none;stroke-width:0.232186;stroke-dasharray:none;stroke-opacity:1"
       id="path28-4"
       cx="-44.846809"
       cy="45.640636"
       rx="3.0427084"
       ry="4.8947916" /><ellipse
       style="fill:#008080;fill-opacity:1;stroke:none;stroke-width:0.232186;stroke-dasharray:none;stroke-opacity:1"
       id="path28-4-8"
       cx="-85.857285"
       cy="46.434372"
       rx="3.0427084"
       ry="4.8947916" /></g></svg>
