<?xml version="1.0" encoding="UTF-8" standalone="no"?>
<!-- Created with Inkscape (http://www.inkscape.org/) -->

<svg
   width="8.4666595mm"
   height="8.4666595mm"
   viewBox="0 0 8.4666595 8.4666595"
   version="1.1"
   id="svg1"
   inkscape:export-filename="users-default.svg"
   inkscape:export-xdpi="96"
   inkscape:export-ydpi="96"
   inkscape:version="1.3.1 (91b66b0783, 2023-11-16)"
   sodipodi:docname="users-default.svg"
   xmlns:inkscape="http://www.inkscape.org/namespaces/inkscape"
   xmlns:sodipodi="http://sodipodi.sourceforge.net/DTD/sodipodi-0.dtd"
   xmlns="http://www.w3.org/2000/svg"
   xmlns:svg="http://www.w3.org/2000/svg">
  <sodipodi:namedview
     id="namedview1"
     pagecolor="#ffffff"
     bordercolor="#000000"
     borderopacity="0.25"
     inkscape:showpageshadow="2"
     inkscape:pageopacity="0.0"
     inkscape:pagecheckerboard="0"
     inkscape:deskcolor="#d1d1d1"
     inkscape:document-units="mm"
     inkscape:zoom="11.621654"
     inkscape:cx="11.487177"
     inkscape:cy="16.908092"
     inkscape:window-width="1360"
     inkscape:window-height="745"
     inkscape:window-x="-8"
     inkscape:window-y="-8"
     inkscape:window-maximized="1"
     inkscape:current-layer="layer1" />
  <defs
     id="defs1" />
  <g
     inkscape:label="Layer 1"
     inkscape:groupmode="layer"
     id="layer1"
     transform="translate(-168.80417,-168.01042)">
    <path
       d="m 171.66008,172.02706 0.1262,-0.0389 c -0.0169,-0.0556 -0.0683,-0.0934 -0.1262,-0.0934 z m -0.13441,-0.98029 v 0.1323 c 0.0384,0 0.0749,-0.0167 0.10001,-0.0458 0.0251,-0.0291 0.0363,-0.0677 0.031,-0.10557 z m 2.88925,0.98029 v -0.1323 c -0.0579,0 -0.10927,0.0378 -0.12621,0.0934 z m 0.13441,-0.98029 -0.13097,-0.0191 c -0.005,0.0378 0.006,0.0765 0.031,0.10557 0.0251,0.0291 0.0616,0.0458 0.10001,0.0458 z m -4.47252,3.25941 -0.0632,-0.11642 -0.005,0.003 -0.005,0.003 z m 5.92138,0 0.0728,-0.1106 -0.005,-0.003 -0.005,-0.003 z m -4.36722,-3.60495 c -0.002,-0.073 -0.0638,-0.13018 -0.13679,-0.12753 -0.073,0.002 -0.13017,0.0638 -0.12752,0.13679 z m 3.07737,0.009 c 0.003,-0.073 -0.0545,-0.13441 -0.12753,-0.13679 -0.073,-0.003 -0.1344,0.0545 -0.13679,0.12753 z m 2.29791,1.53352 c 0,2.19181 -1.77694,3.96875 -3.96875,3.96875 v 0.26458 c 2.33812,0 4.23333,-1.89521 4.23333,-4.23333 z m -3.96875,3.96875 c -2.19181,0 -3.96875,-1.77694 -3.96875,-3.96875 h -0.26458 c 0,2.33812 1.89521,4.23333 4.23333,4.23333 z m -3.96875,-3.96875 c 0,-2.19181 1.77694,-3.96875 3.96875,-3.96875 v -0.26458 c -2.33812,0 -4.23333,1.89521 -4.23333,4.23333 z m 3.96875,-3.96875 c 2.19181,0 3.96875,1.77694 3.96875,3.96875 h 0.26458 c 0,-2.33812 -1.89521,-4.23333 -4.23333,-4.23333 z m -1.50389,3.79095 c 0.0614,0.1995 0.2077,0.49133 0.45111,0.73528 0.24527,0.24632 0.59373,0.44741 1.05278,0.44741 v -0.26459 c -0.37412,0 -0.65855,-0.16192 -0.86545,-0.36962 -0.20929,-0.20981 -0.33523,-0.46276 -0.38577,-0.62627 z m 0.12647,-0.17119 c -0.0767,0 -0.13653,-0.0349 -0.18389,-0.0995 -0.0497,-0.0675 -0.0828,-0.1651 -0.0918,-0.26961 -0.009,-0.1053 0.007,-0.20214 0.0397,-0.26696 0.031,-0.0619 0.0659,-0.0796 0.1016,-0.0796 v -0.26459 c -0.16589,0 -0.27808,0.10478 -0.3384,0.22649 -0.0593,0.11906 -0.0783,0.26723 -0.0664,0.40719 0.0119,0.14049 0.0566,0.28813 0.14234,0.40428 0.0881,0.11933 0.22146,0.20691 0.39688,0.20691 z m 2.62863,0.0934 c -0.0582,0.18786 -0.21431,0.49054 -0.47942,0.71226 l 0.16986,0.20294 c 0.31142,-0.26088 0.49239,-0.6104 0.56224,-0.83741 z m -0.47942,0.71226 c -0.19606,0.16431 -0.45032,0.28363 -0.77179,0.28363 v 0.26459 c 0.39291,0 0.70538,-0.14738 0.94165,-0.34528 z m 0.60563,-0.54107 c 0.17542,0 0.30877,-0.0876 0.39688,-0.20691 0.0857,-0.11615 0.13043,-0.26379 0.14234,-0.40428 0.0119,-0.13996 -0.007,-0.28813 -0.0664,-0.40719 -0.0603,-0.12171 -0.17251,-0.22649 -0.3384,-0.22649 v 0.26459 c 0.0357,0 0.0706,0.0177 0.1016,0.0796 0.0323,0.0648 0.0487,0.16166 0.0397,0.26696 -0.009,0.10451 -0.0421,0.20214 -0.0918,0.26961 -0.0474,0.0646 -0.10716,0.0995 -0.18389,0.0995 z m -2.62043,1.06256 -1.78091,0.96785 0.12647,0.23257 1.78091,-0.96785 z m -1.79044,0.97367 c -0.0995,0.0656 -0.16722,0.17595 -0.20928,0.28019 -0.0434,0.1069 -0.068,0.22649 -0.068,0.331 h 0.26458 c 0,-0.0669 0.0169,-0.1532 0.0487,-0.23151 0.0328,-0.0812 0.0741,-0.1352 0.10954,-0.15875 z m 2.17673,-1.39356 -0.127,-0.037 v -2.7e-4 0 0 5.3e-4 c -2.7e-4,5.3e-4 -5.3e-4,0.001 -8e-4,0.003 -7.9e-4,0.002 -0.002,0.006 -0.004,0.0111 -0.003,0.0101 -0.008,0.0249 -0.0146,0.0431 -0.0132,0.0368 -0.0325,0.0871 -0.058,0.14076 -0.0537,0.1143 -0.12144,0.21854 -0.19182,0.26484 l 0.14552,0.22093 c 0.136,-0.0897 0.22966,-0.25347 0.28575,-0.37333 0.0299,-0.0632 0.0524,-0.1217 0.0677,-0.1643 0.008,-0.0212 0.0135,-0.0389 0.0175,-0.0513 0.002,-0.006 0.003,-0.0111 0.004,-0.0146 5.3e-4,-0.002 0.001,-0.003 0.001,-0.004 0,-5.3e-4 2.6e-4,-7.9e-4 2.6e-4,-10e-4 l 2.7e-4,-2.6e-4 v -2.7e-4 0 z m 1.97326,0.65246 1.78091,0.96785 0.12647,-0.23257 -1.78091,-0.96785 z m 1.77139,0.96203 c 0.0354,0.0236 0.0767,0.0775 0.10953,0.15875 0.0317,0.0783 0.0484,0.16457 0.0484,0.23151 h 0.26459 c 0,-0.10451 -0.0243,-0.2241 -0.0677,-0.331 -0.0421,-0.10424 -0.1098,-0.21457 -0.20928,-0.28019 z m -2.03121,-1.61449 -0.127,0.037 v 0 2.7e-4 l 2.6e-4,2.6e-4 c 0,5.3e-4 2.7e-4,7.9e-4 2.7e-4,0.001 2.6e-4,0.001 7.9e-4,0.002 0.001,0.004 10e-4,0.003 0.003,0.008 0.005,0.0146 0.004,0.0124 0.01,0.0302 0.0175,0.0513 0.0153,0.0426 0.0378,0.10107 0.0677,0.1643 0.0561,0.11986 0.14975,0.28364 0.28575,0.37333 l 0.14552,-0.22093 c -0.0704,-0.0463 -0.13812,-0.15054 -0.19183,-0.26484 -0.0254,-0.0537 -0.0447,-0.10398 -0.0579,-0.14076 -0.007,-0.0183 -0.0114,-0.0331 -0.0145,-0.0431 -0.002,-0.005 -0.003,-0.009 -0.004,-0.0111 -2.6e-4,-0.001 -5.3e-4,-0.002 -7.9e-4,-0.003 v -5.3e-4 0 0 2.7e-4 z m -2.36855,-1.75525 0.13097,-0.0191 v 0 0 0 0 c -2.7e-4,-2.6e-4 -2.7e-4,-5.2e-4 -2.7e-4,-0.001 0,-8e-4 -2.6e-4,-0.002 -5.2e-4,-0.004 -5.3e-4,-0.004 -10e-4,-0.009 -0.002,-0.0167 -0.002,-0.0148 -0.004,-0.0368 -0.007,-0.0653 -0.006,-0.0572 -0.0119,-0.13943 -0.0156,-0.23971 l -0.26431,0.009 c 0.004,0.10636 0.0106,0.19447 0.0167,0.25612 0.003,0.0309 0.006,0.0553 0.008,0.072 8e-4,0.008 0.002,0.0151 0.002,0.0196 2.7e-4,0.002 5.3e-4,0.004 8e-4,0.005 0,5.3e-4 0,0.001 2.6e-4,0.002 v 5.3e-4 0 0 0 c 0,2.6e-4 0,2.6e-4 0.13097,-0.0188 z m 3.02366,0 c 0.13097,0.019 0.13097,0.019 0.13097,0.0188 v 0 0 0 -5.3e-4 c 2.6e-4,-5.3e-4 2.6e-4,-0.001 2.6e-4,-0.002 2.7e-4,-0.001 5.3e-4,-0.003 8e-4,-0.005 5.2e-4,-0.005 0.002,-0.0111 0.002,-0.0196 0.002,-0.0167 0.005,-0.041 0.008,-0.072 0.006,-0.0617 0.013,-0.14976 0.0167,-0.25612 l -0.26432,-0.009 c -0.004,0.10028 -0.0101,0.18256 -0.0156,0.23971 -0.003,0.0286 -0.005,0.0505 -0.007,0.0653 -7.9e-4,0.007 -0.002,0.013 -0.002,0.0167 -2.6e-4,0.002 -5.3e-4,0.003 -5.3e-4,0.004 0,5.3e-4 0,7.9e-4 -2.6e-4,0.001 v 0 0 0 0 z m -2.77495,2.39422 c 0.44397,0.35957 0.82206,0.56832 1.22846,0.57203 0.40534,0.003 0.80592,-0.19791 1.29461,-0.56965 l -0.16034,-0.21061 c -0.4781,0.36407 -0.81862,0.51832 -1.13215,0.51567 -0.31221,-0.003 -0.63051,-0.16192 -1.06389,-0.51302 z"
       fill="#000577"
       id="path57"
       style="fill:#0d6a69;fill-opacity:1;stroke-width:0.264583"
       sodipodi:nodetypes="ccccccscccccccccccccccccccccccccccccccccccccccccccccccccccccccccccccccssccccccccccccccscccccccccccccccccccccccccccccccccccssccccccccccccccccccccccccccccccccccccccccccccssscsccccccccccscccscccccccscccccsscccccccccccc" />
    <path
       d="m 172.64062,170.65625 c 1.11522,-0.31274 1.24963,-0.68607 1.53776,-1.33271 0.12833,0.71041 0.20505,1.33271 0.82021,1.33271 0,0 0,-1.94786 -1.94786,-1.94786 -1.94813,0 -1.94813,2.05052 -1.94813,2.05052 0.694,-0.0892 1.10305,-0.35904 1.53802,-0.82021 z"
       fill="#a8abff"
       id="path58"
       style="fill:#127c71;fill-opacity:1;stroke-width:0.264583" />
    <path
       d="m 171.18542,170.88115 v -0.20506 c 0,-1.01917 0.61515,-1.84547 1.84546,-1.84547 1.23032,0 1.84547,0.8263 1.84547,1.84547 v 0.41011 m -3.82323,0.37041 c 0,1.01918 0.55087,1.84547 1.23032,1.84547"
       stroke="#000577"
       id="path62"
       style="stroke:#0d6a69;stroke-width:0.264583;stroke-opacity:1" />
    <path
       d="m 172.52156,171.0862 c 0,0.0402 -0.0325,0.0728 -0.0728,0.0728 -0.0402,0 -0.0728,-0.0326 -0.0728,-0.0728 0,-0.0402 0.0325,-0.0728 0.0728,-0.0728 0.0402,0 0.0728,0.0325 0.0728,0.0728 z m 1.23031,0 c 0,0.0402 -0.0325,0.0728 -0.0728,0.0728 -0.0402,0 -0.0728,-0.0326 -0.0728,-0.0728 0,-0.0402 0.0326,-0.0728 0.0728,-0.0728 0.0402,0 0.0728,0.0325 0.0728,0.0728 z m -0.58791,0.69148 c 0,0.0402 -0.0325,0.0728 -0.0728,0.0728 -0.0402,0 -0.0728,-0.0326 -0.0728,-0.0728 0,-0.0402 0.0326,-0.0728 0.0728,-0.0728 0.0402,0 0.0728,0.0325 0.0728,0.0728 z m 0.35198,0.63445 c -0.0371,0.0154 -0.39103,0.11464 -0.43133,0.11464 -0.0402,0 -0.30918,-0.0914 -0.40055,-0.11464 -0.039,-0.01 0.36035,0.11232 0.40055,0.11232 0.0402,0 0.45502,-0.12212 0.43133,-0.11232 z"
       fill="#071563"
       stroke="#000577"
       id="path63"
       style="fill:#212121;fill-opacity:1;stroke:#212121;stroke-width:0.1;stroke-dasharray:none;stroke-opacity:1"
       sodipodi:nodetypes="ssssssssssssssssssss" />
    <path
       d="m 175.28646,171.2767 c 0.028,-0.22463 -0.13176,-0.42942 -0.3564,-0.45747 l -0.0114,-0.001 c -0.2249,-0.0278 -0.42969,0.13176 -0.45747,0.35639 l -0.0757,0.61066 c -0.028,0.22463 0.1315,0.42942 0.3564,0.45747 l 0.0114,0.001 c 0.22463,0.0281 0.42942,-0.13176 0.45747,-0.35639 z"
       fill="#a8abff"
       id="path64"
       style="fill:#0d6a69;fill-opacity:1;stroke-width:0.264583" />
    <path
       d="m 170.77346,171.2767 c -0.0281,-0.22463 0.13176,-0.42942 0.35639,-0.45747 l 0.0114,-0.001 c 0.2249,-0.0278 0.42968,0.13176 0.45747,0.35639 l 0.0757,0.61066 c 0.028,0.22463 -0.1315,0.42942 -0.3564,0.45747 l -0.0114,0.001 c -0.22464,0.0281 -0.42942,-0.13176 -0.45747,-0.35639 z"
       fill="#a8abff"
       id="path65"
       style="fill:#0d6a69;fill-opacity:1;stroke-width:0.264583" />
    <path
       d="m 172.6401,173.30208 c 0,0.11324 -0.0918,0.20505 -0.20506,0.20505 -0.1135,0 -0.20505,-0.0918 -0.20505,-0.20505 0,-0.11324 0.0916,-0.20505 0.20505,-0.20505 0.11324,0 0.20506,0.0918 0.20506,0.20505 z"
       fill="#a8abff"
       id="path66"
       style="fill:#0d6a69;fill-opacity:1;stroke-width:0.264583" />
    <path
       style="fill:#127c71;fill-opacity:1;stroke:none;stroke-width:0.0564393"
       d="m 172.27003,176.19931 c -0.79863,-0.17525 -1.47133,-0.52672 -2.02922,-1.0602 -0.5662,-0.54145 -0.55646,-0.56043 0.62472,-1.21676 l 0.91101,-0.50621 0.1662,0.12543 c 0.58059,0.43819 1.18361,0.51884 1.75171,0.23426 0.18435,-0.0923 0.39941,-0.2107 0.47794,-0.26305 0.1406,-0.0938 0.15653,-0.0876 1.04351,0.40317 0.72603,0.40169 0.91388,0.53078 0.9686,0.66563 0.0639,0.15714 0.0547,0.18122 -0.14975,0.39739 -0.26839,0.28381 -0.79272,0.67019 -1.17624,0.86676 -0.70501,0.36135 -1.84407,0.51694 -2.58848,0.35358 z"
       id="path7" />
    <path
       style="fill:#ffaf35;fill-opacity:1;stroke:#ffaf35;stroke-width:0.10204724;stroke-opacity:1;stroke-dasharray:none"
       d="m 653.12108,653.66404 c -1.39793,-0.273 -2.71739,-1.39713 -3.48004,-2.96484 -0.25334,-0.52077 -0.51603,-0.98041 -0.58376,-1.02143 -0.16345,-0.099 -0.47235,-2.62627 -0.34913,-2.8565 0.05,-0.0935 0.0909,-0.30861 0.0909,-0.47808 0,-0.3048 0.006,-0.30814 0.52768,-0.30754 1.08654,10e-4 2.19946,0.12677 2.09044,0.23579 -0.14269,0.14269 -0.13336,0.59998 0.0153,0.74861 0.33932,0.33933 0.94009,-0.0752 0.81741,-0.56399 l -0.0616,-0.24561 1.79818,0.074 c 0.989,0.0407 1.8321,0.0943 1.87356,0.11925 0.0415,0.0249 0.0754,0.1541 0.0754,0.28709 0,0.55295 0.86307,0.58219 0.97291,0.033 0.0619,-0.30955 0.0647,-0.31077 0.57489,-0.24947 0.28197,0.0339 0.77116,0.062 1.08708,0.0625 0.44382,6.7e-4 0.59566,0.0409 0.66792,0.17677 0.11385,0.21412 -0.19011,2.91383 -0.33999,3.01966 -0.0553,0.0391 -0.29522,0.46828 -0.53308,0.95377 -1.09277,2.23049 -3.13383,3.38923 -5.24404,2.97711 z m 2.29187,-1.64692 c 0.52141,-0.15981 0.7397,-0.37742 0.55942,-0.5577 -0.0533,-0.0533 -0.43132,-3.9e-4 -0.92343,0.12919 -0.82568,0.21742 -0.83928,0.21773 -1.50617,0.0347 -0.92135,-0.25292 -1.07501,-0.25433 -1.07501,-0.01 0,0.15734 0.14196,0.24988 0.65332,0.42589 0.73926,0.25444 1.41048,0.24794 2.29187,-0.0222 z m -0.84164,-2.42111 c 0.31866,-0.31866 0.0804,-0.84717 -0.38194,-0.84717 -0.29669,0 -0.46523,0.18207 -0.46523,0.50256 0,0.14373 0.0543,0.31561 0.12062,0.38194 0.16913,0.16914 0.53909,0.15013 0.72655,-0.0373 z"
       id="path8"
       transform="scale(0.26458333)" />
    <path
       style="fill:#ffaf35;fill-opacity:1;stroke:#ffaf35;stroke-width:0.0581015;stroke-dasharray:none;stroke-opacity:1"
       d="m 172.70972,173.67151 c -0.0718,-0.0252 -0.17166,-0.0675 -0.22193,-0.0939 l -0.0914,-0.0482 0.0784,-0.009 c 0.11311,-0.0127 0.19581,-0.0974 0.19581,-0.20075 0,-0.0855 8e-5,-0.0856 0.0979,-0.0657 0.27161,0.0554 0.68254,-0.002 0.94311,-0.13036 l 0.11592,-0.0574 0.0765,0.13935 c 0.0611,0.11129 0.0695,0.14394 0.0416,0.1621 -0.50457,0.32949 -0.8914,0.4245 -1.23581,0.30353 z"
       id="path9" />
    <path
       style="fill:#ffaf35;fill-opacity:1;stroke:#ffaf35;stroke-width:0.18897638;stroke-dasharray:none;stroke-opacity:1"
       d="m 651.00189,654.49391 c -0.0407,-0.002 -0.17635,-0.0153 -0.1885,-0.0182 -0.006,-0.002 -0.0184,-0.0143 -0.0305,-0.0324 l -0.02,-0.0298 0.036,-0.0689 c 0.0425,-0.0812 0.12148,-0.24763 0.16869,-0.35524 0.0323,-0.0737 0.0339,-0.0762 0.0431,-0.0703 0.14109,0.0908 0.32537,0.19818 0.46717,0.27229 0.0456,0.0238 0.083,0.0446 0.083,0.046 3e-5,10e-4 -0.0118,0.005 -0.0262,0.009 -0.0711,0.0159 -0.16944,0.0589 -0.23985,0.10486 -0.0451,0.0295 -0.11094,0.085 -0.14036,0.11843 l -0.0245,0.0278 -0.0503,-8.6e-4 c -0.0277,-4.8e-4 -0.0626,-0.002 -0.0777,-0.002 z"
       id="path10"
       transform="scale(0.26458333)" />
    <path
       style="fill:#ffaf35;fill-opacity:1;stroke:none;stroke-width:0.00456291"
       d="m 653.68032,656.67782 c -0.79076,-0.0554 -1.58048,-0.36186 -2.53926,-0.98521 -0.0973,-0.0633 -0.30197,-0.20181 -0.3,-0.20308 6.2e-4,-4e-4 0.0186,8e-4 0.0399,0.003 0.0213,0.002 0.0856,0.005 0.1428,0.007 l 0.10401,0.003 0.0352,0.0363 c 0.16271,0.16792 0.37677,0.24982 0.61502,0.2353 0.33843,-0.0206 0.62579,-0.26663 0.70268,-0.60158 0.0445,-0.19365 0.01,-0.40931 -0.0934,-0.57657 -0.0106,-0.0172 -0.0182,-0.0324 -0.0169,-0.0337 10e-4,-10e-4 0.0307,0.006 0.0653,0.0163 0.3263,0.0971 0.68349,0.1652 1.03248,0.19682 0.19088,0.0173 0.22996,0.0191 0.47112,0.0216 0.22842,0.002 0.2407,0.003 0.2407,0.0108 0,0.0111 -0.0116,0.0123 -0.16272,0.0179 -0.34239,0.0127 -0.66305,-0.004 -0.94981,-0.0482 -0.0409,-0.006 -0.12993,-0.0227 -0.19773,-0.0363 -0.22968,-0.0461 -0.28306,-0.0479 -0.31734,-0.0107 -0.0268,0.0291 -0.0329,0.0681 -0.0377,0.24028 -0.003,0.11393 -0.006,0.14864 -0.0135,0.18574 -0.0215,0.10222 -0.0595,0.19269 -0.11787,0.28062 -0.0427,0.0644 -0.13658,0.16041 -0.20191,0.20664 -0.0902,0.0638 -0.22669,0.1221 -0.33765,0.14412 -0.0405,0.008 -0.35189,0.0462 -0.37698,0.0462 -0.007,0 -0.007,8e-4 -0.002,0.006 0.009,0.009 0.35577,0.1949 0.44623,0.24003 0.2396,0.11953 0.64208,0.28669 0.86088,0.35754 0.27868,0.0902 0.55204,0.14109 0.85326,0.15875 0.13964,0.008 0.44348,0.002 0.53729,-0.0118 l 0.0171,-0.002 v 0.0452 0.0452 l -0.0126,0.003 c -0.0202,0.005 -0.42219,0.007 -0.48709,0.002 z"
       id="path11"
       transform="scale(0.26458333)" />
    <path
       style="fill:#ffaf35;fill-opacity:1;stroke:none;stroke-width:0.00456291"
       d="m 653.74648,653.78928 c -0.80148,-0.0427 -1.55342,-0.29223 -2.22214,-0.7375 -0.30481,-0.20296 -0.58316,-0.43548 -0.84304,-0.70425 l -0.0467,-0.0483 v -0.0601 -0.0601 l 0.0327,0.0354 c 0.0607,0.0657 0.28392,0.28598 0.35057,0.34606 0.65105,0.58675 1.37447,0.96538 2.11719,1.10809 1.06691,0.20501 2.14083,0.0111 3.08909,-0.55772 0.0789,-0.0473 0.22471,-0.14213 0.30229,-0.19655 l 0.0399,-0.028 v 0.0522 0.0522 l -0.0491,0.0339 c -0.19547,0.13492 -0.48857,0.29867 -0.70383,0.39322 -0.5083,0.22325 -1.01392,0.34234 -1.57877,0.37185 -0.10252,0.005 -0.38441,0.005 -0.48823,-4e-4 z"
       id="path12"
       transform="scale(0.26458333)" />
    <path
       style="fill:#ffaf35;fill-opacity:1;stroke:none;stroke-width:0.00456291"
       d="m 654.12801,651.85943 c -0.15786,-0.034 -0.40933,-0.10484 -0.80298,-0.22618 -0.35903,-0.11067 -0.50362,-0.15382 -0.58901,-0.17577 -0.0724,-0.0186 -0.1174,-0.0174 -0.16255,0.004 -0.0356,0.0171 -0.072,0.0518 -0.0889,0.0848 l -0.012,0.0235 0.003,-0.0205 c 0.007,-0.046 0.0366,-0.0841 0.0801,-0.10152 0.0228,-0.009 0.0329,-0.0101 0.10956,-0.01 0.0715,7e-5 0.0956,0.002 0.15742,0.0128 0.14791,0.0257 0.36274,0.0777 0.70041,0.1697 0.43956,0.11971 0.57552,0.14515 0.73235,0.13703 0.16533,-0.009 0.24989,-0.0265 0.8601,-0.18285 0.21343,-0.0547 0.40937,-0.0954 0.56029,-0.11641 0.0384,-0.005 0.0723,-0.009 0.0753,-0.007 0.003,0.001 0.002,0.002 -0.003,0.003 -0.009,3.9e-4 -0.11998,0.0307 -0.4525,0.12359 -0.64739,0.18089 -1.07748,0.29309 -1.11791,0.29164 -0.005,-1.8e-4 -0.0274,-0.004 -0.0497,-0.009 z"
       id="path13"
       transform="scale(0.26458333)" />
    <path
       style="fill:#ffaf35;fill-opacity:1;stroke:none;stroke-width:0.00456291"
       d="m 654.57693,652.18314 c 0.37684,-0.0954 0.88963,-0.23741 1.15442,-0.3197 0.0489,-0.0152 0.0931,-0.0286 0.0981,-0.0297 0.0346,-0.008 -0.13591,0.0789 -0.222,0.11277 -0.21348,0.0841 -0.56688,0.17818 -0.84743,0.22566 -0.0783,0.0132 -0.2412,0.0345 -0.25966,0.0339 -0.007,-2.2e-4 0.0276,-0.0106 0.0766,-0.0229 z"
       id="path14"
       transform="scale(0.26458333)" />
    <path
       style="fill:#ffaf35;fill-opacity:1;stroke:none;stroke-width:0.00456291"
       d="m 655.99848,651.67264 c 0.002,-0.0113 0.004,-0.0232 0.005,-0.0265 0.004,-0.0126 -0.008,-0.0711 -0.0188,-0.0945 -0.0243,-0.0515 -0.0571,-0.0775 -0.12752,-0.10104 l -0.0319,-0.0107 0.0525,0.002 c 0.0289,10e-4 0.0601,0.004 0.0693,0.007 0.0207,0.006 0.0492,0.037 0.069,0.0752 0.0126,0.0244 0.0141,0.0315 0.014,0.0662 -1.5e-4,0.0389 -0.008,0.066 -0.027,0.0928 -0.007,0.009 -0.007,0.009 -0.004,-0.0106 z"
       id="path15"
       transform="scale(0.26458333)" />
    <path
       style="fill:#ffaf35;fill-opacity:1;stroke:none;stroke-width:0.00456291"
       d="m 653.78966,652.19731 c -0.29994,-0.0415 -0.59957,-0.12454 -0.93773,-0.25994 -0.0797,-0.0319 -0.22364,-0.10085 -0.21615,-0.10352 0.003,-9.7e-4 0.0448,0.0107 0.0935,0.026 0.12327,0.0386 0.48978,0.14814 0.71601,0.21394 0.32637,0.0949 0.44017,0.12821 0.44488,0.13012 0.0115,0.005 -0.0467,8.4e-4 -0.10055,-0.007 z"
       id="path16"
       transform="scale(0.26458333)" />
    <path
       style="fill:#ffaf35;stroke:none;stroke-width:0.00456291;fill-opacity:1"
       d="m 654.17996,656.62881 v -0.0448 l 0.0855,-0.0105 c 0.79537,-0.0974 1.66097,-0.43922 2.66123,-1.05098 0.21857,-0.13368 0.50009,-0.31691 0.52442,-0.34132 0.0254,-0.0255 0.0344,-0.0507 0.0341,-0.0956 -4.5e-4,-0.0689 -0.0318,-0.15918 -0.11325,-0.32656 -0.0351,-0.0721 -0.38958,-0.7443 -0.39779,-0.75431 -7.8e-4,-9.5e-4 -0.0174,0.007 -0.0369,0.0166 -0.21613,0.11169 -0.57228,0.28678 -0.6538,0.32143 -0.25224,0.10723 -0.52036,0.19668 -0.81676,0.2725 -0.12839,0.0328 -0.29481,0.0698 -0.30514,0.0678 -0.004,-8.1e-4 0.0152,-0.006 0.0428,-0.0121 0.0863,-0.0184 0.22396,-0.0534 0.33202,-0.0846 0.49108,-0.14153 0.98047,-0.36426 1.4178,-0.64525 0.0238,-0.0153 0.0446,-0.0263 0.0463,-0.0246 0.002,0.002 0.0117,0.0238 0.0223,0.0489 0.0576,0.13631 0.17861,0.38353 0.25584,0.52245 0.11675,0.21002 0.23994,0.3967 0.37494,0.5682 l 0.0252,0.0321 -0.10334,0.0734 c -1.24298,0.88226 -2.24601,1.35603 -3.14223,1.48421 -0.0875,0.0125 -0.22186,0.0278 -0.24416,0.0278 -0.008,0 -0.009,-0.003 -0.009,-0.0448 z"
       id="path17"
       transform="scale(0.26458333)" />
    <path
       style="fill:#ffaf35;fill-opacity:1;stroke:none;stroke-width:0.00456291"
       d="m 649.15163,649.82957 c -0.0444,-0.0451 -0.10145,-0.0848 -0.15519,-0.10814 -0.0396,-0.0172 -0.1155,-0.0382 -0.13778,-0.0382 -0.0123,0 -0.0132,-10e-4 -0.0109,-0.0126 0.0117,-0.0584 0.0177,-0.20456 0.012,-0.29317 -0.003,-0.0414 -0.0366,-0.33169 -0.0755,-0.64508 -0.0389,-0.31339 -0.0706,-0.57159 -0.0706,-0.57379 0,-0.002 0.009,-0.004 0.0205,-0.004 0.0245,0 0.0208,-0.0121 0.0366,0.12092 0.0565,0.47614 0.13607,0.95373 0.19845,1.19092 0.0365,0.13865 0.0557,0.18247 0.0983,0.22416 0.025,0.0244 0.12961,0.17289 0.12471,0.17695 -9.1e-4,7.6e-4 -0.0191,-0.0163 -0.0405,-0.038 z"
       id="path18"
       transform="scale(0.26458333)" />
    <path
       style="fill:#ffaf35;fill-opacity:1;stroke:none;stroke-width:0.00390625"
       d="m 650.60501,652.26855 c -0.0809,-0.0832 -0.2278,-0.25459 -0.33393,-0.38964 -0.38124,-0.48517 -0.71071,-1.06269 -0.91367,-1.60157 -0.0282,-0.075 -0.10749,-0.30776 -0.10548,-0.30983 10e-4,-10e-4 0.0545,0.092 0.10847,0.19069 0.0739,0.13533 0.13411,0.25177 0.24324,0.47071 0.061,0.12246 0.13229,0.2622 0.15835,0.31054 0.23166,0.42983 0.51571,0.83778 0.82547,1.18555 l 0.0452,0.0508 6e-5,0.0596 c 4e-5,0.0328 -4.2e-4,0.0596 -10e-4,0.0596 -5.9e-4,0 -0.0126,-0.0119 -0.0267,-0.0264 z"
       id="path20"
       transform="scale(0.26458333)" />
    <path
       style="fill:#ffaf35;fill-opacity:1;stroke:none;stroke-width:0.00390625"
       d="m 656.56641,652.93795 v -0.0523 l 0.0504,-0.0375 c 0.12336,-0.0916 0.24261,-0.18893 0.36962,-0.3016 0.086,-0.0763 0.3202,-0.30896 0.39688,-0.39428 0.40744,-0.45335 0.71466,-0.9146 1.00752,-1.51269 l 0.0617,-0.12598 h 0.047 0.047 l -0.0188,0.042 c -0.072,0.16109 -0.15544,0.32797 -0.24358,0.48731 -0.16642,0.30087 -0.38645,0.62783 -0.60462,0.89846 -0.28299,0.35105 -0.60306,0.66541 -0.94032,0.92354 -0.0579,0.0443 -0.1688,0.12526 -0.17161,0.12526 -6.5e-4,0 -10e-4,-0.0235 -10e-4,-0.0523 z"
       id="path21"
       transform="scale(0.26458333)" />
    <path
       style="fill:#ffaf35;fill-opacity:1;stroke:none;stroke-width:0.00390625"
       d="m 658.78516,649.9017 c 0,-0.01 0.0857,-0.13722 0.10758,-0.16013 0.01,-0.0104 0.023,-0.0286 0.029,-0.0404 0.0638,-0.12532 0.16209,-0.69315 0.24417,-1.41035 0.0111,-0.0969 0.028,-0.26048 0.0511,-0.49492 l 0.002,-0.0244 h 0.029 c 0.0159,0 0.029,0.002 0.029,0.003 0,0.002 -0.0421,0.34353 -0.0937,0.75921 -0.0515,0.41567 -0.0955,0.77579 -0.0976,0.80026 -0.008,0.0904 -0.003,0.27423 0.01,0.3412 0.002,0.01 10e-4,0.0142 -0.003,0.0152 -0.064,0.0179 -0.12162,0.043 -0.16428,0.0716 -0.0509,0.0341 -0.10299,0.0846 -0.13101,0.12692 -0.01,0.0146 -0.0127,0.0176 -0.0127,0.0123 z"
       id="path22"
       transform="scale(0.26458333)" />
    <path
       style="fill:#ffaf35;fill-opacity:1;stroke:none;stroke-width:0.00390625"
       d="m 658.48677,650.44836 c 0.12995,-0.25156 0.26529,-0.50034 0.26976,-0.49587 10e-4,10e-4 -9.3e-4,0.007 -0.004,0.0138 -0.003,0.007 -0.0248,0.067 -0.0475,0.13415 -0.0444,0.13135 -0.0866,0.24404 -0.12992,0.34682 l -0.0272,0.0644 -0.0474,10e-4 -0.0474,10e-4 z"
       id="path23"
       transform="scale(0.26458333)" />
    <path
       style="fill:#ffaf35;fill-opacity:1;stroke:none;stroke-width:0.00550781"
       d="m 654.12158,649.74519 c -0.12903,-0.0171 -0.2091,-0.0505 -0.27195,-0.11336 -0.0508,-0.0508 -0.0941,-0.15685 -0.11434,-0.27995 -0.0105,-0.064 -0.007,-0.19131 0.006,-0.25342 0.0307,-0.1393 0.1046,-0.24094 0.21466,-0.29515 0.0794,-0.0391 0.12153,-0.048 0.22857,-0.0482 0.0811,-1.3e-4 0.0967,0.001 0.14468,0.0143 0.17989,0.0484 0.311,0.17564 0.36573,0.35498 0.0129,0.0422 0.0148,0.0581 0.0151,0.12548 4e-4,0.0906 -0.008,0.12797 -0.0433,0.20379 -0.0823,0.17452 -0.25532,0.28099 -0.47301,0.29108 -0.0308,10e-4 -0.0634,0.002 -0.0725,4e-4 z m 0.17067,-0.0492 c 0.15898,-0.0337 0.28352,-0.13573 0.3417,-0.28002 0.11015,-0.27315 -0.0518,-0.57646 -0.3387,-0.6345 -0.0648,-0.0131 -0.16792,-0.009 -0.22599,0.01 -0.0604,0.0193 -0.10022,0.0398 -0.14902,0.0765 -0.11833,0.0892 -0.18191,0.2188 -0.18191,0.37089 0,0.1286 0.0466,0.24155 0.13644,0.33048 0.0698,0.0692 0.16675,0.1184 0.25783,0.13099 0.0394,0.005 0.1242,0.003 0.15965,-0.004 z"
       id="path24"
       transform="scale(0.26458333)" />
    <path
       style="fill:#ffaf35;fill-opacity:1;stroke:none;stroke-width:0.00390625"
       d="m 659.22034,647.75293 c 0.004,-0.0282 0.0209,-0.25289 0.0276,-0.35645 0.0212,-0.3301 0.0225,-0.55253 0.004,-0.64373 -0.008,-0.0407 -0.0214,-0.0637 -0.0562,-0.0988 -0.0331,-0.0334 -0.0631,-0.0516 -0.11458,-0.0696 -0.0954,-0.0334 -0.21498,-0.0451 -0.50073,-0.0492 -0.32528,-0.005 -0.58474,-0.0168 -0.87696,-0.0412 -0.0942,-0.008 -0.13212,-0.0118 -0.33398,-0.0347 -0.26136,-0.0297 -0.33552,-0.024 -0.38475,0.0294 -0.0294,0.0319 -0.0441,0.0737 -0.0724,0.20614 -0.0144,0.0674 -0.0302,0.11807 -0.0476,0.1528 -0.0331,0.0659 -0.0956,0.13788 -0.1534,0.17658 -0.0254,0.017 -0.0897,0.0519 -0.0956,0.0519 -10e-4,0 -0.002,-0.005 -0.002,-0.0113 0,-0.0102 0.004,-0.0133 0.0361,-0.0314 0.11132,-0.0619 0.19386,-0.16701 0.22519,-0.28676 0.0284,-0.10866 0.0168,-0.23236 -0.0307,-0.32645 l -0.0115,-0.0228 0.0164,0.002 c 0.009,8.3e-4 0.54463,0.0307 1.19023,0.0664 0.69346,0.0383 1.17483,0.0664 1.17627,0.0687 10e-4,0.002 0.004,0.0131 0.005,0.0244 0.0103,0.0873 0.0677,0.19952 0.13902,0.27144 l 0.0343,0.0346 -0.005,0.0294 c -0.003,0.0162 -0.0281,0.2163 -0.0563,0.44469 -0.0281,0.22838 -0.052,0.4192 -0.053,0.42404 -0.002,0.008 -0.004,0.009 -0.0315,0.009 h -0.0296 z"
       id="path25"
       transform="scale(0.26458333)" />
    <path
       style="fill:#ffaf35;fill-opacity:1;stroke:none;stroke-width:0.00390625"
       d="m 651.6717,647.13856 c -0.0852,-0.0119 -0.17029,-0.0545 -0.2331,-0.11664 -0.0459,-0.0454 -0.0792,-0.11349 -0.10056,-0.2055 -0.009,-0.0398 -0.007,-0.046 0.005,-0.0145 0.0553,0.14012 0.19065,0.25153 0.34009,0.27988 0.1029,0.0195 0.20142,0.007 0.29489,-0.0384 0.14759,-0.0712 0.24243,-0.2086 0.26004,-0.37673 0.008,-0.0766 -0.008,-0.16704 -0.0414,-0.23824 -0.0471,-0.0995 -0.12145,-0.17497 -0.21864,-0.22185 -0.12043,-0.0581 -0.25526,-0.0628 -0.37968,-0.0132 -0.11287,0.045 -0.20951,0.14124 -0.25565,0.25471 -0.0101,0.0249 -0.0113,0.0265 -0.009,0.0125 0.007,-0.0539 0.0403,-0.13303 0.0723,-0.17251 0.0109,-0.0134 0.0198,-0.028 0.0198,-0.0324 0,-0.0573 -0.316,-0.12114 -0.82031,-0.16574 -0.0612,-0.005 -0.12232,-0.0109 -0.13574,-0.0121 l -0.0244,-0.002 v -0.0153 c 0,-0.0153 4e-5,-0.0153 0.0157,-0.0153 0.0221,0 5.00807,0.27664 5.03797,0.27952 l 0.0244,0.002 v 0.0194 0.0194 l -0.0225,-0.002 c -0.0563,-0.006 -0.42688,-0.0283 -0.66895,-0.0411 -0.37755,-0.02 -0.60179,-0.0299 -1.63672,-0.0723 -0.4458,-0.0183 -0.85419,-0.0351 -0.90753,-0.0375 -0.0534,-0.002 -0.098,-0.003 -0.0992,-0.002 -10e-4,0.001 0.0129,0.0624 0.0313,0.13608 0.0184,0.0736 0.0356,0.14532 0.0382,0.15929 0.007,0.0381 0.006,0.12825 -0.002,0.16978 -0.0434,0.22596 -0.22332,0.41194 -0.44235,0.45718 -0.0371,0.008 -0.10791,0.0105 -0.14211,0.006 z"
       id="path26"
       transform="scale(0.26458333)" />
    <path
       style="fill:#ffaf35;fill-opacity:1;stroke:none;stroke-width:0.00390625"
       d="m 648.7334,648.15508 c -0.0155,-8.1e-4 -0.0225,-0.003 -0.0225,-0.006 0,-0.01 -0.15247,-1.23468 -0.15452,-1.24117 -10e-4,-0.005 0.003,-0.0103 0.0165,-0.0193 0.0733,-0.0504 0.14429,-0.13917 0.17606,-0.2201 0.006,-0.015 0.0112,-0.0244 0.0119,-0.021 0.003,0.0146 -0.0268,0.11245 -0.0478,0.15788 -0.027,0.0585 -0.0334,0.11536 -0.0334,0.29654 4e-5,0.16815 0.008,0.32042 0.0295,0.58008 0.009,0.11274 0.0318,0.34035 0.0423,0.42969 0.003,0.0247 0.005,0.0449 0.005,0.0449 -2.6e-4,0 -0.0106,-5.3e-4 -0.0229,-10e-4 z"
       id="path27"
       transform="scale(0.26458333)" />
    <path
       style="fill:#ffaf35;fill-opacity:1;stroke:none;stroke-width:0.00390625"
       d="m 648.78749,646.44665 c -0.0195,-0.15333 -0.0555,-0.49449 -0.0525,-0.49723 7.6e-4,-7e-4 0.38547,0.0201 0.8549,0.0462 l 0.85352,0.0474 10e-4,0.0171 0.001,0.0171 -0.0247,-0.002 c -0.0724,-0.007 -0.34772,-0.0227 -0.52467,-0.0296 -0.31539,-0.0125 -0.80386,-0.0146 -0.90234,-0.004 -0.10614,0.0114 -0.15176,0.0341 -0.17616,0.0877 -0.0141,0.031 -0.0173,0.0615 -0.021,0.20075 -0.002,0.0716 -0.004,0.13113 -0.005,0.13219 -0.001,10e-4 -0.003,-0.006 -0.004,-0.015 z"
       id="path28"
       transform="scale(0.26458333)" />
    <path
       style="fill:#ffaf35;fill-opacity:1;stroke:none;stroke-width:0.00390625"
       d="m 656.33008,647.11501 c -0.15757,-0.0213 -0.28823,-0.10711 -0.3475,-0.22828 -0.0324,-0.0662 -0.0405,-0.10261 -0.0452,-0.20365 -0.005,-0.1149 -0.0208,-0.19423 -0.0474,-0.24416 -0.021,-0.0394 -0.0247,-0.041 -0.1204,-0.0522 -0.0465,-0.005 -0.22488,-0.0214 -0.23936,-0.0215 -0.006,-2e-5 -0.007,-0.004 -0.007,-0.0196 0,-0.0177 8.4e-4,-0.0195 0.009,-0.0195 0.0164,0 0.50878,0.028 0.50977,0.029 5.5e-4,5.5e-4 -0.008,0.0155 -0.0184,0.0333 -0.1098,0.1827 -0.0759,0.42585 0.0799,0.57389 0.1339,0.12719 0.32921,0.16305 0.50298,0.0923 0.006,-0.002 0.007,-6e-4 0.007,0.0107 v 0.0134 l -0.04,0.0125 c -0.022,0.007 -0.0532,0.0151 -0.0693,0.0183 -0.0364,0.007 -0.13727,0.0104 -0.17383,0.005 z"
       id="path29"
       transform="scale(0.26458333)" />
  </g>
</svg>
