<?xml version="1.0" encoding="UTF-8" standalone="no"?>
<!-- Created with Inkscape (http://www.inkscape.org/) -->

<svg
   width="61.866001mm"
   height="61.907001mm"
   viewBox="0 0 61.866 61.907"
   version="1.1"
   id="svg1"
   xml:space="preserve"
   inkscape:export-filename="logo.ico"
   inkscape:export-xdpi="96"
   inkscape:export-ydpi="96"
   sodipodi:docname="logo.svg"
   inkscape:version="1.3.1 (91b66b0783, 2023-11-16)"
   xmlns:inkscape="http://www.inkscape.org/namespaces/inkscape"
   xmlns:sodipodi="http://sodipodi.sourceforge.net/DTD/sodipodi-0.dtd"
   xmlns="http://www.w3.org/2000/svg"
   xmlns:svg="http://www.w3.org/2000/svg"><sodipodi:namedview
     id="namedview1"
     pagecolor="#ffffff"
     bordercolor="#000000"
     borderopacity="0.25"
     inkscape:showpageshadow="2"
     inkscape:pageopacity="0.0"
     inkscape:pagecheckerboard="0"
     inkscape:deskcolor="#d1d1d1"
     inkscape:document-units="mm"
     inkscape:zoom="2.2174412"
     inkscape:cx="112.0661"
     inkscape:cy="115.2229"
     inkscape:window-width="1360"
     inkscape:window-height="745"
     inkscape:window-x="-8"
     inkscape:window-y="-8"
     inkscape:window-maximized="1"
     inkscape:current-layer="layer1" /><defs
     id="defs1" /><g
     inkscape:label="Layer 1"
     inkscape:groupmode="layer"
     id="layer1"
     transform="translate(-71.000435,-108.57856)"><path
       style="fill:#000000;stroke:none;stroke-width:0.103556"
       d="m 119.72877,140.68881 c -19.28227,0.28566 -27.118797,0.35576 -28.371317,0.25388 l -0.715885,-0.0582 -0.291614,-0.43854 c -0.571336,-1.07529 -0.424221,-2.32086 0.405085,-3.02314 l 0.414926,-0.22051 9.263515,-0.13963 c 25.41226,-0.38312 30.5801,-0.40291 30.81995,-0.11794 0.2496,0.29653 0.51519,1.19313 0.49175,1.66001 -0.0346,0.68982 -0.21653,1.25094 -0.71605,1.67393 l -0.44506,0.24936 z"
       id="path1227"
       inkscape:transform-center-x="-7.5070204"
       inkscape:transform-center-y="-33.569598"
       sodipodi:nodetypes="cccccccccccc" /><g
       id="g1223"
       transform="rotate(-1.1743123,71.63462,77.619354)"
       inkscape:export-filename="logo.svg"
       inkscape:export-xdpi="96"
       inkscape:export-ydpi="96"><path
         style="fill:#fbac33"
         d="M 84.0021,155.80417 C 69.451688,140.66503 70.044469,141.35384 70.43293,140.03675 l 0.266041,-0.90203 0.930973,-0.2823 0.930972,-0.2823 0.58015,0.30435 c 0.319082,0.16739 6.532474,6.49749 13.807537,14.06689 l 13.227387,13.76254 0.24984,0.7822 0.24984,0.78219 -0.31386,0.6261 c -0.375961,0.74998 -1.146907,1.10724 -2.154864,0.99856 l -0.74067,-0.0804 z m 30.83167,-28.77464 c -7.26879,-7.54789 -13.46193,-14.06148 -13.76253,-14.47462 l -0.54655,-0.75116 0.23936,-0.7966 c 0.29259,-0.97374 1.20602,-1.62927 2.13737,-1.53389 l 0.69466,0.0711 13.35041,13.86029 c 7.34274,7.62316 13.54423,14.16727 13.78109,14.54247 l 0.43067,0.68217 -0.24254,0.67013 c -0.34551,0.95464 -1.26603,1.61628 -2.12686,1.52872 l -0.7391,-0.0752 z"
         id="path1226" /><path
         style="fill:#11786d"
         d="m 100.58675,169.97815 -0.762267,-0.37711 0.636247,-0.79102 0.0878,-1.02865 -0.27998,-0.69429 -0.22096,-0.50617 13.32498,-12.83919 c 7.27757,-7.01224 13.39882,-12.87644 13.59625,-13.03835 l 0.48804,-0.54153 0.64234,0.58987 0.8233,0.0873 0.54755,-0.0727 0.85723,-0.56174 0.44924,0.71825 c 0.44983,0.71918 0.2573,1.55083 -0.49082,2.33845 -0.63531,0.66887 -26.76852,25.89755 -27.45547,26.50518 -0.38213,0.33801 -1.78101,0.4697 -2.24346,0.2112 z m -30.121396,-31.2964 c -0.126758,-0.30787 -0.195568,-0.89319 -0.152909,-1.30071 l 0.07757,-0.74096 14.007565,-13.47525 c 7.704161,-7.41138 14.303381,-13.59423 14.664932,-13.73965 l 0.657367,-0.26441 1.135781,0.15661 0.59167,0.64802 -0.806,1.43037 c -0.3504,0.62184 0.65307,1.21523 0.4966,1.41378 l -0.32853,0.41689 -13.366432,12.88137 -13.719813,13.28796 -0.790413,-0.68292 -0.806646,-0.008 -0.822069,0.29655 -0.608193,0.24012 z"
         id="path1225"
         sodipodi:nodetypes="scccccsscccccssssccccccccsscccccccc" /></g></g></svg>
